G04*
G04 #@! TF.GenerationSoftware,Altium Limited,Altium Designer,25.8.1 (18)*
G04*
G04 Layer_Color=16711935*
%FSLAX25Y25*%
%MOIN*%
G70*
G04*
G04 #@! TF.SameCoordinates,F03844F7-55E9-4189-8D6E-AE4EA490B1BF*
G04*
G04*
G04 #@! TF.FilePolarity,Negative*
G04*
G01*
G75*
%ADD47C,0.22453*%
%ADD48C,0.14087*%
%ADD49C,0.08477*%
%ADD50C,0.06181*%
%ADD51C,0.06800*%
%ADD52C,0.07099*%
%ADD53R,0.07099X0.07099*%
%ADD54C,0.06600*%
%ADD55C,0.09855*%
%ADD56C,0.06312*%
G04:AMPARAMS|DCode=57|XSize=84.77mil|YSize=84.77mil|CornerRadius=23.19mil|HoleSize=0mil|Usage=FLASHONLY|Rotation=0.000|XOffset=0mil|YOffset=0mil|HoleType=Round|Shape=RoundedRectangle|*
%AMROUNDEDRECTD57*
21,1,0.08477,0.03839,0,0,0.0*
21,1,0.03839,0.08477,0,0,0.0*
1,1,0.04639,0.01919,-0.01919*
1,1,0.04639,-0.01919,-0.01919*
1,1,0.04639,-0.01919,0.01919*
1,1,0.04639,0.01919,0.01919*
%
%ADD57ROUNDEDRECTD57*%
%ADD58R,0.06181X0.06181*%
%ADD59C,0.08450*%
%ADD60C,0.04921*%
%ADD61C,0.07296*%
%ADD62C,0.13595*%
%ADD63C,0.02965*%
%ADD64C,0.02769*%
%ADD65C,0.03162*%
D47*
X574000Y374000D02*
D03*
X573225Y26000D02*
D03*
X26000Y374000D02*
D03*
Y26000D02*
D03*
D48*
X546161Y143000D02*
D03*
Y198650D02*
D03*
Y255000D02*
D03*
D49*
X441654Y361811D02*
D03*
X375079Y362205D02*
D03*
X241220D02*
D03*
X308150D02*
D03*
X431654Y361811D02*
D03*
X231221Y362205D02*
D03*
X298150D02*
D03*
X365079D02*
D03*
X318150D02*
D03*
X385079D02*
D03*
X451654Y361811D02*
D03*
X251220Y362205D02*
D03*
D50*
X441654Y327874D02*
D03*
X375079Y328268D02*
D03*
X241220D02*
D03*
X308150D02*
D03*
X431654Y327874D02*
D03*
X231221Y328268D02*
D03*
X298150D02*
D03*
X365079D02*
D03*
X318150D02*
D03*
X385079D02*
D03*
X451654Y327874D02*
D03*
X251220Y328268D02*
D03*
D51*
X393500Y40000D02*
D03*
X353500D02*
D03*
X313500D02*
D03*
X273500D02*
D03*
X233500D02*
D03*
X243500D02*
D03*
X213500D02*
D03*
X283500Y10000D02*
D03*
X253500D02*
D03*
X283500Y40000D02*
D03*
X253500D02*
D03*
X263500D02*
D03*
X243500Y10000D02*
D03*
X213500D02*
D03*
X223500Y40000D02*
D03*
X323500Y10000D02*
D03*
X293500D02*
D03*
X323500Y40000D02*
D03*
X293500D02*
D03*
X303500D02*
D03*
X403500Y10000D02*
D03*
X373500D02*
D03*
X403500Y40000D02*
D03*
X373500D02*
D03*
X383500D02*
D03*
X343500D02*
D03*
X333500D02*
D03*
X363500D02*
D03*
X333500Y10000D02*
D03*
X363500D02*
D03*
D52*
X123947Y384409D02*
D03*
X113947Y374410D02*
D03*
X103947D02*
D03*
X123947D02*
D03*
X123841Y312420D02*
D03*
Y302420D02*
D03*
X113841D02*
D03*
X103841D02*
D03*
X143947Y374410D02*
D03*
Y384409D02*
D03*
X133947D02*
D03*
Y374410D02*
D03*
X93947Y384409D02*
D03*
X103947D02*
D03*
X113947D02*
D03*
X153947Y374410D02*
D03*
Y384409D02*
D03*
X153841Y312420D02*
D03*
X133841D02*
D03*
X153841Y302420D02*
D03*
X133841D02*
D03*
X113841Y312420D02*
D03*
X103841D02*
D03*
X93841D02*
D03*
X143841D02*
D03*
Y302420D02*
D03*
D53*
X93947Y374410D02*
D03*
X93841Y302420D02*
D03*
D54*
X52300Y272100D02*
D03*
Y292100D02*
D03*
Y332100D02*
D03*
Y322100D02*
D03*
Y302100D02*
D03*
Y312100D02*
D03*
Y222100D02*
D03*
Y212100D02*
D03*
Y232100D02*
D03*
Y192100D02*
D03*
Y202100D02*
D03*
Y252100D02*
D03*
Y242100D02*
D03*
Y262100D02*
D03*
Y282100D02*
D03*
X42300Y332100D02*
D03*
Y322100D02*
D03*
Y312100D02*
D03*
Y302100D02*
D03*
Y292100D02*
D03*
Y282100D02*
D03*
Y272100D02*
D03*
Y262100D02*
D03*
Y252100D02*
D03*
Y242100D02*
D03*
Y232100D02*
D03*
Y222100D02*
D03*
Y212100D02*
D03*
Y202100D02*
D03*
Y192100D02*
D03*
D55*
X21646Y81988D02*
D03*
Y142913D02*
D03*
D56*
X58428Y99921D02*
D03*
X68428Y124921D02*
D03*
Y104921D02*
D03*
X58428Y109921D02*
D03*
X68428Y94921D02*
D03*
X58428Y129921D02*
D03*
Y119921D02*
D03*
X68428Y114921D02*
D03*
D57*
X221220Y362205D02*
D03*
X288150D02*
D03*
X355079D02*
D03*
X421654Y361811D02*
D03*
D58*
X221220Y328268D02*
D03*
X288150D02*
D03*
X355079D02*
D03*
X421654Y327874D02*
D03*
D59*
X571200Y218650D02*
D03*
X531200D02*
D03*
Y178650D02*
D03*
X571200D02*
D03*
Y235000D02*
D03*
X531200D02*
D03*
Y275000D02*
D03*
X571200D02*
D03*
Y163000D02*
D03*
X531200D02*
D03*
Y123000D02*
D03*
X571200D02*
D03*
D60*
X308150Y336772D02*
D03*
X375079D02*
D03*
X441654Y336378D02*
D03*
X241220Y336772D02*
D03*
D61*
X571300Y315300D02*
D03*
Y305300D02*
D03*
D62*
X33428Y89902D02*
D03*
Y134902D02*
D03*
D63*
X581300Y305300D02*
D03*
Y315300D02*
D03*
D64*
X117088Y189135D02*
D03*
Y166035D02*
D03*
X499000Y316600D02*
D03*
X503200Y313700D02*
D03*
X503348Y307920D02*
D03*
X498700Y310900D02*
D03*
X488189Y284252D02*
D03*
X569200Y99800D02*
D03*
X569300Y86600D02*
D03*
X395500Y67200D02*
D03*
X377100Y69500D02*
D03*
X335200Y69000D02*
D03*
X354500Y66600D02*
D03*
X293400Y68400D02*
D03*
X315400Y66400D02*
D03*
X272600Y67300D02*
D03*
X253700Y68600D02*
D03*
X209900Y68300D02*
D03*
X229921Y67323D02*
D03*
X488189Y291339D02*
D03*
X303543Y63779D02*
D03*
X263779Y63386D02*
D03*
X117388Y228835D02*
D03*
X536800Y99700D02*
D03*
X537500Y86900D02*
D03*
X343701Y63779D02*
D03*
X383465Y64173D02*
D03*
X223228Y62992D02*
D03*
X359200Y85500D02*
D03*
X319900Y85900D02*
D03*
X276600Y85300D02*
D03*
X399200Y86000D02*
D03*
X230000Y85300D02*
D03*
D65*
X486128Y130794D02*
D03*
M02*
