G04*
G04 #@! TF.GenerationSoftware,Altium Limited,Altium Designer,25.8.1 (18)*
G04*
G04 Layer_Color=16711935*
%FSLAX25Y25*%
%MOIN*%
G70*
G04*
G04 #@! TF.SameCoordinates,F03844F7-55E9-4189-8D6E-AE4EA490B1BF*
G04*
G04*
G04 #@! TF.FilePolarity,Positive*
G04*
G01*
G75*
%ADD13C,0.00394*%
D13*
X202Y12099D02*
X259Y11103D01*
X398Y10115D01*
X618Y9142D01*
X918Y8190D01*
X1295Y7267D01*
X1748Y6378D01*
X2272Y5529D01*
X2864Y4726D01*
X3521Y3975D01*
X4238Y3281D01*
X5009Y2648D01*
X5830Y2081D01*
X6695Y1584D01*
X7598Y1160D01*
X8534Y812D01*
X9494Y543D01*
X10474Y353D01*
X11466Y246D01*
X12463Y220D01*
X11909Y399785D02*
X10890Y399740D01*
X9879Y399607D01*
X8883Y399386D01*
X7910Y399080D01*
X6967Y398689D01*
X6062Y398218D01*
X5202Y397670D01*
X4392Y397049D01*
X3640Y396360D01*
X2951Y395608D01*
X2330Y394798D01*
X1782Y393938D01*
X1311Y393033D01*
X920Y392091D01*
X614Y391118D01*
X393Y390122D01*
X260Y389110D01*
X215Y388091D01*
X599862Y387900D02*
X599822Y388880D01*
X599700Y389852D01*
X599499Y390812D01*
X599220Y391752D01*
X598863Y392665D01*
X598432Y393546D01*
X597931Y394388D01*
X597361Y395186D01*
X596727Y395934D01*
X596034Y396627D01*
X595286Y397261D01*
X594488Y397831D01*
X593646Y398333D01*
X592765Y398763D01*
X591852Y399119D01*
X590912Y399399D01*
X589953Y399600D01*
X588980Y399722D01*
X588000Y399762D01*
X588195Y200D02*
X589213Y244D01*
X590224Y378D01*
X591219Y598D01*
X592192Y905D01*
X593134Y1295D01*
X594038Y1766D01*
X594898Y2314D01*
X595707Y2934D01*
X596458Y3623D01*
X597147Y4375D01*
X597768Y5184D01*
X598316Y6043D01*
X598786Y6948D01*
X599177Y7890D01*
X599483Y8862D01*
X599704Y9857D01*
X599837Y10868D01*
X599881Y11887D01*
X182Y12099D02*
Y388091D01*
X12364Y200D02*
X588195D01*
X599862Y387900D02*
X599881Y11887D01*
X11891Y399762D02*
X588000Y399762D01*
M02*
