G04*
G04 #@! TF.GenerationSoftware,Altium Limited,Altium Designer,25.8.1 (18)*
G04*
G04 Layer_Physical_Order=1*
G04 Layer_Color=255*
%FSLAX25Y25*%
%MOIN*%
G70*
G04*
G04 #@! TF.SameCoordinates,F03844F7-55E9-4189-8D6E-AE4EA490B1BF*
G04*
G04*
G04 #@! TF.FilePolarity,Positive*
G04*
G01*
G75*
%ADD15C,0.01000*%
G04:AMPARAMS|DCode=21|XSize=19.68mil|YSize=35.43mil|CornerRadius=3.25mil|HoleSize=0mil|Usage=FLASHONLY|Rotation=180.000|XOffset=0mil|YOffset=0mil|HoleType=Round|Shape=RoundedRectangle|*
%AMROUNDEDRECTD21*
21,1,0.01968,0.02894,0,0,180.0*
21,1,0.01319,0.03543,0,0,180.0*
1,1,0.00650,-0.00659,0.01447*
1,1,0.00650,0.00659,0.01447*
1,1,0.00650,0.00659,-0.01447*
1,1,0.00650,-0.00659,-0.01447*
%
%ADD21ROUNDEDRECTD21*%
%ADD22R,0.02362X0.12598*%
%ADD23R,0.01968X0.01968*%
G04:AMPARAMS|DCode=24|XSize=27.95mil|YSize=34.65mil|CornerRadius=4.61mil|HoleSize=0mil|Usage=FLASHONLY|Rotation=0.000|XOffset=0mil|YOffset=0mil|HoleType=Round|Shape=RoundedRectangle|*
%AMROUNDEDRECTD24*
21,1,0.02795,0.02542,0,0,0.0*
21,1,0.01873,0.03465,0,0,0.0*
1,1,0.00922,0.00936,-0.01271*
1,1,0.00922,-0.00936,-0.01271*
1,1,0.00922,-0.00936,0.01271*
1,1,0.00922,0.00936,0.01271*
%
%ADD24ROUNDEDRECTD24*%
G04:AMPARAMS|DCode=25|XSize=47.64mil|YSize=71.65mil|CornerRadius=7.86mil|HoleSize=0mil|Usage=FLASHONLY|Rotation=0.000|XOffset=0mil|YOffset=0mil|HoleType=Round|Shape=RoundedRectangle|*
%AMROUNDEDRECTD25*
21,1,0.04764,0.05593,0,0,0.0*
21,1,0.03192,0.07165,0,0,0.0*
1,1,0.01572,0.01596,-0.02797*
1,1,0.01572,-0.01596,-0.02797*
1,1,0.01572,-0.01596,0.02797*
1,1,0.01572,0.01596,0.02797*
%
%ADD25ROUNDEDRECTD25*%
%ADD26O,0.01575X0.03347*%
G04:AMPARAMS|DCode=27|XSize=19.68mil|YSize=35.43mil|CornerRadius=3.25mil|HoleSize=0mil|Usage=FLASHONLY|Rotation=270.000|XOffset=0mil|YOffset=0mil|HoleType=Round|Shape=RoundedRectangle|*
%AMROUNDEDRECTD27*
21,1,0.01968,0.02894,0,0,270.0*
21,1,0.01319,0.03543,0,0,270.0*
1,1,0.00650,-0.01447,-0.00659*
1,1,0.00650,-0.01447,0.00659*
1,1,0.00650,0.01447,0.00659*
1,1,0.00650,0.01447,-0.00659*
%
%ADD27ROUNDEDRECTD27*%
G04:AMPARAMS|DCode=28|XSize=27.56mil|YSize=70.87mil|CornerRadius=6.89mil|HoleSize=0mil|Usage=FLASHONLY|Rotation=0.000|XOffset=0mil|YOffset=0mil|HoleType=Round|Shape=RoundedRectangle|*
%AMROUNDEDRECTD28*
21,1,0.02756,0.05709,0,0,0.0*
21,1,0.01378,0.07087,0,0,0.0*
1,1,0.01378,0.00689,-0.02854*
1,1,0.01378,-0.00689,-0.02854*
1,1,0.01378,-0.00689,0.02854*
1,1,0.01378,0.00689,0.02854*
%
%ADD28ROUNDEDRECTD28*%
%ADD29R,0.03150X0.03150*%
%ADD30R,0.03150X0.03150*%
%ADD31R,0.14764X0.17362*%
%ADD32R,0.03150X0.02362*%
%ADD33R,0.04331X0.01968*%
%ADD50C,0.06181*%
%ADD58R,0.06181X0.06181*%
%ADD60C,0.04921*%
%ADD66C,0.00700*%
%ADD67C,0.01968*%
%ADD68C,0.21654*%
%ADD69C,0.13287*%
%ADD70C,0.07677*%
%ADD71C,0.06000*%
%ADD72C,0.06299*%
%ADD73R,0.06299X0.06299*%
%ADD74C,0.09055*%
%ADD75C,0.05512*%
G04:AMPARAMS|DCode=76|XSize=76.77mil|YSize=76.77mil|CornerRadius=19.19mil|HoleSize=0mil|Usage=FLASHONLY|Rotation=0.000|XOffset=0mil|YOffset=0mil|HoleType=Round|Shape=RoundedRectangle|*
%AMROUNDEDRECTD76*
21,1,0.07677,0.03839,0,0,0.0*
21,1,0.03839,0.07677,0,0,0.0*
1,1,0.03839,0.01919,-0.01919*
1,1,0.03839,-0.01919,-0.01919*
1,1,0.03839,-0.01919,0.01919*
1,1,0.03839,0.01919,0.01919*
%
%ADD76ROUNDEDRECTD76*%
%ADD77C,0.07650*%
%ADD78C,0.06496*%
%ADD79C,0.12795*%
%ADD80C,0.02165*%
%ADD81C,0.01968*%
%ADD82C,0.02362*%
G36*
X593397Y7800D02*
X407242D01*
X407046Y8141D01*
X407227Y8456D01*
X407500Y9473D01*
Y10527D01*
X407227Y11544D01*
X406701Y12456D01*
X405956Y13201D01*
X405044Y13727D01*
X404027Y14000D01*
X402973D01*
X401956Y13727D01*
X401044Y13201D01*
X400299Y12456D01*
X399773Y11544D01*
X399500Y10527D01*
Y9473D01*
X399773Y8456D01*
X399955Y8141D01*
X399758Y7800D01*
X377242D01*
X377045Y8141D01*
X377227Y8456D01*
X377500Y9473D01*
Y10527D01*
X377227Y11544D01*
X376701Y12456D01*
X375956Y13201D01*
X375044Y13727D01*
X374027Y14000D01*
X372973D01*
X371956Y13727D01*
X371044Y13201D01*
X370299Y12456D01*
X369773Y11544D01*
X369500Y10527D01*
Y9473D01*
X369773Y8456D01*
X369954Y8141D01*
X369758Y7800D01*
X367242D01*
X367045Y8141D01*
X367227Y8456D01*
X367500Y9473D01*
Y10527D01*
X367227Y11544D01*
X366701Y12456D01*
X365956Y13201D01*
X365044Y13727D01*
X364027Y14000D01*
X362973D01*
X361956Y13727D01*
X361044Y13201D01*
X360299Y12456D01*
X359773Y11544D01*
X359500Y10527D01*
Y9473D01*
X359773Y8456D01*
X359955Y8141D01*
X359758Y7800D01*
X337242D01*
X337046Y8141D01*
X337227Y8456D01*
X337500Y9473D01*
Y10527D01*
X337227Y11544D01*
X336701Y12456D01*
X335956Y13201D01*
X335044Y13727D01*
X334027Y14000D01*
X332973D01*
X331956Y13727D01*
X331044Y13201D01*
X330299Y12456D01*
X329773Y11544D01*
X329500Y10527D01*
Y9473D01*
X329773Y8456D01*
X329955Y8141D01*
X329758Y7800D01*
X327242D01*
X327045Y8141D01*
X327227Y8456D01*
X327500Y9473D01*
Y10527D01*
X327227Y11544D01*
X326701Y12456D01*
X325956Y13201D01*
X325044Y13727D01*
X324027Y14000D01*
X322973D01*
X321956Y13727D01*
X321044Y13201D01*
X320299Y12456D01*
X319773Y11544D01*
X319500Y10527D01*
Y9473D01*
X319773Y8456D01*
X319954Y8141D01*
X319758Y7800D01*
X297242D01*
X297045Y8141D01*
X297227Y8456D01*
X297500Y9473D01*
Y10527D01*
X297227Y11544D01*
X296701Y12456D01*
X295956Y13201D01*
X295044Y13727D01*
X294027Y14000D01*
X292973D01*
X291956Y13727D01*
X291044Y13201D01*
X290299Y12456D01*
X289773Y11544D01*
X289500Y10527D01*
Y9473D01*
X289773Y8456D01*
X289954Y8141D01*
X289758Y7800D01*
X287242D01*
X287046Y8141D01*
X287227Y8456D01*
X287500Y9473D01*
Y10527D01*
X287227Y11544D01*
X286701Y12456D01*
X285956Y13201D01*
X285044Y13727D01*
X284027Y14000D01*
X282973D01*
X281956Y13727D01*
X281044Y13201D01*
X280299Y12456D01*
X279773Y11544D01*
X279500Y10527D01*
Y9473D01*
X279773Y8456D01*
X279955Y8141D01*
X279758Y7800D01*
X257242D01*
X257046Y8141D01*
X257227Y8456D01*
X257500Y9473D01*
Y10527D01*
X257227Y11544D01*
X256701Y12456D01*
X255956Y13201D01*
X255044Y13727D01*
X254027Y14000D01*
X252973D01*
X251956Y13727D01*
X251044Y13201D01*
X250299Y12456D01*
X249773Y11544D01*
X249500Y10527D01*
Y9473D01*
X249773Y8456D01*
X249955Y8141D01*
X249758Y7800D01*
X247242D01*
X247045Y8141D01*
X247227Y8456D01*
X247500Y9473D01*
Y10527D01*
X247227Y11544D01*
X246701Y12456D01*
X245956Y13201D01*
X245044Y13727D01*
X244027Y14000D01*
X242973D01*
X241956Y13727D01*
X241044Y13201D01*
X240299Y12456D01*
X239773Y11544D01*
X239500Y10527D01*
Y9473D01*
X239773Y8456D01*
X239954Y8141D01*
X239758Y7800D01*
X217242D01*
X217045Y8141D01*
X217227Y8456D01*
X217500Y9473D01*
Y10527D01*
X217227Y11544D01*
X216701Y12456D01*
X215956Y13201D01*
X215044Y13727D01*
X214027Y14000D01*
X212973D01*
X211956Y13727D01*
X211044Y13201D01*
X210299Y12456D01*
X209773Y11544D01*
X209500Y10527D01*
Y9473D01*
X209773Y8456D01*
X209955Y8141D01*
X209758Y7800D01*
X7301D01*
X7299Y394087D01*
X7577Y394365D01*
X593397D01*
Y7800D01*
D02*
G37*
%LPC*%
G36*
X124494Y388559D02*
X124447D01*
Y384910D01*
X128097D01*
Y384956D01*
X127814Y386011D01*
X127268Y386957D01*
X126495Y387730D01*
X125549Y388276D01*
X124494Y388559D01*
D02*
G37*
G36*
X123447D02*
X123401D01*
X122346Y388276D01*
X121399Y387730D01*
X120627Y386957D01*
X120080Y386011D01*
X119798Y384956D01*
Y384910D01*
X123447D01*
Y388559D01*
D02*
G37*
G36*
X154494D02*
X153401D01*
X152346Y388276D01*
X151399Y387730D01*
X150627Y386957D01*
X150080Y386011D01*
X149798Y384956D01*
Y383863D01*
X150080Y382808D01*
X150627Y381861D01*
X151399Y381089D01*
X152346Y380543D01*
X153401Y380260D01*
X154494D01*
X155549Y380543D01*
X156495Y381089D01*
X157268Y381861D01*
X157814Y382808D01*
X158097Y383863D01*
Y384956D01*
X157814Y386011D01*
X157268Y386957D01*
X156495Y387730D01*
X155549Y388276D01*
X154494Y388559D01*
D02*
G37*
G36*
X144494D02*
X143401D01*
X142346Y388276D01*
X141399Y387730D01*
X140627Y386957D01*
X140080Y386011D01*
X139798Y384956D01*
Y383863D01*
X140080Y382808D01*
X140627Y381861D01*
X141399Y381089D01*
X142346Y380543D01*
X143401Y380260D01*
X144494D01*
X145549Y380543D01*
X146495Y381089D01*
X147268Y381861D01*
X147814Y382808D01*
X148097Y383863D01*
Y384956D01*
X147814Y386011D01*
X147268Y386957D01*
X146495Y387730D01*
X145549Y388276D01*
X144494Y388559D01*
D02*
G37*
G36*
X128097Y383910D02*
X124447D01*
Y380260D01*
X124494D01*
X125549Y380543D01*
X126495Y381089D01*
X127268Y381861D01*
X127814Y382808D01*
X128097Y383863D01*
Y383910D01*
D02*
G37*
G36*
X123447D02*
X119798D01*
Y383863D01*
X120080Y382808D01*
X120627Y381861D01*
X121399Y381089D01*
X122346Y380543D01*
X123401Y380260D01*
X123447D01*
Y383910D01*
D02*
G37*
G36*
X114494Y388559D02*
X113401D01*
X112346Y388276D01*
X111399Y387730D01*
X110627Y386957D01*
X110080Y386011D01*
X109798Y384956D01*
Y383863D01*
X110080Y382808D01*
X110627Y381861D01*
X111399Y381089D01*
X112346Y380543D01*
X113401Y380260D01*
X114494D01*
X115549Y380543D01*
X116495Y381089D01*
X117268Y381861D01*
X117814Y382808D01*
X118097Y383863D01*
Y384956D01*
X117814Y386011D01*
X117268Y386957D01*
X116495Y387730D01*
X115549Y388276D01*
X114494Y388559D01*
D02*
G37*
G36*
X104494D02*
X103401D01*
X102346Y388276D01*
X101399Y387730D01*
X100627Y386957D01*
X100080Y386011D01*
X99798Y384956D01*
Y383863D01*
X100080Y382808D01*
X100627Y381861D01*
X101399Y381089D01*
X102346Y380543D01*
X103401Y380260D01*
X104494D01*
X105549Y380543D01*
X106495Y381089D01*
X107268Y381861D01*
X107814Y382808D01*
X108097Y383863D01*
Y384956D01*
X107814Y386011D01*
X107268Y386957D01*
X106495Y387730D01*
X105549Y388276D01*
X104494Y388559D01*
D02*
G37*
G36*
X94494D02*
X93401D01*
X92346Y388276D01*
X91399Y387730D01*
X90627Y386957D01*
X90080Y386011D01*
X89798Y384956D01*
Y383863D01*
X90080Y382808D01*
X90627Y381861D01*
X91399Y381089D01*
X92346Y380543D01*
X93401Y380260D01*
X94494D01*
X95549Y380543D01*
X96495Y381089D01*
X97268Y381861D01*
X97814Y382808D01*
X98097Y383863D01*
Y384956D01*
X97814Y386011D01*
X97268Y386957D01*
X96495Y387730D01*
X95549Y388276D01*
X94494Y388559D01*
D02*
G37*
G36*
X124494Y378559D02*
X124447D01*
Y374909D01*
X128097D01*
Y374956D01*
X127814Y376011D01*
X127268Y376957D01*
X126495Y377730D01*
X125549Y378276D01*
X124494Y378559D01*
D02*
G37*
G36*
X123447D02*
X123401D01*
X122346Y378276D01*
X121399Y377730D01*
X120627Y376957D01*
X120080Y376011D01*
X119798Y374956D01*
Y374909D01*
X123447D01*
Y378559D01*
D02*
G37*
G36*
X114494D02*
X114447D01*
Y374909D01*
X118097D01*
Y374956D01*
X117814Y376011D01*
X117268Y376957D01*
X116495Y377730D01*
X115549Y378276D01*
X114494Y378559D01*
D02*
G37*
G36*
X113447D02*
X113401D01*
X112346Y378276D01*
X111399Y377730D01*
X110627Y376957D01*
X110080Y376011D01*
X109798Y374956D01*
Y374909D01*
X113447D01*
Y378559D01*
D02*
G37*
G36*
X104494D02*
X104447D01*
Y374909D01*
X108097D01*
Y374956D01*
X107814Y376011D01*
X107268Y376957D01*
X106495Y377730D01*
X105549Y378276D01*
X104494Y378559D01*
D02*
G37*
G36*
X103447D02*
X103401D01*
X102346Y378276D01*
X101399Y377730D01*
X100627Y376957D01*
X100080Y376011D01*
X99798Y374956D01*
Y374909D01*
X103447D01*
Y378559D01*
D02*
G37*
G36*
X98097D02*
X94447D01*
Y374909D01*
X98097D01*
Y378559D01*
D02*
G37*
G36*
X93447D02*
X89798D01*
Y374909D01*
X93447D01*
Y378559D01*
D02*
G37*
G36*
X574931Y385827D02*
X574500D01*
Y374500D01*
X585827D01*
Y374931D01*
X585535Y376769D01*
X584960Y378540D01*
X584115Y380199D01*
X583021Y381705D01*
X581705Y383021D01*
X580199Y384115D01*
X578540Y384960D01*
X576769Y385536D01*
X574931Y385827D01*
D02*
G37*
G36*
X573500D02*
X573069D01*
X571231Y385536D01*
X569460Y384960D01*
X567801Y384115D01*
X566295Y383021D01*
X564979Y381705D01*
X563885Y380199D01*
X563040Y378540D01*
X562465Y376769D01*
X562173Y374931D01*
Y374500D01*
X573500D01*
Y385827D01*
D02*
G37*
G36*
X26931D02*
X26500D01*
Y374500D01*
X37827D01*
Y374931D01*
X37536Y376769D01*
X36960Y378540D01*
X36115Y380199D01*
X35021Y381705D01*
X33705Y383021D01*
X32199Y384115D01*
X30540Y384960D01*
X28769Y385536D01*
X26931Y385827D01*
D02*
G37*
G36*
X25500D02*
X25069D01*
X23231Y385536D01*
X21460Y384960D01*
X19801Y384115D01*
X18295Y383021D01*
X16979Y381705D01*
X15885Y380199D01*
X15040Y378540D01*
X14464Y376769D01*
X14173Y374931D01*
Y374500D01*
X25500D01*
Y385827D01*
D02*
G37*
G36*
X154494Y378559D02*
X153401D01*
X152346Y378276D01*
X151399Y377730D01*
X150627Y376957D01*
X150080Y376011D01*
X149798Y374956D01*
Y373863D01*
X150080Y372808D01*
X150627Y371862D01*
X151399Y371089D01*
X152346Y370543D01*
X153401Y370260D01*
X154494D01*
X155549Y370543D01*
X156495Y371089D01*
X157268Y371862D01*
X157814Y372808D01*
X158097Y373863D01*
Y374956D01*
X157814Y376011D01*
X157268Y376957D01*
X156495Y377730D01*
X155549Y378276D01*
X154494Y378559D01*
D02*
G37*
G36*
X128097Y373909D02*
X124447D01*
Y370260D01*
X124494D01*
X125549Y370543D01*
X126495Y371089D01*
X127268Y371862D01*
X127814Y372808D01*
X128097Y373863D01*
Y373909D01*
D02*
G37*
G36*
X123447D02*
X119798D01*
Y373863D01*
X120080Y372808D01*
X120627Y371862D01*
X121399Y371089D01*
X122346Y370543D01*
X123401Y370260D01*
X123447D01*
Y373909D01*
D02*
G37*
G36*
X118097D02*
X114447D01*
Y370260D01*
X114494D01*
X115549Y370543D01*
X116495Y371089D01*
X117268Y371862D01*
X117814Y372808D01*
X118097Y373863D01*
Y373909D01*
D02*
G37*
G36*
X113447D02*
X109798D01*
Y373863D01*
X110080Y372808D01*
X110627Y371862D01*
X111399Y371089D01*
X112346Y370543D01*
X113401Y370260D01*
X113447D01*
Y373909D01*
D02*
G37*
G36*
X108097D02*
X104447D01*
Y370260D01*
X104494D01*
X105549Y370543D01*
X106495Y371089D01*
X107268Y371862D01*
X107814Y372808D01*
X108097Y373863D01*
Y373909D01*
D02*
G37*
G36*
X103447D02*
X99798D01*
Y373863D01*
X100080Y372808D01*
X100627Y371862D01*
X101399Y371089D01*
X102346Y370543D01*
X103401Y370260D01*
X103447D01*
Y373909D01*
D02*
G37*
G36*
X98097D02*
X94447D01*
Y370260D01*
X98097D01*
Y373909D01*
D02*
G37*
G36*
X93447D02*
X89798D01*
Y370260D01*
X93447D01*
Y373909D01*
D02*
G37*
G36*
X585827Y373500D02*
X574500D01*
Y362173D01*
X574931D01*
X576769Y362464D01*
X578540Y363040D01*
X580199Y363885D01*
X581705Y364979D01*
X583021Y366295D01*
X584115Y367801D01*
X584960Y369460D01*
X585535Y371231D01*
X585827Y373069D01*
Y373500D01*
D02*
G37*
G36*
X573500D02*
X562173D01*
Y373069D01*
X562465Y371231D01*
X563040Y369460D01*
X563885Y367801D01*
X564979Y366295D01*
X566295Y364979D01*
X567801Y363885D01*
X569460Y363040D01*
X571231Y362464D01*
X573069Y362173D01*
X573500D01*
Y373500D01*
D02*
G37*
G36*
X37827D02*
X26500D01*
Y362173D01*
X26931D01*
X28769Y362464D01*
X30540Y363040D01*
X32199Y363885D01*
X33705Y364979D01*
X35021Y366295D01*
X36115Y367801D01*
X36960Y369460D01*
X37536Y371231D01*
X37827Y373069D01*
Y373500D01*
D02*
G37*
G36*
X25500D02*
X14173D01*
Y373069D01*
X14464Y371231D01*
X15040Y369460D01*
X15885Y367801D01*
X16979Y366295D01*
X18295Y364979D01*
X19801Y363885D01*
X21460Y363040D01*
X23231Y362464D01*
X25069Y362173D01*
X25500D01*
Y373500D01*
D02*
G37*
G36*
X356998Y367069D02*
X353159D01*
X352397Y366968D01*
X351687Y366674D01*
X351077Y366206D01*
X350609Y365596D01*
X350315Y364886D01*
X350215Y364124D01*
Y360285D01*
X350315Y359523D01*
X350609Y358813D01*
X351077Y358203D01*
X351687Y357735D01*
X352397Y357441D01*
X353159Y357341D01*
X353702D01*
Y332358D01*
X350988D01*
Y324177D01*
X359169D01*
Y332358D01*
X356455D01*
Y357341D01*
X356998D01*
X357760Y357441D01*
X358470Y357735D01*
X359080Y358203D01*
X359548Y358813D01*
X359842Y359523D01*
X359943Y360285D01*
Y361157D01*
X360336Y361209D01*
X360570Y360337D01*
X361207Y359234D01*
X362108Y358333D01*
X363211Y357696D01*
X363584Y357596D01*
Y332102D01*
X363500Y332080D01*
X362567Y331541D01*
X361806Y330779D01*
X361267Y329847D01*
X360988Y328806D01*
Y327729D01*
X361267Y326689D01*
X361806Y325756D01*
X362567Y324994D01*
X363500Y324456D01*
X363584Y324433D01*
Y311695D01*
X363228Y311457D01*
X362935Y311019D01*
X362832Y310502D01*
Y307608D01*
X362935Y307091D01*
X363228Y306653D01*
X363666Y306360D01*
X364183Y306258D01*
X365502D01*
X366019Y306360D01*
X366457Y306653D01*
X366750Y307091D01*
X366853Y307608D01*
Y310502D01*
X366750Y311019D01*
X366457Y311457D01*
X366337Y311537D01*
Y324370D01*
X366658Y324456D01*
X367590Y324994D01*
X368352Y325756D01*
X368891Y326689D01*
X369169Y327729D01*
Y328806D01*
X368891Y329847D01*
X368352Y330779D01*
X367590Y331541D01*
X366658Y332080D01*
X366337Y332165D01*
Y357533D01*
X366946Y357696D01*
X368050Y358333D01*
X368951Y359234D01*
X369588Y360337D01*
X369875Y361410D01*
X370283D01*
X370570Y360337D01*
X371207Y359234D01*
X372108Y358333D01*
X373211Y357696D01*
X374442Y357366D01*
X374579D01*
Y362205D01*
Y367043D01*
X374442D01*
X373211Y366714D01*
X372108Y366076D01*
X371207Y365176D01*
X370570Y364072D01*
X370283Y363000D01*
X369875D01*
X369588Y364072D01*
X368951Y365176D01*
X368050Y366076D01*
X366946Y366714D01*
X365716Y367043D01*
X364442D01*
X363211Y366714D01*
X362108Y366076D01*
X361207Y365176D01*
X360570Y364072D01*
X360336Y363200D01*
X359943Y363252D01*
Y364124D01*
X359842Y364886D01*
X359548Y365596D01*
X359080Y366206D01*
X358470Y366674D01*
X357760Y366968D01*
X356998Y367069D01*
D02*
G37*
G36*
X290069D02*
X286230D01*
X285468Y366968D01*
X284758Y366674D01*
X284148Y366206D01*
X283680Y365596D01*
X283386Y364886D01*
X283286Y364124D01*
Y360285D01*
X283386Y359523D01*
X283680Y358813D01*
X284148Y358203D01*
X284758Y357735D01*
X285468Y357441D01*
X286230Y357341D01*
X286773D01*
Y332358D01*
X284059D01*
Y324177D01*
X292240D01*
Y332358D01*
X289526D01*
Y357341D01*
X290069D01*
X290831Y357441D01*
X291541Y357735D01*
X292151Y358203D01*
X292619Y358813D01*
X292913Y359523D01*
X293013Y360285D01*
Y361157D01*
X293407Y361209D01*
X293641Y360337D01*
X294278Y359234D01*
X295179Y358333D01*
X296282Y357696D01*
X296655Y357596D01*
Y332102D01*
X296571Y332080D01*
X295638Y331541D01*
X294876Y330779D01*
X294338Y329847D01*
X294059Y328806D01*
Y327729D01*
X294338Y326689D01*
X294876Y325756D01*
X295638Y324994D01*
X296571Y324456D01*
X296655Y324433D01*
Y311695D01*
X296299Y311457D01*
X296006Y311019D01*
X295903Y310502D01*
Y307608D01*
X296006Y307091D01*
X296299Y306653D01*
X296737Y306360D01*
X297254Y306258D01*
X298573D01*
X299090Y306360D01*
X299528Y306653D01*
X299821Y307091D01*
X299924Y307608D01*
Y310502D01*
X299821Y311019D01*
X299528Y311457D01*
X299408Y311537D01*
Y324370D01*
X299728Y324456D01*
X300661Y324994D01*
X301423Y325756D01*
X301961Y326689D01*
X302240Y327729D01*
Y328806D01*
X301961Y329847D01*
X301423Y330779D01*
X300661Y331541D01*
X299728Y332080D01*
X299408Y332165D01*
Y357533D01*
X300017Y357696D01*
X301121Y358333D01*
X302021Y359234D01*
X302658Y360337D01*
X302946Y361410D01*
X303353D01*
X303641Y360337D01*
X304278Y359234D01*
X305179Y358333D01*
X306282Y357696D01*
X307513Y357366D01*
X307650D01*
Y362205D01*
Y367043D01*
X307513D01*
X306282Y366714D01*
X305179Y366076D01*
X304278Y365176D01*
X303641Y364072D01*
X303353Y363000D01*
X302946D01*
X302658Y364072D01*
X302021Y365176D01*
X301121Y366076D01*
X300017Y366714D01*
X298787Y367043D01*
X297513D01*
X296282Y366714D01*
X295179Y366076D01*
X294278Y365176D01*
X293641Y364072D01*
X293407Y363200D01*
X293013Y363252D01*
Y364124D01*
X292913Y364886D01*
X292619Y365596D01*
X292151Y366206D01*
X291541Y366674D01*
X290831Y366968D01*
X290069Y367069D01*
D02*
G37*
G36*
X223140D02*
X219301D01*
X218539Y366968D01*
X217829Y366674D01*
X217219Y366206D01*
X216751Y365596D01*
X216457Y364886D01*
X216357Y364124D01*
Y360285D01*
X216457Y359523D01*
X216751Y358813D01*
X217219Y358203D01*
X217829Y357735D01*
X218539Y357441D01*
X219301Y357341D01*
X219691D01*
Y332358D01*
X217130D01*
Y324177D01*
X225311D01*
Y332358D01*
X222750D01*
Y357341D01*
X223140D01*
X223902Y357441D01*
X224612Y357735D01*
X225222Y358203D01*
X225690Y358813D01*
X225984Y359523D01*
X226084Y360285D01*
Y361157D01*
X226478Y361209D01*
X226712Y360337D01*
X227349Y359234D01*
X228250Y358333D01*
X229353Y357696D01*
X229573Y357637D01*
Y332040D01*
X228709Y331541D01*
X227947Y330779D01*
X227409Y329847D01*
X227130Y328806D01*
Y327729D01*
X227409Y326689D01*
X227947Y325756D01*
X228709Y324994D01*
X229573Y324496D01*
Y311593D01*
X229370Y311457D01*
X229077Y311019D01*
X228974Y310502D01*
Y307608D01*
X229077Y307091D01*
X229370Y306653D01*
X229808Y306360D01*
X230325Y306258D01*
X231644D01*
X232161Y306360D01*
X232599Y306653D01*
X232892Y307091D01*
X232995Y307608D01*
Y310502D01*
X232892Y311019D01*
X232632Y311408D01*
Y324411D01*
X232799Y324456D01*
X233732Y324994D01*
X234494Y325756D01*
X235032Y326689D01*
X235311Y327729D01*
Y328806D01*
X235032Y329847D01*
X234494Y330779D01*
X233732Y331541D01*
X232799Y332080D01*
X232632Y332124D01*
Y357574D01*
X233088Y357696D01*
X234191Y358333D01*
X235092Y359234D01*
X235729Y360337D01*
X236017Y361410D01*
X236424D01*
X236712Y360337D01*
X237349Y359234D01*
X238249Y358333D01*
X239353Y357696D01*
X240583Y357366D01*
X240721D01*
Y362205D01*
Y367043D01*
X240583D01*
X239353Y366714D01*
X238249Y366076D01*
X237349Y365176D01*
X236712Y364072D01*
X236424Y363000D01*
X236017D01*
X235729Y364072D01*
X235092Y365176D01*
X234191Y366076D01*
X233088Y366714D01*
X231857Y367043D01*
X230584D01*
X229353Y366714D01*
X228250Y366076D01*
X227349Y365176D01*
X226712Y364072D01*
X226478Y363200D01*
X226084Y363252D01*
Y364124D01*
X225984Y364886D01*
X225690Y365596D01*
X225222Y366206D01*
X224612Y366674D01*
X223902Y366968D01*
X223140Y367069D01*
D02*
G37*
G36*
X423573Y366675D02*
X419734D01*
X418972Y366575D01*
X418262Y366280D01*
X417652Y365812D01*
X417184Y365203D01*
X416890Y364492D01*
X416790Y363730D01*
Y359892D01*
X416890Y359130D01*
X417184Y358419D01*
X417652Y357810D01*
X418262Y357342D01*
X418972Y357048D01*
X419734Y356947D01*
X420124D01*
Y331965D01*
X417563D01*
Y323783D01*
X425744D01*
Y331965D01*
X423183D01*
Y356947D01*
X423573D01*
X424335Y357048D01*
X425045Y357342D01*
X425655Y357810D01*
X426123Y358419D01*
X426417Y359130D01*
X426517Y359892D01*
Y360764D01*
X426911Y360816D01*
X427145Y359943D01*
X427782Y358840D01*
X428683Y357939D01*
X429786Y357302D01*
X430124Y357211D01*
Y331699D01*
X430075Y331686D01*
X429142Y331147D01*
X428380Y330386D01*
X427842Y329453D01*
X427563Y328413D01*
Y327336D01*
X427842Y326295D01*
X428380Y325362D01*
X429142Y324601D01*
X430075Y324062D01*
X430242Y324017D01*
Y311490D01*
X430204Y311465D01*
X429912Y311027D01*
X429809Y310510D01*
Y307616D01*
X429912Y307099D01*
X430204Y306661D01*
X430643Y306368D01*
X431159Y306265D01*
X432478D01*
X432995Y306368D01*
X433433Y306661D01*
X433726Y307099D01*
X433829Y307616D01*
Y310510D01*
X433726Y311027D01*
X433433Y311465D01*
X433301Y311554D01*
Y324102D01*
X434165Y324601D01*
X434927Y325362D01*
X435465Y326295D01*
X435744Y327336D01*
Y328413D01*
X435465Y329453D01*
X434927Y330386D01*
X434165Y331147D01*
X433232Y331686D01*
X433183Y331699D01*
Y357211D01*
X433521Y357302D01*
X434624Y357939D01*
X435525Y358840D01*
X436162Y359943D01*
X436450Y361016D01*
X436857D01*
X437145Y359943D01*
X437782Y358840D01*
X438683Y357939D01*
X439786Y357302D01*
X441017Y356972D01*
X441154D01*
Y361811D01*
Y366650D01*
X441017D01*
X439786Y366320D01*
X438683Y365683D01*
X437782Y364782D01*
X437145Y363679D01*
X436857Y362606D01*
X436450D01*
X436162Y363679D01*
X435525Y364782D01*
X434624Y365683D01*
X433521Y366320D01*
X432291Y366650D01*
X431017D01*
X429786Y366320D01*
X428683Y365683D01*
X427782Y364782D01*
X427145Y363679D01*
X426911Y362807D01*
X426517Y362858D01*
Y363730D01*
X426417Y364492D01*
X426123Y365203D01*
X425655Y365812D01*
X425045Y366280D01*
X424335Y366575D01*
X423573Y366675D01*
D02*
G37*
G36*
X128614Y342525D02*
X128177D01*
Y340264D01*
X130103D01*
Y341035D01*
X129990Y341605D01*
X129667Y342088D01*
X129184Y342411D01*
X128614Y342525D01*
D02*
G37*
G36*
X127177D02*
X126741D01*
X126171Y342411D01*
X125687Y342088D01*
X125364Y341605D01*
X125251Y341035D01*
Y340264D01*
X127177D01*
Y342525D01*
D02*
G37*
G36*
X151488Y342525D02*
X151051D01*
Y340264D01*
X152978D01*
Y341035D01*
X152864Y341605D01*
X152541Y342088D01*
X152058Y342411D01*
X151488Y342525D01*
D02*
G37*
G36*
X150051D02*
X149615D01*
X149045Y342411D01*
X148561Y342088D01*
X148238Y341605D01*
X148125Y341035D01*
Y340264D01*
X150051D01*
Y342525D01*
D02*
G37*
G36*
X130103Y339264D02*
X128177D01*
Y337003D01*
X128614D01*
X129184Y337116D01*
X129667Y337439D01*
X129990Y337923D01*
X130103Y338493D01*
Y339264D01*
D02*
G37*
G36*
X127177D02*
X125251D01*
Y338493D01*
X125364Y337923D01*
X125687Y337439D01*
X126171Y337116D01*
X126741Y337003D01*
X127177D01*
Y339264D01*
D02*
G37*
G36*
X152978Y339264D02*
X151051D01*
Y337003D01*
X151488D01*
X152058Y337116D01*
X152541Y337439D01*
X152864Y337923D01*
X152978Y338493D01*
Y339264D01*
D02*
G37*
G36*
X150051D02*
X148125D01*
Y338493D01*
X148238Y337923D01*
X148561Y337439D01*
X149045Y337116D01*
X149615Y337003D01*
X150051D01*
Y339264D01*
D02*
G37*
G36*
X375534Y340232D02*
X374623D01*
X373743Y339996D01*
X372954Y339541D01*
X372310Y338896D01*
X371854Y338107D01*
X371618Y337227D01*
Y336316D01*
X371854Y335436D01*
X372310Y334647D01*
X372954Y334002D01*
X373743Y333547D01*
X374623Y333311D01*
X375534D01*
X376414Y333547D01*
X377204Y334002D01*
X377848Y334647D01*
X378304Y335436D01*
X378539Y336316D01*
Y337227D01*
X378304Y338107D01*
X377848Y338896D01*
X377204Y339541D01*
X376414Y339996D01*
X375534Y340232D01*
D02*
G37*
G36*
X308605D02*
X307694D01*
X306814Y339996D01*
X306025Y339541D01*
X305380Y338896D01*
X304925Y338107D01*
X304689Y337227D01*
Y336316D01*
X304925Y335436D01*
X305380Y334647D01*
X306025Y334002D01*
X306814Y333547D01*
X307694Y333311D01*
X308605D01*
X309485Y333547D01*
X310275Y334002D01*
X310919Y334647D01*
X311374Y335436D01*
X311610Y336316D01*
Y337227D01*
X311374Y338107D01*
X310919Y338896D01*
X310275Y339541D01*
X309485Y339996D01*
X308605Y340232D01*
D02*
G37*
G36*
X241676D02*
X240765D01*
X239885Y339996D01*
X239096Y339541D01*
X238451Y338896D01*
X237996Y338107D01*
X237760Y337227D01*
Y336316D01*
X237996Y335436D01*
X238451Y334647D01*
X239096Y334002D01*
X239885Y333547D01*
X240765Y333311D01*
X241676D01*
X242556Y333547D01*
X243345Y334002D01*
X243990Y334647D01*
X244445Y335436D01*
X244681Y336316D01*
Y337227D01*
X244445Y338107D01*
X243990Y338896D01*
X243345Y339541D01*
X242556Y339996D01*
X241676Y340232D01*
D02*
G37*
G36*
X442109Y339839D02*
X441198D01*
X440318Y339603D01*
X439529Y339147D01*
X438884Y338503D01*
X438429Y337714D01*
X438193Y336834D01*
Y335922D01*
X438429Y335042D01*
X438884Y334253D01*
X439529Y333609D01*
X440318Y333153D01*
X441198Y332917D01*
X442109D01*
X442989Y333153D01*
X443778Y333609D01*
X444423Y334253D01*
X444878Y335042D01*
X445114Y335922D01*
Y336834D01*
X444878Y337714D01*
X444423Y338503D01*
X443778Y339147D01*
X442989Y339603D01*
X442109Y339839D01*
D02*
G37*
G36*
X158761Y336901D02*
X157665D01*
Y332784D01*
X160582D01*
Y335080D01*
X160444Y335777D01*
X160049Y336368D01*
X159458Y336762D01*
X158761Y336901D01*
D02*
G37*
G36*
X156665D02*
X155570D01*
X154873Y336762D01*
X154282Y336368D01*
X153887Y335777D01*
X153749Y335080D01*
Y332784D01*
X156665D01*
Y336901D01*
D02*
G37*
G36*
X123053Y336901D02*
X121957D01*
Y332783D01*
X124874D01*
Y335080D01*
X124735Y335777D01*
X124340Y336368D01*
X123749Y336762D01*
X123053Y336901D01*
D02*
G37*
G36*
X120957D02*
X119861D01*
X119164Y336762D01*
X118573Y336368D01*
X118178Y335777D01*
X118040Y335080D01*
Y332783D01*
X120957D01*
Y336901D01*
D02*
G37*
G36*
X52827Y336100D02*
X52800D01*
Y332600D01*
X56300D01*
Y332627D01*
X56027Y333644D01*
X55501Y334556D01*
X54756Y335301D01*
X53844Y335827D01*
X52827Y336100D01*
D02*
G37*
G36*
X51800D02*
X51773D01*
X50756Y335827D01*
X49844Y335301D01*
X49099Y334556D01*
X48573Y333644D01*
X48300Y332627D01*
Y332600D01*
X51800D01*
Y336100D01*
D02*
G37*
G36*
X375617Y332358D02*
X375579D01*
Y328768D01*
X379169D01*
Y328806D01*
X378890Y329847D01*
X378352Y330779D01*
X377590Y331541D01*
X376658Y332080D01*
X375617Y332358D01*
D02*
G37*
G36*
X241759D02*
X241721D01*
Y328768D01*
X245311D01*
Y328806D01*
X245032Y329847D01*
X244494Y330779D01*
X243732Y331541D01*
X242799Y332080D01*
X241759Y332358D01*
D02*
G37*
G36*
X308688D02*
X308650D01*
Y328768D01*
X312240D01*
Y328806D01*
X311961Y329847D01*
X311423Y330779D01*
X310661Y331541D01*
X309729Y332080D01*
X308688Y332358D01*
D02*
G37*
G36*
X307650D02*
X307611D01*
X306571Y332080D01*
X305638Y331541D01*
X304876Y330779D01*
X304338Y329847D01*
X304059Y328806D01*
Y328768D01*
X307650D01*
Y332358D01*
D02*
G37*
G36*
X240721D02*
X240682D01*
X239642Y332080D01*
X238709Y331541D01*
X237947Y330779D01*
X237409Y329847D01*
X237130Y328806D01*
Y328768D01*
X240721D01*
Y332358D01*
D02*
G37*
G36*
X374579D02*
X374540D01*
X373500Y332080D01*
X372567Y331541D01*
X371806Y330779D01*
X371267Y329847D01*
X370988Y328806D01*
Y328768D01*
X374579D01*
Y332358D01*
D02*
G37*
G36*
X442192Y331965D02*
X442154D01*
Y328374D01*
X445744D01*
Y328413D01*
X445465Y329453D01*
X444927Y330386D01*
X444165Y331147D01*
X443232Y331686D01*
X442192Y331965D01*
D02*
G37*
G36*
X441154D02*
X441115D01*
X440075Y331686D01*
X439142Y331147D01*
X438380Y330386D01*
X437842Y329453D01*
X437563Y328413D01*
Y328374D01*
X441154D01*
Y331965D01*
D02*
G37*
G36*
X56300Y331600D02*
X52800D01*
Y328100D01*
X52827D01*
X53844Y328373D01*
X54756Y328899D01*
X55501Y329644D01*
X56027Y330556D01*
X56300Y331573D01*
Y331600D01*
D02*
G37*
G36*
X51800D02*
X48300D01*
Y331573D01*
X48573Y330556D01*
X49099Y329644D01*
X49844Y328899D01*
X50756Y328373D01*
X51773Y328100D01*
X51800D01*
Y331600D01*
D02*
G37*
G36*
X42827Y336100D02*
X41773D01*
X40756Y335827D01*
X39844Y335301D01*
X39099Y334556D01*
X38573Y333644D01*
X38300Y332627D01*
Y331573D01*
X38573Y330556D01*
X39099Y329644D01*
X39844Y328899D01*
X40756Y328373D01*
X41773Y328100D01*
X42827D01*
X43844Y328373D01*
X44756Y328899D01*
X45501Y329644D01*
X46027Y330556D01*
X46300Y331573D01*
Y332627D01*
X46027Y333644D01*
X45501Y334556D01*
X44756Y335301D01*
X43844Y335827D01*
X42827Y336100D01*
D02*
G37*
G36*
X160582Y331784D02*
X157665D01*
Y327666D01*
X158761D01*
X159458Y327804D01*
X160049Y328199D01*
X160444Y328790D01*
X160582Y329487D01*
Y331784D01*
D02*
G37*
G36*
X156665D02*
X153749D01*
Y329487D01*
X153887Y328790D01*
X154282Y328199D01*
X154873Y327804D01*
X155570Y327666D01*
X156665D01*
Y331784D01*
D02*
G37*
G36*
X124874Y331783D02*
X121957D01*
Y327666D01*
X123053D01*
X123749Y327804D01*
X124340Y328199D01*
X124735Y328790D01*
X124874Y329487D01*
Y331783D01*
D02*
G37*
G36*
X120957D02*
X118040D01*
Y329487D01*
X118178Y328790D01*
X118573Y328199D01*
X119164Y327804D01*
X119861Y327666D01*
X120957D01*
Y331783D01*
D02*
G37*
G36*
X379169Y327768D02*
X375579D01*
Y324177D01*
X375617D01*
X376658Y324456D01*
X377590Y324994D01*
X378352Y325756D01*
X378890Y326689D01*
X379169Y327729D01*
Y327768D01*
D02*
G37*
G36*
X374579D02*
X370988D01*
Y327729D01*
X371267Y326689D01*
X371806Y325756D01*
X372567Y324994D01*
X373500Y324456D01*
X374540Y324177D01*
X374579D01*
Y327768D01*
D02*
G37*
G36*
X312240D02*
X308650D01*
Y324177D01*
X308688D01*
X309729Y324456D01*
X310661Y324994D01*
X311423Y325756D01*
X311961Y326689D01*
X312240Y327729D01*
Y327768D01*
D02*
G37*
G36*
X307650D02*
X304059D01*
Y327729D01*
X304338Y326689D01*
X304876Y325756D01*
X305638Y324994D01*
X306571Y324456D01*
X307611Y324177D01*
X307650D01*
Y327768D01*
D02*
G37*
G36*
X245311D02*
X241721D01*
Y324177D01*
X241759D01*
X242799Y324456D01*
X243732Y324994D01*
X244494Y325756D01*
X245032Y326689D01*
X245311Y327729D01*
Y327768D01*
D02*
G37*
G36*
X240721D02*
X237130D01*
Y327729D01*
X237409Y326689D01*
X237947Y325756D01*
X238709Y324994D01*
X239642Y324456D01*
X240682Y324177D01*
X240721D01*
Y327768D01*
D02*
G37*
G36*
X445744Y327374D02*
X442154D01*
Y323783D01*
X442192D01*
X443232Y324062D01*
X444165Y324601D01*
X444927Y325362D01*
X445465Y326295D01*
X445744Y327336D01*
Y327374D01*
D02*
G37*
G36*
X441154D02*
X437563D01*
Y327336D01*
X437842Y326295D01*
X438380Y325362D01*
X439142Y324601D01*
X440075Y324062D01*
X441115Y323783D01*
X441154D01*
Y327374D01*
D02*
G37*
G36*
X52827Y326100D02*
X52800D01*
Y322600D01*
X56300D01*
Y322627D01*
X56027Y323644D01*
X55501Y324556D01*
X54756Y325301D01*
X53844Y325827D01*
X52827Y326100D01*
D02*
G37*
G36*
X51800D02*
X51773D01*
X50756Y325827D01*
X49844Y325301D01*
X49099Y324556D01*
X48573Y323644D01*
X48300Y322627D01*
Y322600D01*
X51800D01*
Y326100D01*
D02*
G37*
G36*
X56300Y321600D02*
X52800D01*
Y318100D01*
X52827D01*
X53844Y318373D01*
X54756Y318899D01*
X55501Y319644D01*
X56027Y320556D01*
X56300Y321573D01*
Y321600D01*
D02*
G37*
G36*
X51800D02*
X48300D01*
Y321573D01*
X48573Y320556D01*
X49099Y319644D01*
X49844Y318899D01*
X50756Y318373D01*
X51773Y318100D01*
X51800D01*
Y321600D01*
D02*
G37*
G36*
X42827Y326100D02*
X41773D01*
X40756Y325827D01*
X39844Y325301D01*
X39099Y324556D01*
X38573Y323644D01*
X38300Y322627D01*
Y321573D01*
X38573Y320556D01*
X39099Y319644D01*
X39844Y318899D01*
X40756Y318373D01*
X41773Y318100D01*
X42827D01*
X43844Y318373D01*
X44756Y318899D01*
X45501Y319644D01*
X46027Y320556D01*
X46300Y321573D01*
Y322627D01*
X46027Y323644D01*
X45501Y324556D01*
X44756Y325301D01*
X43844Y325827D01*
X42827Y326100D01*
D02*
G37*
G36*
X124387Y316569D02*
X124341D01*
Y312920D01*
X127991D01*
Y312966D01*
X127708Y314021D01*
X127162Y314968D01*
X126389Y315740D01*
X125443Y316286D01*
X124387Y316569D01*
D02*
G37*
G36*
X123341D02*
X123295D01*
X122239Y316286D01*
X121293Y315740D01*
X120520Y314968D01*
X119974Y314021D01*
X119691Y312966D01*
Y312920D01*
X123341D01*
Y316569D01*
D02*
G37*
G36*
X52827Y316100D02*
X52800D01*
Y312600D01*
X56300D01*
Y312627D01*
X56027Y313644D01*
X55501Y314556D01*
X54756Y315301D01*
X53844Y315827D01*
X52827Y316100D01*
D02*
G37*
G36*
X51800D02*
X51773D01*
X50756Y315827D01*
X49844Y315301D01*
X49099Y314556D01*
X48573Y313644D01*
X48300Y312627D01*
Y312600D01*
X51800D01*
Y316100D01*
D02*
G37*
G36*
X513681Y319214D02*
X512000D01*
Y312415D01*
X513681D01*
Y319214D01*
D02*
G37*
G36*
X581717Y318465D02*
X580883D01*
X580078Y318250D01*
X579356Y317833D01*
X578767Y317244D01*
X578350Y316522D01*
X578135Y315717D01*
Y314883D01*
X578350Y314078D01*
X578767Y313356D01*
X579356Y312767D01*
X580078Y312350D01*
X580883Y312135D01*
X581717D01*
X582522Y312350D01*
X583244Y312767D01*
X583833Y313356D01*
X584250Y314078D01*
X584465Y314883D01*
Y315717D01*
X584250Y316522D01*
X583833Y317244D01*
X583244Y317833D01*
X582522Y318250D01*
X581717Y318465D01*
D02*
G37*
G36*
X571859Y319548D02*
X570741D01*
X569660Y319258D01*
X568692Y318699D01*
X567901Y317908D01*
X567342Y316940D01*
X567052Y315859D01*
Y314741D01*
X567342Y313660D01*
X567901Y312692D01*
X568692Y311901D01*
X569660Y311342D01*
X570741Y311052D01*
X571859D01*
X572940Y311342D01*
X573908Y311901D01*
X574699Y312692D01*
X575258Y313660D01*
X575548Y314741D01*
Y315859D01*
X575258Y316940D01*
X574699Y317908D01*
X573908Y318699D01*
X572940Y319258D01*
X571859Y319548D01*
D02*
G37*
G36*
X438226Y311861D02*
X438067D01*
Y309563D01*
X439577D01*
Y310510D01*
X439474Y311027D01*
X439182Y311465D01*
X438743Y311758D01*
X438226Y311861D01*
D02*
G37*
G36*
X437067D02*
X436907D01*
X436391Y311758D01*
X435952Y311465D01*
X435660Y311027D01*
X435557Y310510D01*
Y309563D01*
X437067D01*
Y311861D01*
D02*
G37*
G36*
X377984Y311816D02*
X377547D01*
Y309555D01*
X379473D01*
Y310326D01*
X379360Y310896D01*
X379037Y311380D01*
X378554Y311703D01*
X377984Y311816D01*
D02*
G37*
G36*
X376547D02*
X376111D01*
X375541Y311703D01*
X375057Y311380D01*
X374734Y310896D01*
X374621Y310326D01*
Y309555D01*
X376547D01*
Y311816D01*
D02*
G37*
G36*
X311054D02*
X310618D01*
Y309555D01*
X312544D01*
Y310326D01*
X312431Y310896D01*
X312108Y311380D01*
X311625Y311703D01*
X311054Y311816D01*
D02*
G37*
G36*
X309618D02*
X309182D01*
X308611Y311703D01*
X308128Y311380D01*
X307805Y310896D01*
X307692Y310326D01*
Y309555D01*
X309618D01*
Y311816D01*
D02*
G37*
G36*
X244125D02*
X243689D01*
Y309555D01*
X245615D01*
Y310326D01*
X245502Y310896D01*
X245179Y311380D01*
X244695Y311703D01*
X244125Y311816D01*
D02*
G37*
G36*
X242689D02*
X242253D01*
X241682Y311703D01*
X241199Y311380D01*
X240876Y310896D01*
X240763Y310326D01*
Y309555D01*
X242689D01*
Y311816D01*
D02*
G37*
G36*
X371250Y311853D02*
X371091D01*
Y309555D01*
X372601D01*
Y310502D01*
X372498Y311019D01*
X372205Y311457D01*
X371767Y311750D01*
X371250Y311853D01*
D02*
G37*
G36*
X304321D02*
X304161D01*
Y309555D01*
X305672D01*
Y310502D01*
X305569Y311019D01*
X305276Y311457D01*
X304838Y311750D01*
X304321Y311853D01*
D02*
G37*
G36*
X237392D02*
X237232D01*
Y309555D01*
X238742D01*
Y310502D01*
X238640Y311019D01*
X238347Y311457D01*
X237909Y311750D01*
X237392Y311853D01*
D02*
G37*
G36*
X236232D02*
X236073D01*
X235556Y311750D01*
X235118Y311457D01*
X234825Y311019D01*
X234722Y310502D01*
Y309555D01*
X236232D01*
Y311853D01*
D02*
G37*
G36*
X303161D02*
X303002D01*
X302485Y311750D01*
X302047Y311457D01*
X301754Y311019D01*
X301651Y310502D01*
Y309555D01*
X303161D01*
Y311853D01*
D02*
G37*
G36*
X370091D02*
X369931D01*
X369414Y311750D01*
X368976Y311457D01*
X368683Y311019D01*
X368580Y310502D01*
Y309555D01*
X370091D01*
Y311853D01*
D02*
G37*
G36*
X444558Y311422D02*
X444122D01*
Y309161D01*
X446048D01*
Y309933D01*
X445935Y310503D01*
X445612Y310986D01*
X445129Y311309D01*
X444558Y311422D01*
D02*
G37*
G36*
X443122D02*
X442686D01*
X442115Y311309D01*
X441632Y310986D01*
X441309Y310503D01*
X441196Y309933D01*
Y309161D01*
X443122D01*
Y311422D01*
D02*
G37*
G36*
X154387Y316569D02*
X153295D01*
X152239Y316286D01*
X151293Y315740D01*
X150520Y314968D01*
X149974Y314021D01*
X149691Y312966D01*
Y311873D01*
X149974Y310818D01*
X150520Y309872D01*
X151293Y309099D01*
X152239Y308553D01*
X153295Y308270D01*
X154387D01*
X155443Y308553D01*
X156389Y309099D01*
X157161Y309872D01*
X157708Y310818D01*
X157991Y311873D01*
Y312966D01*
X157708Y314021D01*
X157161Y314968D01*
X156389Y315740D01*
X155443Y316286D01*
X154387Y316569D01*
D02*
G37*
G36*
X127991Y311920D02*
X124341D01*
Y308270D01*
X124387D01*
X125443Y308553D01*
X126389Y309099D01*
X127162Y309872D01*
X127708Y310818D01*
X127991Y311873D01*
Y311920D01*
D02*
G37*
G36*
X123341D02*
X119691D01*
Y311873D01*
X119974Y310818D01*
X120520Y309872D01*
X121293Y309099D01*
X122239Y308553D01*
X123295Y308270D01*
X123341D01*
Y311920D01*
D02*
G37*
G36*
X114387Y316569D02*
X113295D01*
X112239Y316286D01*
X111293Y315740D01*
X110520Y314968D01*
X109974Y314021D01*
X109691Y312966D01*
Y311873D01*
X109974Y310818D01*
X110520Y309872D01*
X111293Y309099D01*
X112239Y308553D01*
X113295Y308270D01*
X114387D01*
X115443Y308553D01*
X116389Y309099D01*
X117162Y309872D01*
X117708Y310818D01*
X117991Y311873D01*
Y312966D01*
X117708Y314021D01*
X117162Y314968D01*
X116389Y315740D01*
X115443Y316286D01*
X114387Y316569D01*
D02*
G37*
G36*
X56300Y311600D02*
X52800D01*
Y308100D01*
X52827D01*
X53844Y308373D01*
X54756Y308899D01*
X55501Y309644D01*
X56027Y310556D01*
X56300Y311573D01*
Y311600D01*
D02*
G37*
G36*
X51800D02*
X48300D01*
Y311573D01*
X48573Y310556D01*
X49099Y309644D01*
X49844Y308899D01*
X50756Y308373D01*
X51773Y308100D01*
X51800D01*
Y311600D01*
D02*
G37*
G36*
X42827Y316100D02*
X41773D01*
X40756Y315827D01*
X39844Y315301D01*
X39099Y314556D01*
X38573Y313644D01*
X38300Y312627D01*
Y311573D01*
X38573Y310556D01*
X39099Y309644D01*
X39844Y308899D01*
X40756Y308373D01*
X41773Y308100D01*
X42827D01*
X43844Y308373D01*
X44756Y308899D01*
X45501Y309644D01*
X46027Y310556D01*
X46300Y311573D01*
Y312627D01*
X46027Y313644D01*
X45501Y314556D01*
X44756Y315301D01*
X43844Y315827D01*
X42827Y316100D01*
D02*
G37*
G36*
X379473Y308555D02*
X377547D01*
Y306294D01*
X377984D01*
X378554Y306408D01*
X379037Y306731D01*
X379360Y307214D01*
X379473Y307784D01*
Y308555D01*
D02*
G37*
G36*
X376547D02*
X374621D01*
Y307784D01*
X374734Y307214D01*
X375057Y306731D01*
X375541Y306408D01*
X376111Y306294D01*
X376547D01*
Y308555D01*
D02*
G37*
G36*
X312544D02*
X310618D01*
Y306294D01*
X311054D01*
X311625Y306408D01*
X312108Y306731D01*
X312431Y307214D01*
X312544Y307784D01*
Y308555D01*
D02*
G37*
G36*
X309618D02*
X307692D01*
Y307784D01*
X307805Y307214D01*
X308128Y306731D01*
X308611Y306408D01*
X309182Y306294D01*
X309618D01*
Y308555D01*
D02*
G37*
G36*
X245615D02*
X243689D01*
Y306294D01*
X244125D01*
X244695Y306408D01*
X245179Y306731D01*
X245502Y307214D01*
X245615Y307784D01*
Y308555D01*
D02*
G37*
G36*
X242689D02*
X240763D01*
Y307784D01*
X240876Y307214D01*
X241199Y306731D01*
X241682Y306408D01*
X242253Y306294D01*
X242689D01*
Y308555D01*
D02*
G37*
G36*
X439577Y308563D02*
X438067D01*
Y306265D01*
X438226D01*
X438743Y306368D01*
X439182Y306661D01*
X439474Y307099D01*
X439577Y307616D01*
Y308563D01*
D02*
G37*
G36*
X437067D02*
X435557D01*
Y307616D01*
X435660Y307099D01*
X435952Y306661D01*
X436391Y306368D01*
X436907Y306265D01*
X437067D01*
Y308563D01*
D02*
G37*
G36*
X372601Y308555D02*
X371091D01*
Y306258D01*
X371250D01*
X371767Y306360D01*
X372205Y306653D01*
X372498Y307091D01*
X372601Y307608D01*
Y308555D01*
D02*
G37*
G36*
X370091D02*
X368580D01*
Y307608D01*
X368683Y307091D01*
X368976Y306653D01*
X369414Y306360D01*
X369931Y306258D01*
X370091D01*
Y308555D01*
D02*
G37*
G36*
X305672D02*
X304161D01*
Y306258D01*
X304321D01*
X304838Y306360D01*
X305276Y306653D01*
X305569Y307091D01*
X305672Y307608D01*
Y308555D01*
D02*
G37*
G36*
X303161D02*
X301651D01*
Y307608D01*
X301754Y307091D01*
X302047Y306653D01*
X302485Y306360D01*
X303002Y306258D01*
X303161D01*
Y308555D01*
D02*
G37*
G36*
X238742D02*
X237232D01*
Y306258D01*
X237392D01*
X237909Y306360D01*
X238347Y306653D01*
X238640Y307091D01*
X238742Y307608D01*
Y308555D01*
D02*
G37*
G36*
X236232D02*
X234722D01*
Y307608D01*
X234825Y307091D01*
X235118Y306653D01*
X235556Y306360D01*
X236073Y306258D01*
X236232D01*
Y308555D01*
D02*
G37*
G36*
X446048Y308161D02*
X444122D01*
Y305901D01*
X444558D01*
X445129Y306014D01*
X445612Y306337D01*
X445935Y306820D01*
X446048Y307390D01*
Y308161D01*
D02*
G37*
G36*
X443122D02*
X441196D01*
Y307390D01*
X441309Y306820D01*
X441632Y306337D01*
X442115Y306014D01*
X442686Y305901D01*
X443122D01*
Y308161D01*
D02*
G37*
G36*
X104387Y316569D02*
X103295D01*
X102239Y316286D01*
X101293Y315740D01*
X100520Y314968D01*
X99974Y314021D01*
X99691Y312966D01*
Y311873D01*
X99974Y310818D01*
X100520Y309872D01*
X101293Y309099D01*
X102239Y308553D01*
X103295Y308270D01*
X104387D01*
X105443Y308553D01*
X105682Y308691D01*
X107662Y306711D01*
Y304861D01*
X107282Y304759D01*
X107161Y304968D01*
X106389Y305740D01*
X105443Y306287D01*
X104387Y306569D01*
X104341D01*
Y302420D01*
Y298270D01*
X104387D01*
X105443Y298553D01*
X106389Y299099D01*
X107161Y299872D01*
X107282Y300080D01*
X107662Y299978D01*
Y291179D01*
X107778Y290594D01*
X108110Y290098D01*
X120124Y278083D01*
Y244958D01*
X117449Y242283D01*
X116511D01*
X115852Y242152D01*
X115294Y241779D01*
X114920Y241220D01*
X114789Y240561D01*
Y234852D01*
X114920Y234193D01*
X115294Y233635D01*
X115852Y233261D01*
X116511Y233130D01*
X117889D01*
X118549Y233261D01*
X119107Y233635D01*
X119480Y234193D01*
X119612Y234852D01*
Y240120D01*
X122735Y243244D01*
X123066Y243740D01*
X123183Y244325D01*
Y278717D01*
X123066Y279302D01*
X122735Y279798D01*
X110721Y291813D01*
Y299157D01*
X111084Y299308D01*
X111293Y299099D01*
X112239Y298553D01*
X113295Y298270D01*
X113341D01*
Y302420D01*
Y306569D01*
X113295D01*
X112239Y306287D01*
X111293Y305740D01*
X111084Y305532D01*
X110721Y305682D01*
Y307344D01*
X110604Y307929D01*
X110273Y308425D01*
X107744Y310954D01*
X107991Y311873D01*
Y312966D01*
X107708Y314021D01*
X107161Y314968D01*
X106389Y315740D01*
X105443Y316286D01*
X104387Y316569D01*
D02*
G37*
G36*
X513681Y311415D02*
X512000D01*
Y304616D01*
X513681D01*
Y311415D01*
D02*
G37*
G36*
X511000Y319214D02*
X509319D01*
Y318584D01*
X507350D01*
Y318500D01*
Y317100D01*
X509335D01*
Y316100D01*
X507350D01*
Y314616D01*
X509319D01*
Y313584D01*
X507350D01*
Y312100D01*
X509335D01*
Y311100D01*
X507350D01*
Y309616D01*
X509319D01*
Y308584D01*
X507350D01*
Y307100D01*
X509335D01*
Y306600D01*
X509835D01*
Y304616D01*
X511000D01*
Y311915D01*
Y319214D01*
D02*
G37*
G36*
X508835Y306100D02*
X507350D01*
Y305550D01*
Y304616D01*
X508835D01*
Y306100D01*
D02*
G37*
G36*
X124387Y306569D02*
X124341D01*
Y302920D01*
X127991D01*
Y302966D01*
X127708Y304021D01*
X127162Y304968D01*
X126389Y305740D01*
X125443Y306287D01*
X124387Y306569D01*
D02*
G37*
G36*
X123341D02*
X123295D01*
X122239Y306287D01*
X121293Y305740D01*
X120520Y304968D01*
X119974Y304021D01*
X119691Y302966D01*
Y302920D01*
X123341D01*
Y306569D01*
D02*
G37*
G36*
X114387D02*
X114341D01*
Y302920D01*
X117991D01*
Y302966D01*
X117708Y304021D01*
X117162Y304968D01*
X116389Y305740D01*
X115443Y306287D01*
X114387Y306569D01*
D02*
G37*
G36*
X93341D02*
X89691D01*
Y302920D01*
X93341D01*
Y306569D01*
D02*
G37*
G36*
X52827Y306100D02*
X52800D01*
Y302600D01*
X56300D01*
Y302627D01*
X56027Y303644D01*
X55501Y304556D01*
X54756Y305301D01*
X53844Y305827D01*
X52827Y306100D01*
D02*
G37*
G36*
X51800D02*
X51773D01*
X50756Y305827D01*
X49844Y305301D01*
X49099Y304556D01*
X48573Y303644D01*
X48300Y302627D01*
Y302600D01*
X51800D01*
Y306100D01*
D02*
G37*
G36*
X581717Y308465D02*
X580883D01*
X580078Y308250D01*
X579356Y307833D01*
X578767Y307244D01*
X578350Y306522D01*
X578135Y305717D01*
Y304883D01*
X578350Y304078D01*
X578767Y303356D01*
X579356Y302767D01*
X580078Y302350D01*
X580883Y302135D01*
X581717D01*
X582522Y302350D01*
X583244Y302767D01*
X583833Y303356D01*
X584250Y304078D01*
X584465Y304883D01*
Y305717D01*
X584250Y306522D01*
X583833Y307244D01*
X583244Y307833D01*
X582522Y308250D01*
X581717Y308465D01*
D02*
G37*
G36*
X571859Y309548D02*
X570741D01*
X569660Y309259D01*
X568692Y308699D01*
X567901Y307908D01*
X567342Y306940D01*
X567312Y306829D01*
X550687D01*
X550101Y306713D01*
X549605Y306381D01*
X547921Y304698D01*
X547415D01*
X546898Y304595D01*
X546459Y304302D01*
X546167Y303864D01*
X546064Y303347D01*
Y300453D01*
X546167Y299936D01*
X546459Y299498D01*
X546898Y299205D01*
X547415Y299102D01*
X548734D01*
X549250Y299205D01*
X549689Y299498D01*
X549981Y299936D01*
X550084Y300453D01*
Y302535D01*
X551320Y303771D01*
X567312D01*
X567342Y303660D01*
X567901Y302692D01*
X568692Y301901D01*
X569660Y301342D01*
X570741Y301052D01*
X571859D01*
X572940Y301342D01*
X573908Y301901D01*
X574699Y302692D01*
X575258Y303660D01*
X575548Y304741D01*
Y305859D01*
X575258Y306940D01*
X574699Y307908D01*
X573908Y308699D01*
X572940Y309259D01*
X571859Y309548D01*
D02*
G37*
G36*
X375966Y304224D02*
X374870D01*
Y300106D01*
X377787D01*
Y302403D01*
X377648Y303100D01*
X377254Y303691D01*
X376663Y304085D01*
X375966Y304224D01*
D02*
G37*
G36*
X373870D02*
X372774D01*
X372077Y304085D01*
X371487Y303691D01*
X371092Y303100D01*
X370953Y302403D01*
Y300106D01*
X373870D01*
Y304224D01*
D02*
G37*
G36*
X309037D02*
X307941D01*
Y300106D01*
X310858D01*
Y302403D01*
X310719Y303100D01*
X310325Y303691D01*
X309734Y304085D01*
X309037Y304224D01*
D02*
G37*
G36*
X306941D02*
X305845D01*
X305148Y304085D01*
X304557Y303691D01*
X304163Y303100D01*
X304024Y302403D01*
Y300106D01*
X306941D01*
Y304224D01*
D02*
G37*
G36*
X242108D02*
X241012D01*
Y300106D01*
X243929D01*
Y302403D01*
X243790Y303100D01*
X243395Y303691D01*
X242805Y304085D01*
X242108Y304224D01*
D02*
G37*
G36*
X240012D02*
X238916D01*
X238219Y304085D01*
X237628Y303691D01*
X237234Y303100D01*
X237095Y302403D01*
Y300106D01*
X240012D01*
Y304224D01*
D02*
G37*
G36*
X442541Y303830D02*
X441445D01*
Y299713D01*
X444362D01*
Y302009D01*
X444223Y302706D01*
X443828Y303297D01*
X443238Y303692D01*
X442541Y303830D01*
D02*
G37*
G36*
X440445D02*
X439349D01*
X438652Y303692D01*
X438061Y303297D01*
X437667Y302706D01*
X437528Y302009D01*
Y299713D01*
X440445D01*
Y303830D01*
D02*
G37*
G36*
X513681Y303584D02*
X507350D01*
Y303029D01*
X503200D01*
X502615Y302913D01*
X502119Y302581D01*
X497134Y297597D01*
X497133Y297598D01*
X495815D01*
X495298Y297495D01*
X494860Y297202D01*
X494567Y296764D01*
X494464Y296247D01*
Y293353D01*
X494567Y292836D01*
X494860Y292398D01*
X495023Y292288D01*
Y286774D01*
X494860Y286665D01*
X494567Y286227D01*
X494464Y285710D01*
Y282816D01*
X494567Y282299D01*
X494860Y281861D01*
X495023Y281751D01*
Y280532D01*
X494642Y280277D01*
X494319Y279794D01*
X494205Y279224D01*
Y276682D01*
X494319Y276112D01*
X494642Y275628D01*
X495125Y275305D01*
X495695Y275192D01*
X497568D01*
X498138Y275305D01*
X498621Y275628D01*
X498944Y276112D01*
X499058Y276682D01*
Y279224D01*
X498944Y279794D01*
X498621Y280277D01*
X498138Y280600D01*
X498082Y280611D01*
Y281857D01*
X498089Y281861D01*
X498381Y282299D01*
X498484Y282816D01*
Y285710D01*
X498381Y286227D01*
X498089Y286665D01*
X498082Y286669D01*
Y292394D01*
X498089Y292398D01*
X498381Y292836D01*
X498484Y293353D01*
Y294621D01*
X503833Y299971D01*
X507350D01*
Y299616D01*
X513681D01*
Y303584D01*
D02*
G37*
G36*
X535532Y318781D02*
X515618D01*
Y299419D01*
X535532D01*
Y300221D01*
X540362D01*
X540419Y299936D01*
X540711Y299498D01*
X541150Y299205D01*
X541667Y299102D01*
X542985D01*
X543502Y299205D01*
X543940Y299498D01*
X544233Y299936D01*
X544336Y300453D01*
Y303347D01*
X544233Y303864D01*
X543940Y304302D01*
X543502Y304595D01*
X542985Y304698D01*
X541667D01*
X541150Y304595D01*
X540711Y304302D01*
X540419Y303864D01*
X540316Y303347D01*
Y303279D01*
X535532D01*
Y303781D01*
X532382D01*
Y304419D01*
X535532D01*
Y308781D01*
X532382D01*
Y309419D01*
X535532D01*
Y313781D01*
X532382D01*
Y314419D01*
X535532D01*
Y318781D01*
D02*
G37*
G36*
X154387Y306569D02*
X153295D01*
X152239Y306287D01*
X151293Y305740D01*
X150520Y304968D01*
X149974Y304021D01*
X149691Y302966D01*
Y301873D01*
X149974Y300818D01*
X150520Y299872D01*
X151293Y299099D01*
X152239Y298553D01*
X153295Y298270D01*
X154387D01*
X155443Y298553D01*
X156389Y299099D01*
X157161Y299872D01*
X157708Y300818D01*
X157991Y301873D01*
Y302966D01*
X157708Y304021D01*
X157161Y304968D01*
X156389Y305740D01*
X155443Y306287D01*
X154387Y306569D01*
D02*
G37*
G36*
X144494Y378559D02*
X143401D01*
X142346Y378276D01*
X141399Y377730D01*
X140627Y376957D01*
X140080Y376011D01*
X139798Y374956D01*
Y373863D01*
X140080Y372808D01*
X140627Y371862D01*
X141399Y371089D01*
X141871Y370817D01*
Y353937D01*
Y339764D01*
Y336221D01*
Y331890D01*
Y316074D01*
X141293Y315740D01*
X140520Y314968D01*
X139974Y314021D01*
X139691Y312966D01*
Y311873D01*
X139974Y310818D01*
X140520Y309872D01*
X141293Y309099D01*
X141818Y308796D01*
Y306043D01*
X141293Y305740D01*
X140520Y304968D01*
X139974Y304021D01*
X139691Y302966D01*
Y301873D01*
X139974Y300818D01*
X140520Y299872D01*
X141293Y299099D01*
X142239Y298553D01*
X143295Y298270D01*
X144387D01*
X145443Y298553D01*
X146389Y299099D01*
X147161Y299872D01*
X147708Y300818D01*
X147991Y301873D01*
Y302966D01*
X147708Y304021D01*
X147161Y304968D01*
X146389Y305740D01*
X145864Y306043D01*
Y308796D01*
X146389Y309099D01*
X147161Y309872D01*
X147708Y310818D01*
X147991Y311873D01*
Y312966D01*
X147708Y314021D01*
X147161Y314968D01*
X146389Y315740D01*
X145917Y316013D01*
Y327666D01*
X147344D01*
X148041Y327804D01*
X148632Y328199D01*
X149026Y328790D01*
X149165Y329487D01*
Y335080D01*
X149026Y335777D01*
X148632Y336368D01*
X148041Y336762D01*
X147344Y336901D01*
X146381D01*
X146262Y337295D01*
X146478Y337439D01*
X146801Y337923D01*
X146915Y338493D01*
Y341035D01*
X146801Y341605D01*
X146478Y342088D01*
X145995Y342411D01*
X145917Y342427D01*
Y353937D01*
Y370755D01*
X146495Y371089D01*
X147268Y371862D01*
X147814Y372808D01*
X148097Y373863D01*
Y374956D01*
X147814Y376011D01*
X147268Y376957D01*
X146495Y377730D01*
X145549Y378276D01*
X144494Y378559D01*
D02*
G37*
G36*
X127991Y301920D02*
X124341D01*
Y298270D01*
X124387D01*
X125443Y298553D01*
X126389Y299099D01*
X127162Y299872D01*
X127708Y300818D01*
X127991Y301873D01*
Y301920D01*
D02*
G37*
G36*
X123341D02*
X119691D01*
Y301873D01*
X119974Y300818D01*
X120520Y299872D01*
X121293Y299099D01*
X122239Y298553D01*
X123295Y298270D01*
X123341D01*
Y301920D01*
D02*
G37*
G36*
X117991D02*
X114341D01*
Y298270D01*
X114387D01*
X115443Y298553D01*
X116389Y299099D01*
X117162Y299872D01*
X117708Y300818D01*
X117991Y301873D01*
Y301920D01*
D02*
G37*
G36*
X94387Y316569D02*
X93295D01*
X92239Y316286D01*
X91293Y315740D01*
X90520Y314968D01*
X89974Y314021D01*
X89691Y312966D01*
Y311873D01*
X89974Y310818D01*
X90520Y309872D01*
X91293Y309099D01*
X92239Y308553D01*
X93295Y308270D01*
X94387D01*
X95443Y308553D01*
X96031Y308893D01*
X97662Y307262D01*
Y306569D01*
X94341D01*
Y302420D01*
Y298270D01*
X97662D01*
Y288724D01*
X97778Y288138D01*
X98110Y287642D01*
X115671Y270081D01*
Y266047D01*
X115294Y265795D01*
X114920Y265236D01*
X114789Y264577D01*
Y258869D01*
X114920Y258209D01*
X115294Y257651D01*
X115852Y257277D01*
X116511Y257147D01*
X117889D01*
X118549Y257277D01*
X119107Y257651D01*
X119480Y258209D01*
X119612Y258869D01*
Y264577D01*
X119480Y265236D01*
X119107Y265795D01*
X118730Y266047D01*
Y270715D01*
X118613Y271300D01*
X118282Y271796D01*
X100721Y289357D01*
Y299157D01*
X101084Y299308D01*
X101293Y299099D01*
X102239Y298553D01*
X103295Y298270D01*
X103341D01*
Y302420D01*
Y306569D01*
X103295D01*
X102239Y306287D01*
X101293Y305740D01*
X101084Y305532D01*
X100721Y305682D01*
Y307895D01*
X100604Y308481D01*
X100273Y308977D01*
X97861Y311389D01*
X97991Y311873D01*
Y312966D01*
X97708Y314021D01*
X97162Y314968D01*
X96389Y315740D01*
X95443Y316286D01*
X94387Y316569D01*
D02*
G37*
G36*
X93341Y301920D02*
X89691D01*
Y298270D01*
X93341D01*
Y301920D01*
D02*
G37*
G36*
X56300Y301600D02*
X52800D01*
Y298100D01*
X52827D01*
X53844Y298373D01*
X54756Y298899D01*
X55501Y299644D01*
X56027Y300556D01*
X56300Y301573D01*
Y301600D01*
D02*
G37*
G36*
X51800D02*
X48300D01*
Y301573D01*
X48573Y300556D01*
X49099Y299644D01*
X49844Y298899D01*
X50756Y298373D01*
X51773Y298100D01*
X51800D01*
Y301600D01*
D02*
G37*
G36*
X42827Y306100D02*
X41773D01*
X40756Y305827D01*
X39844Y305301D01*
X39099Y304556D01*
X38573Y303644D01*
X38300Y302627D01*
Y301573D01*
X38573Y300556D01*
X39099Y299644D01*
X39844Y298899D01*
X40756Y298373D01*
X41773Y298100D01*
X42827D01*
X43844Y298373D01*
X44756Y298899D01*
X45501Y299644D01*
X46027Y300556D01*
X46300Y301573D01*
Y302627D01*
X46027Y303644D01*
X45501Y304556D01*
X44756Y305301D01*
X43844Y305827D01*
X42827Y306100D01*
D02*
G37*
G36*
X377787Y299106D02*
X374870D01*
Y294989D01*
X375966D01*
X376663Y295127D01*
X377254Y295522D01*
X377648Y296113D01*
X377787Y296810D01*
Y299106D01*
D02*
G37*
G36*
X373870D02*
X370953D01*
Y296810D01*
X371092Y296113D01*
X371487Y295522D01*
X372077Y295127D01*
X372774Y294989D01*
X373870D01*
Y299106D01*
D02*
G37*
G36*
X310858D02*
X307941D01*
Y294989D01*
X309037D01*
X309734Y295127D01*
X310325Y295522D01*
X310719Y296113D01*
X310858Y296810D01*
Y299106D01*
D02*
G37*
G36*
X306941D02*
X304024D01*
Y296810D01*
X304163Y296113D01*
X304557Y295522D01*
X305148Y295127D01*
X305845Y294989D01*
X306941D01*
Y299106D01*
D02*
G37*
G36*
X243929D02*
X241012D01*
Y294989D01*
X242108D01*
X242805Y295127D01*
X243395Y295522D01*
X243790Y296113D01*
X243929Y296810D01*
Y299106D01*
D02*
G37*
G36*
X240012D02*
X237095D01*
Y296810D01*
X237234Y296113D01*
X237628Y295522D01*
X238219Y295127D01*
X238916Y294989D01*
X240012D01*
Y299106D01*
D02*
G37*
G36*
X444362Y298713D02*
X441445D01*
Y294595D01*
X442541D01*
X443238Y294734D01*
X443828Y295128D01*
X444223Y295719D01*
X444362Y296416D01*
Y298713D01*
D02*
G37*
G36*
X440445D02*
X437528D01*
Y296416D01*
X437667Y295719D01*
X438061Y295128D01*
X438652Y294734D01*
X439349Y294595D01*
X440445D01*
Y298713D01*
D02*
G37*
G36*
X52827Y296100D02*
X52800D01*
Y292600D01*
X56300D01*
Y292627D01*
X56027Y293644D01*
X55501Y294556D01*
X54756Y295301D01*
X53844Y295827D01*
X52827Y296100D01*
D02*
G37*
G36*
X51800D02*
X51773D01*
X50756Y295827D01*
X49844Y295301D01*
X49099Y294556D01*
X48573Y293644D01*
X48300Y292627D01*
Y292600D01*
X51800D01*
Y296100D01*
D02*
G37*
G36*
X491385Y297598D02*
X490066D01*
X489550Y297495D01*
X489111Y297202D01*
X488819Y296764D01*
X488716Y296247D01*
Y294165D01*
X487873Y293323D01*
X487794D01*
X487065Y293021D01*
X486507Y292463D01*
X486205Y291733D01*
Y290944D01*
X486507Y290215D01*
X487065Y289656D01*
X487794Y289354D01*
X488584D01*
X489313Y289656D01*
X489871Y290215D01*
X490173Y290944D01*
Y291297D01*
X490879Y292002D01*
X491385D01*
X491902Y292105D01*
X492341Y292398D01*
X492633Y292836D01*
X492736Y293353D01*
Y296247D01*
X492633Y296764D01*
X492341Y297202D01*
X491902Y297495D01*
X491385Y297598D01*
D02*
G37*
G36*
X56300Y291600D02*
X52800D01*
Y288100D01*
X52827D01*
X53844Y288373D01*
X54756Y288899D01*
X55501Y289644D01*
X56027Y290556D01*
X56300Y291573D01*
Y291600D01*
D02*
G37*
G36*
X51800D02*
X48300D01*
Y291573D01*
X48573Y290556D01*
X49099Y289644D01*
X49844Y288899D01*
X50756Y288373D01*
X51773Y288100D01*
X51800D01*
Y291600D01*
D02*
G37*
G36*
X42827Y296100D02*
X41773D01*
X40756Y295827D01*
X39844Y295301D01*
X39099Y294556D01*
X38573Y293644D01*
X38300Y292627D01*
Y291573D01*
X38573Y290556D01*
X39099Y289644D01*
X39844Y288899D01*
X40756Y288373D01*
X41773Y288100D01*
X42827D01*
X43844Y288373D01*
X44756Y288899D01*
X45501Y289644D01*
X46027Y290556D01*
X46300Y291573D01*
Y292627D01*
X46027Y293644D01*
X45501Y294556D01*
X44756Y295301D01*
X43844Y295827D01*
X42827Y296100D01*
D02*
G37*
G36*
X491385Y287061D02*
X491226D01*
Y284763D01*
X492736D01*
Y285710D01*
X492633Y286227D01*
X492341Y286665D01*
X491902Y286958D01*
X491385Y287061D01*
D02*
G37*
G36*
X490226D02*
X490066D01*
X489550Y286958D01*
X489111Y286665D01*
X488819Y286227D01*
X488716Y285710D01*
Y284763D01*
X490226D01*
Y287061D01*
D02*
G37*
G36*
X492736Y283763D02*
X491226D01*
Y281465D01*
X491385D01*
X491902Y281568D01*
X492341Y281861D01*
X492633Y282299D01*
X492736Y282816D01*
Y283763D01*
D02*
G37*
G36*
X490226D02*
X488716D01*
Y282816D01*
X488819Y282299D01*
X489111Y281861D01*
X489550Y281568D01*
X490066Y281465D01*
X490226D01*
Y283763D01*
D02*
G37*
G36*
X491505Y280714D02*
X491069D01*
Y278453D01*
X492995D01*
Y279224D01*
X492881Y279794D01*
X492558Y280277D01*
X492075Y280600D01*
X491505Y280714D01*
D02*
G37*
G36*
X490068D02*
X489632D01*
X489062Y280600D01*
X488579Y280277D01*
X488256Y279794D01*
X488142Y279224D01*
Y278453D01*
X490068D01*
Y280714D01*
D02*
G37*
G36*
X42827Y286100D02*
X41773D01*
X40756Y285827D01*
X39844Y285301D01*
X39099Y284556D01*
X38573Y283644D01*
X38300Y282627D01*
Y281573D01*
X38573Y280556D01*
X39099Y279644D01*
X39844Y278899D01*
X40756Y278373D01*
X41773Y278100D01*
X42827D01*
X43844Y278373D01*
X44756Y278899D01*
X45501Y279644D01*
X46027Y280556D01*
X46300Y281573D01*
Y282627D01*
X46027Y283644D01*
X45501Y284556D01*
X44756Y285301D01*
X43844Y285827D01*
X42827Y286100D01*
D02*
G37*
G36*
X492995Y277453D02*
X491069D01*
Y275192D01*
X491505D01*
X492075Y275305D01*
X492558Y275628D01*
X492881Y276112D01*
X492995Y276682D01*
Y277453D01*
D02*
G37*
G36*
X490068D02*
X488142D01*
Y276682D01*
X488256Y276112D01*
X488579Y275628D01*
X489062Y275305D01*
X489632Y275192D01*
X490068D01*
Y277453D01*
D02*
G37*
G36*
X52827Y286100D02*
X51773D01*
X50756Y285827D01*
X49844Y285301D01*
X49099Y284556D01*
X48573Y283644D01*
X48300Y282627D01*
Y281573D01*
X48573Y280556D01*
X49099Y279644D01*
X49720Y279023D01*
X49557Y278629D01*
X49100D01*
X48515Y278513D01*
X48019Y278181D01*
X44947Y275110D01*
X44756Y275301D01*
X43844Y275827D01*
X42827Y276100D01*
X41773D01*
X40756Y275827D01*
X39844Y275301D01*
X39099Y274556D01*
X38573Y273644D01*
X38300Y272627D01*
Y271573D01*
X38573Y270556D01*
X39099Y269644D01*
X39844Y268899D01*
X40756Y268373D01*
X41773Y268100D01*
X42827D01*
X43844Y268373D01*
X44756Y268899D01*
X45501Y269644D01*
X46027Y270556D01*
X46300Y271573D01*
Y272191D01*
X46463Y272301D01*
X48543Y274380D01*
X48858Y274138D01*
X48573Y273644D01*
X48300Y272627D01*
Y272600D01*
X52300D01*
X56300D01*
Y272627D01*
X56027Y273644D01*
X55501Y274556D01*
X54880Y275177D01*
X55043Y275571D01*
X91347D01*
X103398Y263519D01*
X103894Y263188D01*
X104480Y263071D01*
X104946D01*
Y258869D01*
X105078Y258209D01*
X105451Y257651D01*
X106009Y257277D01*
X106668Y257147D01*
X108046D01*
X108705Y257277D01*
X109264Y257651D01*
X109637Y258209D01*
X109768Y258869D01*
Y264577D01*
X109637Y265236D01*
X109264Y265795D01*
X108705Y266168D01*
X108046Y266299D01*
X106668D01*
X106009Y266168D01*
X105953Y266130D01*
X105113D01*
X93062Y278181D01*
X92566Y278513D01*
X91980Y278629D01*
X55043D01*
X54880Y279023D01*
X55501Y279644D01*
X56027Y280556D01*
X56300Y281573D01*
Y282627D01*
X56027Y283644D01*
X55501Y284556D01*
X54756Y285301D01*
X53844Y285827D01*
X52827Y286100D01*
D02*
G37*
G36*
X571835Y279825D02*
X570565D01*
X569338Y279496D01*
X568237Y278861D01*
X567339Y277963D01*
X566704Y276862D01*
X566375Y275635D01*
Y274365D01*
X566704Y273138D01*
X567339Y272037D01*
X568237Y271139D01*
X569338Y270504D01*
X570565Y270175D01*
X571835D01*
X573062Y270504D01*
X574163Y271139D01*
X575061Y272037D01*
X575696Y273138D01*
X576025Y274365D01*
Y275635D01*
X575696Y276862D01*
X575061Y277963D01*
X574163Y278861D01*
X573062Y279496D01*
X571835Y279825D01*
D02*
G37*
G36*
X531835D02*
X530565D01*
X529338Y279496D01*
X528237Y278861D01*
X527339Y277963D01*
X526704Y276862D01*
X526375Y275635D01*
Y274365D01*
X526704Y273138D01*
X527339Y272037D01*
X528237Y271139D01*
X529338Y270504D01*
X530565Y270175D01*
X531835D01*
X533062Y270504D01*
X534163Y271139D01*
X535061Y272037D01*
X535696Y273138D01*
X536025Y274365D01*
Y275635D01*
X535696Y276862D01*
X535061Y277963D01*
X534163Y278861D01*
X533062Y279496D01*
X531835Y279825D01*
D02*
G37*
G36*
X56300Y271600D02*
X52800D01*
Y268100D01*
X52827D01*
X53844Y268373D01*
X54756Y268899D01*
X55501Y269644D01*
X56027Y270556D01*
X56300Y271573D01*
Y271600D01*
D02*
G37*
G36*
X51800D02*
X48300D01*
Y271573D01*
X48573Y270556D01*
X49099Y269644D01*
X49844Y268899D01*
X50756Y268373D01*
X51773Y268100D01*
X51800D01*
Y271600D01*
D02*
G37*
G36*
X52827Y266100D02*
X52800D01*
Y262600D01*
X56300D01*
Y262627D01*
X56027Y263644D01*
X55501Y264556D01*
X54756Y265301D01*
X53844Y265827D01*
X52827Y266100D01*
D02*
G37*
G36*
X51800D02*
X51773D01*
X50756Y265827D01*
X49844Y265301D01*
X49099Y264556D01*
X48573Y263644D01*
X48300Y262627D01*
Y262600D01*
X51800D01*
Y266100D01*
D02*
G37*
G36*
X56300Y251600D02*
X52800D01*
Y248100D01*
X52827D01*
X53844Y248373D01*
X54756Y248899D01*
X55501Y249644D01*
X56027Y250556D01*
X56300Y251573D01*
Y251600D01*
D02*
G37*
G36*
X51800D02*
X48300D01*
Y251573D01*
X48573Y250556D01*
X49099Y249644D01*
X49844Y248899D01*
X50756Y248373D01*
X51773Y248100D01*
X51800D01*
Y251600D01*
D02*
G37*
G36*
X42827Y256100D02*
X41773D01*
X40756Y255827D01*
X39844Y255301D01*
X39099Y254556D01*
X38573Y253644D01*
X38300Y252627D01*
Y251573D01*
X38573Y250556D01*
X39099Y249644D01*
X39844Y248899D01*
X40756Y248373D01*
X41773Y248100D01*
X42827D01*
X43844Y248373D01*
X44756Y248899D01*
X45501Y249644D01*
X46027Y250556D01*
X46300Y251573D01*
Y252627D01*
X46027Y253644D01*
X45501Y254556D01*
X44756Y255301D01*
X43844Y255827D01*
X42827Y256100D01*
D02*
G37*
G36*
X546913Y262644D02*
X545408D01*
X543931Y262350D01*
X542540Y261774D01*
X541288Y260937D01*
X540223Y259873D01*
X539387Y258621D01*
X538811Y257230D01*
X538517Y255753D01*
Y254247D01*
X538811Y252770D01*
X539387Y251379D01*
X540223Y250127D01*
X541288Y249063D01*
X542540Y248226D01*
X543931Y247650D01*
X545408Y247356D01*
X546913D01*
X548390Y247650D01*
X549781Y248226D01*
X551033Y249063D01*
X552098Y250127D01*
X552934Y251379D01*
X553511Y252770D01*
X553804Y254247D01*
Y255753D01*
X553511Y257230D01*
X552934Y258621D01*
X552098Y259873D01*
X551033Y260937D01*
X549781Y261774D01*
X548390Y262350D01*
X546913Y262644D01*
D02*
G37*
G36*
X52827Y246100D02*
X52800D01*
Y242600D01*
X56300D01*
Y242627D01*
X56027Y243644D01*
X55501Y244556D01*
X54756Y245301D01*
X53844Y245827D01*
X52827Y246100D01*
D02*
G37*
G36*
X51800D02*
X51773D01*
X50756Y245827D01*
X49844Y245301D01*
X49099Y244556D01*
X48573Y243644D01*
X48300Y242627D01*
Y242600D01*
X51800D01*
Y246100D01*
D02*
G37*
G36*
X56300Y241600D02*
X52800D01*
Y238100D01*
X52827D01*
X53844Y238373D01*
X54756Y238899D01*
X55501Y239644D01*
X56027Y240556D01*
X56300Y241573D01*
Y241600D01*
D02*
G37*
G36*
X51800D02*
X48300D01*
Y241573D01*
X48573Y240556D01*
X49099Y239644D01*
X49844Y238899D01*
X50756Y238373D01*
X51773Y238100D01*
X51800D01*
Y241600D01*
D02*
G37*
G36*
X42827Y246100D02*
X41773D01*
X40756Y245827D01*
X39844Y245301D01*
X39099Y244556D01*
X38573Y243644D01*
X38300Y242627D01*
Y241573D01*
X38573Y240556D01*
X39099Y239644D01*
X39844Y238899D01*
X40756Y238373D01*
X41773Y238100D01*
X42827D01*
X43844Y238373D01*
X44756Y238899D01*
X45501Y239644D01*
X46027Y240556D01*
X46300Y241573D01*
Y242627D01*
X46027Y243644D01*
X45501Y244556D01*
X44756Y245301D01*
X43844Y245827D01*
X42827Y246100D01*
D02*
G37*
G36*
Y266100D02*
X41773D01*
X40756Y265827D01*
X39844Y265301D01*
X39099Y264556D01*
X38573Y263644D01*
X38300Y262627D01*
Y261573D01*
X38573Y260556D01*
X39099Y259644D01*
X39844Y258899D01*
X40756Y258373D01*
X41773Y258100D01*
X42827D01*
X43495Y258279D01*
X45375Y256399D01*
X45871Y256067D01*
X46457Y255951D01*
X50183D01*
X50288Y255557D01*
X49844Y255301D01*
X49099Y254556D01*
X48573Y253644D01*
X48300Y252627D01*
Y252600D01*
X52300D01*
X56300D01*
Y252627D01*
X56027Y253644D01*
X55501Y254556D01*
X54756Y255301D01*
X54312Y255557D01*
X54417Y255951D01*
X67418D01*
X84390Y238980D01*
X84886Y238648D01*
X85471Y238532D01*
X104946D01*
Y234852D01*
X105078Y234193D01*
X105451Y233635D01*
X106009Y233261D01*
X106668Y233130D01*
X108046D01*
X108705Y233261D01*
X109264Y233635D01*
X109637Y234193D01*
X109768Y234852D01*
Y240561D01*
X109637Y241220D01*
X109264Y241779D01*
X108705Y242152D01*
X108046Y242283D01*
X106668D01*
X106009Y242152D01*
X105451Y241779D01*
X105325Y241590D01*
X86105D01*
X69133Y258562D01*
X68637Y258893D01*
X68052Y259010D01*
X55381D01*
X55230Y259373D01*
X55501Y259644D01*
X56027Y260556D01*
X56300Y261573D01*
Y261600D01*
X52300D01*
X48300D01*
Y261573D01*
X48573Y260556D01*
X49099Y259644D01*
X49370Y259373D01*
X49219Y259010D01*
X47090D01*
X45850Y260249D01*
X46027Y260556D01*
X46300Y261573D01*
Y262627D01*
X46027Y263644D01*
X45501Y264556D01*
X44756Y265301D01*
X43844Y265827D01*
X42827Y266100D01*
D02*
G37*
G36*
X52827Y236100D02*
X52800D01*
Y232600D01*
X56300D01*
Y232627D01*
X56027Y233644D01*
X55501Y234556D01*
X54756Y235301D01*
X53844Y235827D01*
X52827Y236100D01*
D02*
G37*
G36*
X51800D02*
X51773D01*
X50756Y235827D01*
X49844Y235301D01*
X49099Y234556D01*
X48573Y233644D01*
X48300Y232627D01*
Y232600D01*
X51800D01*
Y236100D01*
D02*
G37*
G36*
X571835Y239825D02*
X570565D01*
X569338Y239496D01*
X568237Y238861D01*
X567339Y237963D01*
X566704Y236862D01*
X566375Y235635D01*
Y234365D01*
X566704Y233138D01*
X567339Y232037D01*
X568237Y231139D01*
X569338Y230504D01*
X570565Y230175D01*
X571835D01*
X573062Y230504D01*
X574163Y231139D01*
X575061Y232037D01*
X575696Y233138D01*
X576025Y234365D01*
Y235635D01*
X575696Y236862D01*
X575061Y237963D01*
X574163Y238861D01*
X573062Y239496D01*
X571835Y239825D01*
D02*
G37*
G36*
X531835D02*
X530565D01*
X529338Y239496D01*
X528237Y238861D01*
X527339Y237963D01*
X526704Y236862D01*
X526375Y235635D01*
Y234365D01*
X526704Y233138D01*
X527339Y232037D01*
X528237Y231139D01*
X529338Y230504D01*
X530565Y230175D01*
X531835D01*
X533062Y230504D01*
X534163Y231139D01*
X535061Y232037D01*
X535696Y233138D01*
X536025Y234365D01*
Y235635D01*
X535696Y236862D01*
X535061Y237963D01*
X534163Y238861D01*
X533062Y239496D01*
X531835Y239825D01*
D02*
G37*
G36*
X42827Y236100D02*
X41773D01*
X40756Y235827D01*
X39844Y235301D01*
X39099Y234556D01*
X38573Y233644D01*
X38300Y232627D01*
Y231573D01*
X38573Y230556D01*
X39099Y229644D01*
X39844Y228899D01*
X40756Y228373D01*
X41773Y228100D01*
X42827D01*
X43844Y228373D01*
X44756Y228899D01*
X45501Y229644D01*
X46027Y230556D01*
X46300Y231573D01*
Y232627D01*
X46027Y233644D01*
X45501Y234556D01*
X44756Y235301D01*
X43844Y235827D01*
X42827Y236100D01*
D02*
G37*
G36*
X56300Y231600D02*
X52300D01*
X48300D01*
Y231573D01*
X48573Y230556D01*
X49099Y229644D01*
X49820Y228923D01*
X49806Y228757D01*
X49745Y228529D01*
X49100D01*
X48515Y228413D01*
X48019Y228081D01*
X44997Y225060D01*
X44756Y225301D01*
X43844Y225827D01*
X42827Y226100D01*
X41773D01*
X40756Y225827D01*
X39844Y225301D01*
X39099Y224556D01*
X38573Y223644D01*
X38300Y222627D01*
Y221573D01*
X38573Y220556D01*
X39099Y219644D01*
X39844Y218899D01*
X40756Y218373D01*
X41773Y218100D01*
X42827D01*
X43844Y218373D01*
X44756Y218899D01*
X45501Y219644D01*
X46027Y220556D01*
X46300Y221573D01*
Y222037D01*
X48406Y224144D01*
X48722Y223902D01*
X48573Y223644D01*
X48300Y222627D01*
Y222600D01*
X52300D01*
X56300D01*
Y222627D01*
X56027Y223644D01*
X55501Y224556D01*
X54980Y225077D01*
X55143Y225471D01*
X103312D01*
X104946Y223836D01*
Y218568D01*
X105078Y217910D01*
X105451Y217351D01*
X106009Y216978D01*
X106668Y216846D01*
X108046D01*
X108705Y216978D01*
X109264Y217351D01*
X109637Y217910D01*
X109768Y218568D01*
Y224277D01*
X109637Y224936D01*
X109264Y225495D01*
X108705Y225868D01*
X108046Y225999D01*
X107109D01*
X105027Y228081D01*
X104531Y228413D01*
X103946Y228529D01*
X54855D01*
X54794Y228757D01*
X54780Y228923D01*
X55501Y229644D01*
X56027Y230556D01*
X56300Y231573D01*
Y231600D01*
D02*
G37*
G36*
Y221600D02*
X52800D01*
Y218100D01*
X52827D01*
X53844Y218373D01*
X54756Y218899D01*
X55501Y219644D01*
X56027Y220556D01*
X56300Y221573D01*
Y221600D01*
D02*
G37*
G36*
X51800D02*
X48300D01*
Y221573D01*
X48573Y220556D01*
X49099Y219644D01*
X49844Y218899D01*
X50756Y218373D01*
X51773Y218100D01*
X51800D01*
Y221600D01*
D02*
G37*
G36*
X117782Y230819D02*
X116993D01*
X116264Y230517D01*
X115706Y229959D01*
X115404Y229230D01*
Y228440D01*
X115706Y227711D01*
X115765Y227652D01*
Y225810D01*
X115294Y225495D01*
X114920Y224936D01*
X114789Y224277D01*
Y218568D01*
X114920Y217910D01*
X115294Y217351D01*
X115852Y216978D01*
X116511Y216846D01*
X117889D01*
X118549Y216978D01*
X119107Y217351D01*
X119480Y217910D01*
X119612Y218568D01*
Y224277D01*
X119480Y224936D01*
X119107Y225495D01*
X118824Y225684D01*
Y227465D01*
X119070Y227711D01*
X119372Y228440D01*
Y229230D01*
X119070Y229959D01*
X118512Y230517D01*
X117782Y230819D01*
D02*
G37*
G36*
X571835Y223475D02*
X570565D01*
X569338Y223146D01*
X568237Y222511D01*
X567339Y221613D01*
X566704Y220512D01*
X566375Y219285D01*
Y218015D01*
X566704Y216788D01*
X567339Y215687D01*
X568237Y214789D01*
X569338Y214154D01*
X570565Y213825D01*
X571835D01*
X573062Y214154D01*
X574163Y214789D01*
X575061Y215687D01*
X575696Y216788D01*
X576025Y218015D01*
Y219285D01*
X575696Y220512D01*
X575061Y221613D01*
X574163Y222511D01*
X573062Y223146D01*
X571835Y223475D01*
D02*
G37*
G36*
X531835D02*
X530565D01*
X529338Y223146D01*
X528237Y222511D01*
X527339Y221613D01*
X526704Y220512D01*
X526375Y219285D01*
Y218015D01*
X526704Y216788D01*
X527339Y215687D01*
X528237Y214789D01*
X529338Y214154D01*
X530565Y213825D01*
X531835D01*
X533062Y214154D01*
X534163Y214789D01*
X535061Y215687D01*
X535696Y216788D01*
X536025Y218015D01*
Y219285D01*
X535696Y220512D01*
X535061Y221613D01*
X534163Y222511D01*
X533062Y223146D01*
X531835Y223475D01*
D02*
G37*
G36*
X52827Y216100D02*
X52800D01*
Y212600D01*
X56300D01*
Y212627D01*
X56027Y213644D01*
X55501Y214556D01*
X54756Y215301D01*
X53844Y215827D01*
X52827Y216100D01*
D02*
G37*
G36*
X51800D02*
X51773D01*
X50756Y215827D01*
X49844Y215301D01*
X49099Y214556D01*
X48573Y213644D01*
X48300Y212627D01*
Y212600D01*
X51800D01*
Y216100D01*
D02*
G37*
G36*
X127731Y201983D02*
X126354D01*
X125695Y201852D01*
X125136Y201479D01*
X124762Y200920D01*
X124631Y200261D01*
Y194552D01*
X124762Y193893D01*
X125136Y193335D01*
X125695Y192961D01*
X126354Y192830D01*
X127731D01*
X128391Y192961D01*
X128949Y193335D01*
X129322Y193893D01*
X129454Y194552D01*
Y200261D01*
X129322Y200920D01*
X128949Y201479D01*
X128391Y201852D01*
X127731Y201983D01*
D02*
G37*
G36*
X117889D02*
X116511D01*
X115852Y201852D01*
X115294Y201479D01*
X114920Y200920D01*
X114789Y200261D01*
Y194552D01*
X114920Y193893D01*
X115294Y193335D01*
X115852Y192961D01*
X116511Y192830D01*
X117889D01*
X118549Y192961D01*
X119107Y193335D01*
X119480Y193893D01*
X119612Y194552D01*
Y200261D01*
X119480Y200920D01*
X119107Y201479D01*
X118549Y201852D01*
X117889Y201983D01*
D02*
G37*
G36*
X108046D02*
X106668D01*
X106009Y201852D01*
X105451Y201479D01*
X105078Y200920D01*
X104946Y200261D01*
Y194552D01*
X105078Y193893D01*
X105451Y193335D01*
X106009Y192961D01*
X106668Y192830D01*
X108046D01*
X108705Y192961D01*
X109264Y193335D01*
X109637Y193893D01*
X109768Y194552D01*
Y200261D01*
X109637Y200920D01*
X109264Y201479D01*
X108705Y201852D01*
X108046Y201983D01*
D02*
G37*
G36*
X134494Y388559D02*
X133401D01*
X132346Y388276D01*
X131399Y387730D01*
X130627Y386957D01*
X130080Y386011D01*
X129798Y384956D01*
Y383863D01*
X130080Y382808D01*
X130627Y381861D01*
X131399Y381089D01*
X131924Y380786D01*
Y378033D01*
X131399Y377730D01*
X130627Y376957D01*
X130080Y376011D01*
X129798Y374956D01*
Y373863D01*
X130080Y372808D01*
X130627Y371862D01*
X131399Y371089D01*
X132105Y370681D01*
Y366094D01*
X132158Y365827D01*
Y353937D01*
Y342361D01*
X131750Y342088D01*
X131427Y341605D01*
X131314Y341035D01*
Y338493D01*
X131427Y337923D01*
X131750Y337439D01*
X131966Y337295D01*
X131847Y336901D01*
X131278D01*
X130581Y336762D01*
X129990Y336368D01*
X129596Y335777D01*
X129457Y335080D01*
Y329487D01*
X129596Y328790D01*
X129990Y328199D01*
X130581Y327804D01*
X131278Y327666D01*
X132158D01*
Y320347D01*
X132211Y320080D01*
Y316270D01*
X131293Y315740D01*
X130520Y314968D01*
X129974Y314021D01*
X129691Y312966D01*
Y311873D01*
X129974Y310818D01*
X130520Y309872D01*
X131293Y309099D01*
X132211Y308569D01*
Y306271D01*
X131293Y305740D01*
X130520Y304968D01*
X129974Y304021D01*
X129691Y302966D01*
Y301873D01*
X129974Y300818D01*
X130520Y299872D01*
X131293Y299099D01*
X132239Y298553D01*
X133295Y298270D01*
X134387D01*
X134973Y298427D01*
X161208Y272192D01*
X161864Y271753D01*
X162639Y271599D01*
X451130D01*
X484105Y238624D01*
Y198414D01*
Y131609D01*
X483947Y131228D01*
Y130360D01*
X484105Y129978D01*
Y107194D01*
X484259Y106420D01*
X484698Y105763D01*
X492192Y98269D01*
X492848Y97831D01*
X493622Y97677D01*
X539976D01*
Y97225D01*
X545125D01*
Y102375D01*
X539976D01*
Y101723D01*
X494460D01*
X488152Y108032D01*
Y129978D01*
X488309Y130360D01*
Y131228D01*
X488152Y131609D01*
Y196977D01*
X538700D01*
X538811Y196420D01*
X539387Y195029D01*
X540223Y193777D01*
X541288Y192713D01*
X542540Y191876D01*
X543931Y191300D01*
X545408Y191006D01*
X546913D01*
X548390Y191300D01*
X549781Y191876D01*
X551033Y192713D01*
X552098Y193777D01*
X552934Y195029D01*
X553511Y196420D01*
X553804Y197897D01*
Y199403D01*
X553511Y200880D01*
X552934Y202271D01*
X552098Y203523D01*
X551033Y204587D01*
X549781Y205424D01*
X548390Y206000D01*
X546913Y206294D01*
X545408D01*
X543931Y206000D01*
X542540Y205424D01*
X541288Y204587D01*
X540223Y203523D01*
X539387Y202271D01*
X538870Y201023D01*
X488152D01*
Y239462D01*
X487997Y240236D01*
X487559Y240893D01*
X454385Y274066D01*
Y294680D01*
X454655Y294734D01*
X455246Y295128D01*
X455641Y295719D01*
X455779Y296416D01*
Y302009D01*
X455641Y302706D01*
X455246Y303297D01*
X454655Y303692D01*
X454385Y303745D01*
Y305748D01*
X454231Y306522D01*
X453793Y307179D01*
X452111Y308860D01*
Y309933D01*
X451998Y310503D01*
X451708Y310936D01*
Y323783D01*
X452192D01*
X453232Y324062D01*
X454165Y324601D01*
X454927Y325362D01*
X455465Y326295D01*
X455744Y327336D01*
Y328413D01*
X455465Y329453D01*
X454927Y330386D01*
X454165Y331147D01*
X453677Y331429D01*
Y357392D01*
X454625Y357939D01*
X455525Y358840D01*
X456162Y359943D01*
X456492Y361174D01*
Y362448D01*
X456162Y363679D01*
X455525Y364782D01*
X454625Y365683D01*
X453521Y366320D01*
X452291Y366650D01*
X451017D01*
X449786Y366320D01*
X448683Y365683D01*
X447782Y364782D01*
X447145Y363679D01*
X446857Y362606D01*
X446450D01*
X446162Y363679D01*
X445525Y364782D01*
X444625Y365683D01*
X443521Y366320D01*
X442291Y366650D01*
X442154D01*
Y361811D01*
Y356972D01*
X442291D01*
X443521Y357302D01*
X444625Y357939D01*
X445525Y358840D01*
X446162Y359943D01*
X446450Y361016D01*
X446857D01*
X447145Y359943D01*
X447782Y358840D01*
X448683Y357939D01*
X449630Y357392D01*
Y331429D01*
X449142Y331147D01*
X448380Y330386D01*
X447842Y329453D01*
X447563Y328413D01*
Y327336D01*
X447842Y326295D01*
X448064Y325911D01*
X447816Y325540D01*
X447662Y324766D01*
Y310936D01*
X447372Y310503D01*
X447259Y309933D01*
Y307390D01*
X447372Y306820D01*
X447695Y306337D01*
X448178Y306014D01*
X448749Y305901D01*
X449348D01*
X450339Y304910D01*
Y303745D01*
X450070Y303692D01*
X449479Y303297D01*
X449084Y302706D01*
X448945Y302009D01*
Y296416D01*
X449084Y295719D01*
X449479Y295128D01*
X450070Y294734D01*
X450339Y294680D01*
Y275645D01*
X412610D01*
X389816Y298438D01*
X389204Y298847D01*
Y302403D01*
X389066Y303100D01*
X388671Y303691D01*
X388080Y304085D01*
X387810Y304139D01*
Y306142D01*
X387656Y306916D01*
X387218Y307572D01*
X385537Y309254D01*
Y310326D01*
X385423Y310896D01*
X385133Y311330D01*
Y324177D01*
X385617D01*
X386658Y324456D01*
X387590Y324994D01*
X388352Y325756D01*
X388891Y326689D01*
X389169Y327729D01*
Y328806D01*
X388891Y329847D01*
X388352Y330779D01*
X387590Y331541D01*
X387102Y331823D01*
Y357786D01*
X388050Y358333D01*
X388951Y359234D01*
X389588Y360337D01*
X389917Y361568D01*
Y362842D01*
X389588Y364072D01*
X388951Y365176D01*
X388050Y366076D01*
X386946Y366714D01*
X385716Y367043D01*
X384442D01*
X383211Y366714D01*
X382108Y366076D01*
X381207Y365176D01*
X380570Y364072D01*
X380282Y363000D01*
X379875D01*
X379588Y364072D01*
X378951Y365176D01*
X378050Y366076D01*
X376946Y366714D01*
X375716Y367043D01*
X375579D01*
Y362205D01*
Y357366D01*
X375716D01*
X376946Y357696D01*
X378050Y358333D01*
X378951Y359234D01*
X379588Y360337D01*
X379875Y361410D01*
X380282D01*
X380570Y360337D01*
X381207Y359234D01*
X382108Y358333D01*
X383056Y357786D01*
Y331823D01*
X382567Y331541D01*
X381805Y330779D01*
X381267Y329847D01*
X380988Y328806D01*
Y327729D01*
X381267Y326689D01*
X381489Y326304D01*
X381241Y325934D01*
X381087Y325159D01*
Y311330D01*
X380797Y310896D01*
X380684Y310326D01*
Y307784D01*
X380797Y307214D01*
X381120Y306731D01*
X381604Y306408D01*
X382174Y306294D01*
X382774D01*
X383764Y305304D01*
Y304139D01*
X383495Y304085D01*
X382904Y303691D01*
X382509Y303100D01*
X382370Y302403D01*
Y296810D01*
X382509Y296113D01*
X382904Y295522D01*
X383495Y295127D01*
X384191Y294989D01*
X387165D01*
X387185Y294985D01*
X387548D01*
X406524Y276009D01*
X406373Y275645D01*
X345680D01*
X322887Y298438D01*
X322275Y298847D01*
Y302403D01*
X322136Y303100D01*
X321742Y303691D01*
X321151Y304085D01*
X320881Y304139D01*
Y306142D01*
X320727Y306916D01*
X320289Y307572D01*
X318607Y309254D01*
Y310326D01*
X318494Y310896D01*
X318204Y311330D01*
Y324177D01*
X318688D01*
X319728Y324456D01*
X320661Y324994D01*
X321423Y325756D01*
X321961Y326689D01*
X322240Y327729D01*
Y328806D01*
X321961Y329847D01*
X321423Y330779D01*
X320661Y331541D01*
X320173Y331823D01*
Y357786D01*
X321121Y358333D01*
X322021Y359234D01*
X322658Y360337D01*
X322988Y361568D01*
Y362842D01*
X322658Y364072D01*
X322021Y365176D01*
X321121Y366076D01*
X320017Y366714D01*
X318787Y367043D01*
X317513D01*
X316282Y366714D01*
X315179Y366076D01*
X314278Y365176D01*
X313641Y364072D01*
X313353Y363000D01*
X312946D01*
X312658Y364072D01*
X312021Y365176D01*
X311121Y366076D01*
X310017Y366714D01*
X308787Y367043D01*
X308650D01*
Y362205D01*
Y357366D01*
X308787D01*
X310017Y357696D01*
X311121Y358333D01*
X312021Y359234D01*
X312658Y360337D01*
X312946Y361410D01*
X313353D01*
X313641Y360337D01*
X314278Y359234D01*
X315179Y358333D01*
X316126Y357786D01*
Y331823D01*
X315638Y331541D01*
X314876Y330779D01*
X314338Y329847D01*
X314059Y328806D01*
Y327729D01*
X314338Y326689D01*
X314560Y326304D01*
X314312Y325934D01*
X314158Y325159D01*
Y311330D01*
X313868Y310896D01*
X313755Y310326D01*
Y307784D01*
X313868Y307214D01*
X314191Y306731D01*
X314674Y306408D01*
X315245Y306294D01*
X315845D01*
X316835Y305304D01*
Y304139D01*
X316565Y304085D01*
X315975Y303691D01*
X315580Y303100D01*
X315441Y302403D01*
Y296810D01*
X315580Y296113D01*
X315975Y295522D01*
X316565Y295127D01*
X317262Y294989D01*
X320236D01*
X320256Y294985D01*
X320619D01*
X339595Y276009D01*
X339444Y275645D01*
X278751D01*
X255958Y298438D01*
X255346Y298847D01*
Y302403D01*
X255207Y303100D01*
X254813Y303691D01*
X254222Y304085D01*
X253952Y304139D01*
Y306142D01*
X253798Y306916D01*
X253360Y307572D01*
X251678Y309254D01*
Y310326D01*
X251565Y310896D01*
X251275Y311330D01*
Y324177D01*
X251759D01*
X252799Y324456D01*
X253732Y324994D01*
X254494Y325756D01*
X255032Y326689D01*
X255311Y327729D01*
Y328806D01*
X255032Y329847D01*
X254494Y330779D01*
X253732Y331541D01*
X253244Y331823D01*
Y357786D01*
X254191Y358333D01*
X255092Y359234D01*
X255729Y360337D01*
X256059Y361568D01*
Y362842D01*
X255729Y364072D01*
X255092Y365176D01*
X254191Y366076D01*
X253088Y366714D01*
X251857Y367043D01*
X250584D01*
X249353Y366714D01*
X248250Y366076D01*
X247349Y365176D01*
X246712Y364072D01*
X246424Y363000D01*
X246017D01*
X245729Y364072D01*
X245092Y365176D01*
X244191Y366076D01*
X243088Y366714D01*
X241858Y367043D01*
X241721D01*
Y362205D01*
Y357366D01*
X241858D01*
X243088Y357696D01*
X244191Y358333D01*
X245092Y359234D01*
X245729Y360337D01*
X246017Y361410D01*
X246424D01*
X246712Y360337D01*
X247349Y359234D01*
X248250Y358333D01*
X249197Y357786D01*
Y331823D01*
X248709Y331541D01*
X247947Y330779D01*
X247409Y329847D01*
X247130Y328806D01*
Y327729D01*
X247409Y326689D01*
X247631Y326304D01*
X247383Y325934D01*
X247229Y325159D01*
Y311330D01*
X246939Y310896D01*
X246826Y310326D01*
Y307784D01*
X246939Y307214D01*
X247262Y306731D01*
X247745Y306408D01*
X248316Y306294D01*
X248915D01*
X249906Y305304D01*
Y304139D01*
X249636Y304085D01*
X249046Y303691D01*
X248651Y303100D01*
X248512Y302403D01*
Y296810D01*
X248651Y296113D01*
X249046Y295522D01*
X249636Y295127D01*
X250333Y294989D01*
X253307D01*
X253327Y294985D01*
X253690D01*
X272665Y276009D01*
X272515Y275645D01*
X163477D01*
X137834Y301288D01*
X137991Y301873D01*
Y302966D01*
X137708Y304021D01*
X137162Y304968D01*
X136389Y305740D01*
X136258Y305816D01*
Y309023D01*
X136389Y309099D01*
X137162Y309872D01*
X137708Y310818D01*
X137991Y311873D01*
Y312966D01*
X137708Y314021D01*
X137162Y314968D01*
X136389Y315740D01*
X136258Y315816D01*
Y320294D01*
X136205Y320561D01*
Y329053D01*
X136291Y329487D01*
Y335080D01*
X136205Y335514D01*
Y339764D01*
Y353937D01*
Y366040D01*
X136152Y366308D01*
Y370890D01*
X136495Y371089D01*
X137268Y371862D01*
X137814Y372808D01*
X138097Y373863D01*
Y374956D01*
X137814Y376011D01*
X137268Y376957D01*
X136495Y377730D01*
X135970Y378033D01*
Y380786D01*
X136495Y381089D01*
X137268Y381861D01*
X137814Y382808D01*
X138097Y383863D01*
Y384956D01*
X137814Y386011D01*
X137268Y386957D01*
X136495Y387730D01*
X135549Y388276D01*
X134494Y388559D01*
D02*
G37*
G36*
X56300Y191600D02*
X52800D01*
Y188100D01*
X52827D01*
X53844Y188373D01*
X54756Y188899D01*
X55501Y189644D01*
X56027Y190556D01*
X56300Y191573D01*
Y191600D01*
D02*
G37*
G36*
X51800D02*
X48300D01*
Y191573D01*
X48573Y190556D01*
X49099Y189644D01*
X49844Y188899D01*
X50756Y188373D01*
X51773Y188100D01*
X51800D01*
Y191600D01*
D02*
G37*
G36*
X42827Y196100D02*
X41773D01*
X40756Y195827D01*
X39844Y195301D01*
X39099Y194556D01*
X38573Y193644D01*
X38300Y192627D01*
Y191573D01*
X38573Y190556D01*
X39099Y189644D01*
X39844Y188899D01*
X40756Y188373D01*
X41773Y188100D01*
X42827D01*
X43844Y188373D01*
X44756Y188899D01*
X45501Y189644D01*
X46027Y190556D01*
X46300Y191573D01*
Y192627D01*
X46027Y193644D01*
X45501Y194556D01*
X44756Y195301D01*
X43844Y195827D01*
X42827Y196100D01*
D02*
G37*
G36*
X117482Y191119D02*
X116693D01*
X115964Y190817D01*
X115406Y190259D01*
X115104Y189530D01*
Y188740D01*
X115406Y188011D01*
X115615Y187802D01*
Y185509D01*
X115294Y185295D01*
X114920Y184736D01*
X114789Y184077D01*
Y178368D01*
X114920Y177709D01*
X115294Y177151D01*
X115852Y176778D01*
X116511Y176646D01*
X117889D01*
X118549Y176778D01*
X119107Y177151D01*
X119480Y177709D01*
X119612Y178368D01*
Y184077D01*
X119480Y184736D01*
X119107Y185295D01*
X118674Y185585D01*
Y187915D01*
X118770Y188011D01*
X119072Y188740D01*
Y189530D01*
X118770Y190259D01*
X118212Y190817D01*
X117482Y191119D01*
D02*
G37*
G36*
X42827Y216100D02*
X41773D01*
X40756Y215827D01*
X39844Y215301D01*
X39099Y214556D01*
X38573Y213644D01*
X38300Y212627D01*
Y211573D01*
X38573Y210556D01*
X39099Y209644D01*
X39844Y208899D01*
X40756Y208373D01*
X41773Y208100D01*
X42827D01*
X43844Y208373D01*
X44756Y208899D01*
X45097Y209240D01*
X47930Y206407D01*
X48426Y206076D01*
X49011Y205960D01*
X50197D01*
X50303Y205566D01*
X49844Y205301D01*
X49099Y204556D01*
X48573Y203644D01*
X48300Y202627D01*
Y202600D01*
X52300D01*
X56300D01*
Y202627D01*
X56027Y203644D01*
X55501Y204556D01*
X54756Y205301D01*
X54297Y205566D01*
X54403Y205960D01*
X82623D01*
X104946Y183636D01*
Y178368D01*
X105078Y177709D01*
X105451Y177151D01*
X106009Y176778D01*
X106668Y176646D01*
X108046D01*
X108705Y176778D01*
X109264Y177151D01*
X109637Y177709D01*
X109768Y178368D01*
Y184077D01*
X109637Y184736D01*
X109264Y185295D01*
X108705Y185668D01*
X108046Y185799D01*
X107109D01*
X84338Y208570D01*
X83842Y208902D01*
X83257Y209018D01*
X55389D01*
X55239Y209382D01*
X55501Y209644D01*
X56027Y210556D01*
X56300Y211573D01*
Y211600D01*
X52300D01*
X48300D01*
Y211573D01*
X48539Y210680D01*
X48186Y210477D01*
X46438Y212225D01*
X46300Y212317D01*
Y212627D01*
X46027Y213644D01*
X45501Y214556D01*
X44756Y215301D01*
X43844Y215827D01*
X42827Y216100D01*
D02*
G37*
G36*
X571835Y183475D02*
X570565D01*
X569338Y183146D01*
X568237Y182511D01*
X567339Y181613D01*
X566704Y180512D01*
X566375Y179285D01*
Y178015D01*
X566704Y176788D01*
X567339Y175687D01*
X568237Y174789D01*
X569338Y174154D01*
X570565Y173825D01*
X571835D01*
X573062Y174154D01*
X574163Y174789D01*
X575061Y175687D01*
X575696Y176788D01*
X576025Y178015D01*
Y179285D01*
X575696Y180512D01*
X575061Y181613D01*
X574163Y182511D01*
X573062Y183146D01*
X571835Y183475D01*
D02*
G37*
G36*
X531835D02*
X530565D01*
X529338Y183146D01*
X528237Y182511D01*
X527339Y181613D01*
X526704Y180512D01*
X526375Y179285D01*
Y178015D01*
X526704Y176788D01*
X527339Y175687D01*
X528237Y174789D01*
X529338Y174154D01*
X530565Y173825D01*
X531835D01*
X533062Y174154D01*
X534163Y174789D01*
X535061Y175687D01*
X535696Y176788D01*
X536025Y178015D01*
Y179285D01*
X535696Y180512D01*
X535061Y181613D01*
X534163Y182511D01*
X533062Y183146D01*
X531835Y183475D01*
D02*
G37*
G36*
X571835Y167825D02*
X570565D01*
X569338Y167496D01*
X568237Y166861D01*
X567339Y165963D01*
X566704Y164862D01*
X566375Y163635D01*
Y162365D01*
X566704Y161138D01*
X567339Y160037D01*
X568237Y159139D01*
X569338Y158504D01*
X570565Y158175D01*
X571835D01*
X573062Y158504D01*
X574163Y159139D01*
X575061Y160037D01*
X575696Y161138D01*
X576025Y162365D01*
Y163635D01*
X575696Y164862D01*
X575061Y165963D01*
X574163Y166861D01*
X573062Y167496D01*
X571835Y167825D01*
D02*
G37*
G36*
X531835D02*
X530565D01*
X529338Y167496D01*
X528237Y166861D01*
X527339Y165963D01*
X526704Y164862D01*
X526375Y163635D01*
Y162365D01*
X526704Y161138D01*
X527339Y160037D01*
X528237Y159139D01*
X529338Y158504D01*
X530565Y158175D01*
X531835D01*
X533062Y158504D01*
X534163Y159139D01*
X535061Y160037D01*
X535696Y161138D01*
X536025Y162365D01*
Y163635D01*
X535696Y164862D01*
X535061Y165963D01*
X534163Y166861D01*
X533062Y167496D01*
X531835Y167825D01*
D02*
G37*
G36*
X117482Y168019D02*
X116693D01*
X115964Y167717D01*
X115406Y167159D01*
X115104Y166430D01*
Y165640D01*
X115406Y164911D01*
X115615Y164702D01*
Y161493D01*
X115294Y161279D01*
X114920Y160720D01*
X114789Y160061D01*
Y154352D01*
X114920Y153693D01*
X115294Y153135D01*
X115852Y152761D01*
X116511Y152630D01*
X117889D01*
X118549Y152761D01*
X119107Y153135D01*
X119480Y153693D01*
X119612Y154352D01*
Y160061D01*
X119480Y160720D01*
X119107Y161279D01*
X118674Y161568D01*
Y164815D01*
X118770Y164911D01*
X119072Y165640D01*
Y166430D01*
X118770Y167159D01*
X118212Y167717D01*
X117482Y168019D01*
D02*
G37*
G36*
X42827Y206100D02*
X41773D01*
X40756Y205827D01*
X39844Y205301D01*
X39099Y204556D01*
X38573Y203644D01*
X38300Y202627D01*
Y201573D01*
X38573Y200556D01*
X39099Y199644D01*
X39844Y198899D01*
X40756Y198373D01*
X41773Y198100D01*
X42827D01*
X43844Y198373D01*
X44756Y198899D01*
X45247Y199390D01*
X48619Y196019D01*
X49115Y195687D01*
X49595Y195591D01*
X49713Y195307D01*
X49720Y195177D01*
X49099Y194556D01*
X48573Y193644D01*
X48300Y192627D01*
Y192600D01*
X52300D01*
X56300D01*
Y192627D01*
X56027Y193644D01*
X55501Y194556D01*
X54880Y195177D01*
X55043Y195571D01*
X68996D01*
X104946Y159620D01*
Y154352D01*
X105078Y153693D01*
X105451Y153135D01*
X106009Y152761D01*
X106668Y152630D01*
X108046D01*
X108705Y152761D01*
X109264Y153135D01*
X109637Y153693D01*
X109768Y154352D01*
Y160061D01*
X109637Y160720D01*
X109264Y161279D01*
X108705Y161652D01*
X108046Y161783D01*
X107109D01*
X70711Y198181D01*
X70215Y198513D01*
X69630Y198629D01*
X55043D01*
X54880Y199023D01*
X55501Y199644D01*
X56027Y200556D01*
X56300Y201573D01*
Y201600D01*
X52300D01*
X48300D01*
Y201573D01*
X48430Y201090D01*
X48077Y200886D01*
X46738Y202225D01*
X46300Y202518D01*
Y202627D01*
X46027Y203644D01*
X45501Y204556D01*
X44756Y205301D01*
X43844Y205827D01*
X42827Y206100D01*
D02*
G37*
G36*
X546913Y150644D02*
X546661D01*
Y143500D01*
X553804D01*
Y143753D01*
X553511Y145230D01*
X552934Y146621D01*
X552098Y147873D01*
X551033Y148937D01*
X549781Y149774D01*
X548390Y150350D01*
X546913Y150644D01*
D02*
G37*
G36*
X545661D02*
X545408D01*
X543931Y150350D01*
X542540Y149774D01*
X541288Y148937D01*
X540223Y147873D01*
X539387Y146621D01*
X538811Y145230D01*
X538517Y143753D01*
Y143500D01*
X545661D01*
Y150644D01*
D02*
G37*
G36*
X22374Y148441D02*
X22147D01*
Y143413D01*
X27174D01*
Y143641D01*
X26797Y145047D01*
X26070Y146307D01*
X25041Y147336D01*
X23780Y148064D01*
X22374Y148441D01*
D02*
G37*
G36*
X21147D02*
X20919D01*
X19513Y148064D01*
X18252Y147336D01*
X17223Y146307D01*
X16496Y145047D01*
X16119Y143641D01*
Y143413D01*
X21147D01*
Y148441D01*
D02*
G37*
G36*
X27174Y142413D02*
X22147D01*
Y137386D01*
X22374D01*
X23780Y137762D01*
X25041Y138490D01*
X26070Y139519D01*
X26797Y140780D01*
X27174Y142186D01*
Y142413D01*
D02*
G37*
G36*
X21147D02*
X16119D01*
Y142186D01*
X16496Y140780D01*
X17223Y139519D01*
X18252Y138490D01*
X19513Y137762D01*
X20919Y137386D01*
X21147D01*
Y142413D01*
D02*
G37*
G36*
X553804Y142500D02*
X546661D01*
Y135356D01*
X546913D01*
X548390Y135650D01*
X549781Y136226D01*
X551033Y137063D01*
X552098Y138127D01*
X552934Y139379D01*
X553511Y140770D01*
X553804Y142247D01*
Y142500D01*
D02*
G37*
G36*
X545661D02*
X538517D01*
Y142247D01*
X538811Y140770D01*
X539387Y139379D01*
X540223Y138127D01*
X541288Y137063D01*
X542540Y136226D01*
X543931Y135650D01*
X545408Y135356D01*
X545661D01*
Y142500D01*
D02*
G37*
G36*
X34157Y142299D02*
X32699D01*
X31270Y142015D01*
X29924Y141457D01*
X28712Y140648D01*
X27682Y139617D01*
X26872Y138406D01*
X26315Y137059D01*
X26030Y135630D01*
Y134173D01*
X26315Y132744D01*
X26872Y131397D01*
X27682Y130186D01*
X28712Y129155D01*
X29924Y128346D01*
X31270Y127788D01*
X32699Y127504D01*
X34157D01*
X35586Y127788D01*
X36932Y128346D01*
X38144Y129155D01*
X39174Y130186D01*
X39984Y131397D01*
X40541Y132744D01*
X40826Y134173D01*
Y135630D01*
X40541Y137059D01*
X39984Y138406D01*
X39174Y139617D01*
X38144Y140648D01*
X36932Y141457D01*
X35586Y142015D01*
X34157Y142299D01*
D02*
G37*
G36*
X58922Y133677D02*
X57933D01*
X56978Y133421D01*
X56122Y132927D01*
X55423Y132227D01*
X54928Y131371D01*
X54672Y130416D01*
Y129427D01*
X54928Y128472D01*
X55423Y127615D01*
X56122Y126916D01*
X56978Y126421D01*
X57933Y126165D01*
X58922D01*
X59878Y126421D01*
X60734Y126916D01*
X61433Y127615D01*
X61928Y128472D01*
X62184Y129427D01*
Y130416D01*
X61928Y131371D01*
X61433Y132227D01*
X60734Y132927D01*
X59878Y133421D01*
X58922Y133677D01*
D02*
G37*
G36*
X68922Y128677D02*
X67933D01*
X66978Y128421D01*
X66122Y127927D01*
X65422Y127227D01*
X64928Y126371D01*
X64672Y125416D01*
Y124427D01*
X64928Y123471D01*
X65422Y122615D01*
X66122Y121916D01*
X66978Y121421D01*
X67933Y121165D01*
X68922D01*
X69878Y121421D01*
X70734Y121916D01*
X71433Y122615D01*
X71928Y123471D01*
X72184Y124427D01*
Y125416D01*
X71928Y126371D01*
X71433Y127227D01*
X70734Y127927D01*
X69878Y128421D01*
X68922Y128677D01*
D02*
G37*
G36*
X571835Y127825D02*
X570565D01*
X569338Y127496D01*
X568237Y126861D01*
X567339Y125963D01*
X566704Y124862D01*
X566375Y123635D01*
Y122365D01*
X566704Y121138D01*
X567339Y120037D01*
X568237Y119139D01*
X569338Y118504D01*
X570565Y118175D01*
X571835D01*
X573062Y118504D01*
X574163Y119139D01*
X575061Y120037D01*
X575696Y121138D01*
X576025Y122365D01*
Y123635D01*
X575696Y124862D01*
X575061Y125963D01*
X574163Y126861D01*
X573062Y127496D01*
X571835Y127825D01*
D02*
G37*
G36*
X531835D02*
X530565D01*
X529338Y127496D01*
X528237Y126861D01*
X527339Y125963D01*
X526704Y124862D01*
X526375Y123635D01*
Y122365D01*
X526704Y121138D01*
X527339Y120037D01*
X528237Y119139D01*
X529338Y118504D01*
X530565Y118175D01*
X531835D01*
X533062Y118504D01*
X534163Y119139D01*
X535061Y120037D01*
X535696Y121138D01*
X536025Y122365D01*
Y123635D01*
X535696Y124862D01*
X535061Y125963D01*
X534163Y126861D01*
X533062Y127496D01*
X531835Y127825D01*
D02*
G37*
G36*
X58922Y123677D02*
X57933D01*
X56978Y123421D01*
X56122Y122927D01*
X55423Y122227D01*
X54928Y121371D01*
X54672Y120416D01*
Y119427D01*
X54928Y118472D01*
X55423Y117615D01*
X56122Y116916D01*
X56978Y116421D01*
X57933Y116165D01*
X58922D01*
X59878Y116421D01*
X60734Y116916D01*
X61433Y117615D01*
X61928Y118472D01*
X62184Y119427D01*
Y120416D01*
X61928Y121371D01*
X61433Y122227D01*
X60734Y122927D01*
X59878Y123421D01*
X58922Y123677D01*
D02*
G37*
G36*
X68922Y118677D02*
X67933D01*
X66978Y118421D01*
X66122Y117927D01*
X65422Y117227D01*
X64928Y116371D01*
X64672Y115416D01*
Y114427D01*
X64928Y113471D01*
X65422Y112615D01*
X66122Y111916D01*
X66978Y111421D01*
X67933Y111165D01*
X68922D01*
X69878Y111421D01*
X70734Y111916D01*
X71433Y112615D01*
X71928Y113471D01*
X72184Y114427D01*
Y115416D01*
X71928Y116371D01*
X71433Y117227D01*
X70734Y117927D01*
X69878Y118421D01*
X68922Y118677D01*
D02*
G37*
G36*
X58922Y113677D02*
X57933D01*
X56978Y113421D01*
X56122Y112927D01*
X55423Y112227D01*
X54928Y111371D01*
X54672Y110416D01*
Y109427D01*
X54928Y108472D01*
X55423Y107615D01*
X56122Y106916D01*
X56978Y106421D01*
X57933Y106165D01*
X58922D01*
X59878Y106421D01*
X60734Y106916D01*
X61433Y107615D01*
X61928Y108472D01*
X62184Y109427D01*
Y110416D01*
X61928Y111371D01*
X61433Y112227D01*
X60734Y112927D01*
X59878Y113421D01*
X58922Y113677D01*
D02*
G37*
G36*
X560185Y102798D02*
X558867D01*
X558350Y102695D01*
X557911Y102402D01*
X557619Y101964D01*
X557532Y101529D01*
X551424D01*
Y102375D01*
X546275D01*
Y97225D01*
X551424D01*
Y98471D01*
X557532D01*
X557619Y98036D01*
X557911Y97598D01*
X558350Y97305D01*
X558867Y97202D01*
X560185D01*
X560702Y97305D01*
X561140Y97598D01*
X561433Y98036D01*
X561536Y98553D01*
Y101447D01*
X561433Y101964D01*
X561140Y102402D01*
X560702Y102695D01*
X560185Y102798D01*
D02*
G37*
G36*
X68922Y108677D02*
X67933D01*
X66978Y108421D01*
X66122Y107927D01*
X65422Y107227D01*
X64928Y106371D01*
X64672Y105416D01*
Y104427D01*
X64928Y103472D01*
X65422Y102615D01*
X66122Y101916D01*
X66978Y101421D01*
X67933Y101165D01*
X68922D01*
X69878Y101421D01*
X70734Y101916D01*
X71433Y102615D01*
X71928Y103472D01*
X72184Y104427D01*
Y105416D01*
X71928Y106371D01*
X71433Y107227D01*
X70734Y107927D01*
X69878Y108421D01*
X68922Y108677D01*
D02*
G37*
G36*
X565934Y102798D02*
X565774D01*
Y100500D01*
X567284D01*
Y101447D01*
X567181Y101964D01*
X566889Y102402D01*
X566450Y102695D01*
X565934Y102798D01*
D02*
G37*
G36*
X564774D02*
X564615D01*
X564098Y102695D01*
X563659Y102402D01*
X563367Y101964D01*
X563264Y101447D01*
Y100500D01*
X564774D01*
Y102798D01*
D02*
G37*
G36*
X567284Y99500D02*
X565774D01*
Y97202D01*
X565934D01*
X566450Y97305D01*
X566889Y97598D01*
X567181Y98036D01*
X567284Y98553D01*
Y99500D01*
D02*
G37*
G36*
X564774D02*
X563264D01*
Y98553D01*
X563367Y98036D01*
X563659Y97598D01*
X564098Y97305D01*
X564615Y97202D01*
X564774D01*
Y99500D01*
D02*
G37*
G36*
X58922Y103677D02*
X57933D01*
X56978Y103421D01*
X56122Y102927D01*
X55423Y102227D01*
X54928Y101371D01*
X54672Y100416D01*
Y99427D01*
X54928Y98471D01*
X55423Y97615D01*
X56122Y96916D01*
X56978Y96421D01*
X57933Y96165D01*
X58922D01*
X59878Y96421D01*
X60734Y96916D01*
X61433Y97615D01*
X61928Y98471D01*
X62184Y99427D01*
Y100416D01*
X61928Y101371D01*
X61433Y102227D01*
X60734Y102927D01*
X59878Y103421D01*
X58922Y103677D01*
D02*
G37*
G36*
X68922Y98677D02*
X67933D01*
X66978Y98421D01*
X66122Y97927D01*
X65422Y97227D01*
X64928Y96371D01*
X64672Y95416D01*
Y94427D01*
X64928Y93471D01*
X65422Y92615D01*
X66122Y91916D01*
X66978Y91421D01*
X67933Y91165D01*
X68922D01*
X69878Y91421D01*
X70734Y91916D01*
X71433Y92615D01*
X71928Y93471D01*
X72184Y94427D01*
Y95416D01*
X71928Y96371D01*
X71433Y97227D01*
X70734Y97927D01*
X69878Y98421D01*
X68922Y98677D01*
D02*
G37*
G36*
X558785Y89898D02*
X557467D01*
X556950Y89795D01*
X556511Y89502D01*
X556219Y89064D01*
X556116Y88547D01*
Y88429D01*
X551624D01*
Y89575D01*
X546475D01*
Y84425D01*
X551624D01*
Y85371D01*
X556172D01*
X556219Y85136D01*
X556511Y84698D01*
X556950Y84405D01*
X557467Y84302D01*
X558785D01*
X559302Y84405D01*
X559740Y84698D01*
X560033Y85136D01*
X560136Y85653D01*
Y86804D01*
X560155Y86900D01*
X560136Y86997D01*
Y88547D01*
X560033Y89064D01*
X559740Y89502D01*
X559302Y89795D01*
X558785Y89898D01*
D02*
G37*
G36*
X545325Y89575D02*
X540176D01*
Y88429D01*
X538777D01*
X538624Y88582D01*
X537895Y88884D01*
X537105D01*
X536376Y88582D01*
X535818Y88024D01*
X535516Y87295D01*
Y86505D01*
X535818Y85776D01*
X536376Y85218D01*
X537105Y84916D01*
X537895D01*
X538624Y85218D01*
X538777Y85371D01*
X540176D01*
Y84425D01*
X545325D01*
Y89575D01*
D02*
G37*
G36*
X564534Y89898D02*
X564374D01*
Y87600D01*
X565884D01*
Y88547D01*
X565781Y89064D01*
X565489Y89502D01*
X565050Y89795D01*
X564534Y89898D01*
D02*
G37*
G36*
X563374D02*
X563215D01*
X562698Y89795D01*
X562259Y89502D01*
X561967Y89064D01*
X561864Y88547D01*
Y87600D01*
X563374D01*
Y89898D01*
D02*
G37*
G36*
X565884Y86600D02*
X564374D01*
Y84302D01*
X564534D01*
X565050Y84405D01*
X565489Y84698D01*
X565781Y85136D01*
X565884Y85653D01*
Y86600D01*
D02*
G37*
G36*
X563374D02*
X561864D01*
Y85653D01*
X561967Y85136D01*
X562259Y84698D01*
X562698Y84405D01*
X563215Y84302D01*
X563374D01*
Y86600D01*
D02*
G37*
G36*
X34157Y97299D02*
X32699D01*
X31270Y97015D01*
X29924Y96457D01*
X28712Y95648D01*
X27682Y94617D01*
X26872Y93406D01*
X26315Y92059D01*
X26030Y90630D01*
Y89173D01*
X26315Y87744D01*
X26872Y86397D01*
X27682Y85186D01*
X28712Y84155D01*
X29924Y83346D01*
X31270Y82788D01*
X32699Y82504D01*
X34157D01*
X35586Y82788D01*
X36932Y83346D01*
X38144Y84155D01*
X39174Y85186D01*
X39984Y86397D01*
X40541Y87744D01*
X40826Y89173D01*
Y90630D01*
X40541Y92059D01*
X39984Y93406D01*
X39174Y94617D01*
X38144Y95648D01*
X36932Y96457D01*
X35586Y97015D01*
X34157Y97299D01*
D02*
G37*
G36*
X22374Y87516D02*
X22147D01*
Y82488D01*
X27174D01*
Y82716D01*
X26797Y84122D01*
X26070Y85382D01*
X25041Y86411D01*
X23780Y87139D01*
X22374Y87516D01*
D02*
G37*
G36*
X21147D02*
X20919D01*
X19513Y87139D01*
X18252Y86411D01*
X17223Y85382D01*
X16496Y84122D01*
X16119Y82716D01*
Y82488D01*
X21147D01*
Y87516D01*
D02*
G37*
G36*
X387575Y81924D02*
X382425D01*
Y80603D01*
X379659D01*
X379602Y80689D01*
X379164Y80981D01*
X378647Y81084D01*
X375753D01*
X375236Y80981D01*
X374798Y80689D01*
X374505Y80250D01*
X374402Y79734D01*
Y78415D01*
X374505Y77898D01*
X374798Y77460D01*
X375236Y77167D01*
X375753Y77064D01*
X378647D01*
X379164Y77167D01*
X379602Y77460D01*
X379659Y77545D01*
X382425D01*
Y76775D01*
X387575D01*
Y81924D01*
D02*
G37*
G36*
X345775D02*
X340625D01*
Y80603D01*
X337459D01*
X337402Y80689D01*
X336964Y80981D01*
X336447Y81084D01*
X333553D01*
X333036Y80981D01*
X332598Y80689D01*
X332305Y80250D01*
X332202Y79734D01*
Y78415D01*
X332305Y77898D01*
X332598Y77460D01*
X333036Y77167D01*
X333553Y77064D01*
X336447D01*
X336964Y77167D01*
X337402Y77460D01*
X337459Y77545D01*
X340625D01*
Y76775D01*
X345775D01*
Y81924D01*
D02*
G37*
G36*
X305775D02*
X300625D01*
Y80603D01*
X295959D01*
X295902Y80689D01*
X295464Y80981D01*
X294947Y81084D01*
X292053D01*
X291536Y80981D01*
X291098Y80689D01*
X290805Y80250D01*
X290702Y79734D01*
Y78415D01*
X290805Y77898D01*
X291098Y77460D01*
X291536Y77167D01*
X292053Y77064D01*
X294947D01*
X295464Y77167D01*
X295902Y77460D01*
X295959Y77545D01*
X300625D01*
Y76775D01*
X305775D01*
Y81924D01*
D02*
G37*
G36*
X127731Y266299D02*
X126354D01*
X125695Y266168D01*
X125136Y265795D01*
X124762Y265236D01*
X124631Y264577D01*
Y258869D01*
X124762Y258209D01*
X125136Y257651D01*
X125695Y257277D01*
X126354Y257147D01*
X127731D01*
X128391Y257277D01*
X128949Y257651D01*
X129322Y258209D01*
X129454Y258869D01*
Y260193D01*
X211214D01*
X390864Y80544D01*
X391119Y80373D01*
Y79743D01*
X391257Y79046D01*
X391412Y78814D01*
X391415Y78413D01*
X390919Y78081D01*
X387938Y75101D01*
X387575Y75252D01*
Y75625D01*
X382425D01*
Y70476D01*
X387575D01*
Y71521D01*
X388050D01*
X388636Y71637D01*
X389132Y71969D01*
X390936Y73773D01*
X391372Y73652D01*
X391395Y73560D01*
X391257Y73354D01*
X391119Y72657D01*
Y70885D01*
X391257Y70188D01*
X391652Y69596D01*
X392244Y69201D01*
X392941Y69063D01*
X393638Y69201D01*
X394220Y69590D01*
X394803Y69201D01*
X395000Y69162D01*
Y71771D01*
X396000D01*
Y69162D01*
X396197Y69201D01*
X396779Y69590D01*
X397362Y69201D01*
X397634Y69147D01*
X401971Y64811D01*
Y43731D01*
X401956Y43727D01*
X401044Y43201D01*
X400299Y42456D01*
X399773Y41544D01*
X399500Y40527D01*
Y39473D01*
X399773Y38456D01*
X400299Y37544D01*
X401044Y36799D01*
X401956Y36273D01*
X401971Y36269D01*
Y35162D01*
X396838Y30029D01*
X380033D01*
X375029Y35034D01*
Y36269D01*
X375044Y36273D01*
X375956Y36799D01*
X376701Y37544D01*
X377227Y38456D01*
X377500Y39473D01*
Y40527D01*
X377227Y41544D01*
X376701Y42456D01*
X375956Y43201D01*
X375044Y43727D01*
X374027Y44000D01*
X372973D01*
X371956Y43727D01*
X371044Y43201D01*
X370299Y42456D01*
X369773Y41544D01*
X369500Y40527D01*
Y39473D01*
X369773Y38456D01*
X370299Y37544D01*
X371044Y36799D01*
X371956Y36273D01*
X371971Y36269D01*
Y34400D01*
X372087Y33815D01*
X372419Y33319D01*
X378319Y27419D01*
X378815Y27087D01*
X379400Y26971D01*
X396954D01*
X397386Y26885D01*
X397971Y27001D01*
X398467Y27333D01*
X398467Y27333D01*
X404581Y33447D01*
X404913Y33943D01*
X405029Y34528D01*
Y36269D01*
X405044Y36273D01*
X405956Y36799D01*
X406701Y37544D01*
X407227Y38456D01*
X407500Y39473D01*
Y40527D01*
X407227Y41544D01*
X406701Y42456D01*
X405956Y43201D01*
X405044Y43727D01*
X405029Y43731D01*
Y65444D01*
X404913Y66029D01*
X404581Y66526D01*
X399882Y71226D01*
Y71913D01*
X400663D01*
X400798Y71711D01*
X401236Y71419D01*
X401753Y71316D01*
X404647D01*
X405164Y71419D01*
X405602Y71711D01*
X405895Y72150D01*
X405998Y72667D01*
Y73985D01*
X405895Y74502D01*
X405602Y74941D01*
X405164Y75233D01*
X404647Y75336D01*
X401753D01*
X401236Y75233D01*
X400845Y74972D01*
X398583D01*
X397529Y76025D01*
X397498Y76343D01*
X399030Y77876D01*
X399362Y78372D01*
X399392Y78520D01*
X399743Y79046D01*
X399882Y79743D01*
Y81515D01*
X399743Y82212D01*
X399348Y82804D01*
X398757Y83199D01*
X398059Y83337D01*
X397797Y83285D01*
X397394Y83578D01*
X397370Y83807D01*
X397978Y84416D01*
X398076Y84318D01*
X398805Y84016D01*
X399595D01*
X400324Y84318D01*
X400477Y84471D01*
X400667D01*
X401671Y83467D01*
Y81068D01*
X401236Y80981D01*
X400798Y80689D01*
X400505Y80250D01*
X400402Y79734D01*
Y78415D01*
X400505Y77898D01*
X400798Y77460D01*
X401236Y77167D01*
X401753Y77064D01*
X404647D01*
X405164Y77167D01*
X405602Y77460D01*
X405895Y77898D01*
X405998Y78415D01*
Y79734D01*
X405895Y80250D01*
X405602Y80689D01*
X405164Y80981D01*
X404729Y81068D01*
Y84100D01*
X404613Y84685D01*
X404281Y85181D01*
X402381Y87081D01*
X401885Y87413D01*
X401300Y87529D01*
X400477D01*
X400324Y87682D01*
X399595Y87984D01*
X398805D01*
X398076Y87682D01*
X397923Y87529D01*
X397400D01*
X396815Y87413D01*
X396319Y87081D01*
X394529Y85291D01*
X394197Y84795D01*
X394081Y84210D01*
Y83321D01*
X393733Y83135D01*
X393638Y83199D01*
X392941Y83337D01*
X392486Y83247D01*
X212929Y262804D01*
X212433Y263136D01*
X211847Y263252D01*
X129454D01*
Y264577D01*
X129322Y265236D01*
X128949Y265795D01*
X128391Y266168D01*
X127731Y266299D01*
D02*
G37*
G36*
Y242283D02*
X126354D01*
X125695Y242152D01*
X125136Y241779D01*
X124762Y241220D01*
X124631Y240561D01*
Y234852D01*
X124762Y234193D01*
X125136Y233635D01*
X125695Y233261D01*
X126354Y233130D01*
X127731D01*
X128391Y233261D01*
X128949Y233635D01*
X129322Y234193D01*
X129454Y234852D01*
Y236177D01*
X194230D01*
X349864Y80544D01*
X350118Y80373D01*
Y79743D01*
X350257Y79046D01*
X350652Y78455D01*
X351169Y78109D01*
X351295Y77678D01*
X348197Y74580D01*
X345775D01*
Y75625D01*
X340625D01*
Y70476D01*
X345775D01*
Y71521D01*
X348830D01*
X349416Y71637D01*
X349725Y71844D01*
X350118Y71633D01*
Y70885D01*
X350257Y70188D01*
X350652Y69596D01*
X351243Y69201D01*
X351941Y69063D01*
X352638Y69201D01*
X353221Y69590D01*
X353803Y69201D01*
X354000Y69162D01*
Y71771D01*
X355000D01*
Y69162D01*
X355197Y69201D01*
X355780Y69590D01*
X356362Y69201D01*
X356634Y69147D01*
X361971Y63811D01*
Y43731D01*
X361956Y43727D01*
X361044Y43201D01*
X360299Y42456D01*
X359773Y41544D01*
X359500Y40527D01*
Y39473D01*
X359773Y38456D01*
X360299Y37544D01*
X361044Y36799D01*
X361956Y36273D01*
X361971Y36269D01*
Y32362D01*
X360038Y30429D01*
X340933D01*
X335336Y36027D01*
X335378Y36466D01*
X335956Y36799D01*
X336701Y37544D01*
X337227Y38456D01*
X337500Y39473D01*
Y40527D01*
X337227Y41544D01*
X336701Y42456D01*
X335956Y43201D01*
X335044Y43727D01*
X334027Y44000D01*
X332973D01*
X331956Y43727D01*
X331044Y43201D01*
X330299Y42456D01*
X329773Y41544D01*
X329500Y40527D01*
Y39473D01*
X329773Y38456D01*
X330299Y37544D01*
X331044Y36799D01*
X331956Y36273D01*
X332171Y36215D01*
Y35500D01*
X332287Y34915D01*
X332619Y34419D01*
X339219Y27819D01*
X339715Y27487D01*
X340300Y27371D01*
X360155D01*
X360586Y27285D01*
X361171Y27401D01*
X361667Y27733D01*
X361667Y27733D01*
X364581Y30647D01*
X364913Y31143D01*
X365029Y31728D01*
Y36269D01*
X365044Y36273D01*
X365956Y36799D01*
X366701Y37544D01*
X367227Y38456D01*
X367500Y39473D01*
Y40527D01*
X367227Y41544D01*
X366701Y42456D01*
X365956Y43201D01*
X365044Y43727D01*
X365029Y43731D01*
Y64444D01*
X364913Y65029D01*
X364581Y65526D01*
X358881Y71226D01*
Y71797D01*
X360941D01*
X360998Y71711D01*
X361436Y71419D01*
X361953Y71316D01*
X364847D01*
X365364Y71419D01*
X365802Y71711D01*
X366095Y72150D01*
X366198Y72667D01*
Y73985D01*
X366095Y74502D01*
X365802Y74941D01*
X365364Y75233D01*
X364847Y75336D01*
X361953D01*
X361436Y75233D01*
X360998Y74941D01*
X360941Y74855D01*
X357699D01*
X356529Y76025D01*
X356498Y76343D01*
X358031Y77876D01*
X358362Y78372D01*
X358391Y78520D01*
X358743Y79046D01*
X358881Y79743D01*
Y81515D01*
X358743Y82212D01*
X358348Y82804D01*
X358039Y83010D01*
X357993Y83475D01*
X358287Y83730D01*
X358805Y83516D01*
X359595D01*
X360324Y83818D01*
X360477Y83971D01*
X361266D01*
X361871Y83367D01*
Y81068D01*
X361436Y80981D01*
X360998Y80689D01*
X360705Y80250D01*
X360602Y79734D01*
Y78415D01*
X360705Y77898D01*
X360998Y77460D01*
X361436Y77167D01*
X361953Y77064D01*
X364847D01*
X365364Y77167D01*
X365802Y77460D01*
X366095Y77898D01*
X366198Y78415D01*
Y79734D01*
X366095Y80250D01*
X365802Y80689D01*
X365364Y80981D01*
X364929Y81068D01*
Y84000D01*
X364813Y84585D01*
X364481Y85081D01*
X362981Y86581D01*
X362485Y86913D01*
X361900Y87029D01*
X360477D01*
X360324Y87182D01*
X359595Y87484D01*
X358805D01*
X358076Y87182D01*
X357738Y86844D01*
X357624D01*
X357039Y86728D01*
X356542Y86396D01*
X353528Y83382D01*
X353197Y82886D01*
X353141Y82863D01*
X352638Y83199D01*
X351941Y83337D01*
X351486Y83247D01*
X195945Y238788D01*
X195449Y239120D01*
X194863Y239236D01*
X129454D01*
Y240561D01*
X129322Y241220D01*
X128949Y241779D01*
X128391Y242152D01*
X127731Y242283D01*
D02*
G37*
G36*
Y225999D02*
X126354D01*
X125695Y225868D01*
X125136Y225495D01*
X124762Y224936D01*
X124631Y224277D01*
Y218568D01*
X124762Y217910D01*
X125136Y217351D01*
X125695Y216978D01*
X126354Y216846D01*
X127731D01*
X128391Y216978D01*
X128949Y217351D01*
X129322Y217910D01*
X129454Y218568D01*
Y219893D01*
X171456D01*
X310918Y80431D01*
Y79743D01*
X311057Y79046D01*
X311266Y78733D01*
X311354Y78377D01*
X311166Y78228D01*
X310863Y78026D01*
X307417Y74580D01*
X305775D01*
Y75625D01*
X300625D01*
Y70476D01*
X305775D01*
Y71521D01*
X308050D01*
X308636Y71637D01*
X309132Y71969D01*
X310689Y73526D01*
X311036Y73358D01*
X311053Y73334D01*
X310918Y72657D01*
Y70885D01*
X311057Y70188D01*
X311452Y69596D01*
X312043Y69201D01*
X312741Y69063D01*
X313438Y69201D01*
X314020Y69590D01*
X314603Y69201D01*
X314800Y69162D01*
Y71771D01*
X315800D01*
Y69162D01*
X315997Y69201D01*
X316580Y69590D01*
X317162Y69201D01*
X317434Y69147D01*
X321971Y64611D01*
Y43731D01*
X321956Y43727D01*
X321044Y43201D01*
X320299Y42456D01*
X319773Y41544D01*
X319500Y40527D01*
Y39473D01*
X319773Y38456D01*
X320299Y37544D01*
X321044Y36799D01*
X321956Y36273D01*
X321971Y36269D01*
Y34233D01*
X318067Y30329D01*
X298733D01*
X295029Y34034D01*
Y36269D01*
X295044Y36273D01*
X295956Y36799D01*
X296701Y37544D01*
X297227Y38456D01*
X297500Y39473D01*
Y40527D01*
X297227Y41544D01*
X296701Y42456D01*
X295956Y43201D01*
X295044Y43727D01*
X294027Y44000D01*
X292973D01*
X291956Y43727D01*
X291044Y43201D01*
X290299Y42456D01*
X289773Y41544D01*
X289500Y40527D01*
Y39473D01*
X289773Y38456D01*
X290299Y37544D01*
X291044Y36799D01*
X291956Y36273D01*
X291971Y36269D01*
Y33400D01*
X292087Y32815D01*
X292419Y32319D01*
X297019Y27719D01*
X297515Y27387D01*
X298100Y27271D01*
X318700D01*
X319285Y27387D01*
X319781Y27719D01*
X324581Y32519D01*
X324913Y33015D01*
X325029Y33600D01*
Y36269D01*
X325044Y36273D01*
X325956Y36799D01*
X326701Y37544D01*
X327227Y38456D01*
X327500Y39473D01*
Y40527D01*
X327227Y41544D01*
X326701Y42456D01*
X325956Y43201D01*
X325044Y43727D01*
X325029Y43731D01*
Y65244D01*
X324913Y65829D01*
X324581Y66325D01*
X319682Y71226D01*
Y71797D01*
X322341D01*
X322398Y71711D01*
X322836Y71419D01*
X323353Y71316D01*
X326247D01*
X326764Y71419D01*
X327202Y71711D01*
X327495Y72150D01*
X327598Y72667D01*
Y73985D01*
X327495Y74502D01*
X327202Y74941D01*
X326764Y75233D01*
X326247Y75336D01*
X323353D01*
X322836Y75233D01*
X322398Y74941D01*
X322341Y74855D01*
X318499D01*
X317329Y76025D01*
X317298Y76343D01*
X318830Y77876D01*
X319162Y78372D01*
X319192Y78520D01*
X319543Y79046D01*
X319682Y79743D01*
Y81515D01*
X319543Y82212D01*
X319148Y82804D01*
X318556Y83199D01*
X317859Y83337D01*
X317482Y83262D01*
X317288Y83625D01*
X317848Y84185D01*
X318855D01*
X319505Y83916D01*
X320295D01*
X321024Y84218D01*
X321177Y84371D01*
X322867D01*
X323271Y83966D01*
Y81068D01*
X322836Y80981D01*
X322398Y80689D01*
X322105Y80250D01*
X322002Y79734D01*
Y78415D01*
X322105Y77898D01*
X322398Y77460D01*
X322836Y77167D01*
X323353Y77064D01*
X326247D01*
X326764Y77167D01*
X327202Y77460D01*
X327495Y77898D01*
X327598Y78415D01*
Y79734D01*
X327495Y80250D01*
X327202Y80689D01*
X326764Y80981D01*
X326329Y81068D01*
Y84600D01*
X326213Y85185D01*
X325881Y85681D01*
X324581Y86981D01*
X324085Y87313D01*
X323500Y87429D01*
X321177D01*
X321024Y87582D01*
X320295Y87884D01*
X319505D01*
X318776Y87582D01*
X318438Y87244D01*
X317215D01*
X316629Y87128D01*
X316133Y86796D01*
X314329Y84991D01*
X313997Y84495D01*
X313881Y83910D01*
Y83321D01*
X313533Y83135D01*
X313438Y83199D01*
X312741Y83337D01*
X312405Y83271D01*
X173171Y222504D01*
X172675Y222836D01*
X172090Y222952D01*
X129454D01*
Y224277D01*
X129322Y224936D01*
X128949Y225495D01*
X128391Y225868D01*
X127731Y225999D01*
D02*
G37*
G36*
Y185799D02*
X126354D01*
X125695Y185668D01*
X125136Y185295D01*
X124762Y184736D01*
X124631Y184077D01*
Y178368D01*
X124762Y177709D01*
X125136Y177151D01*
X125695Y176778D01*
X126354Y176646D01*
X127731D01*
X128391Y176778D01*
X128949Y177151D01*
X129322Y177709D01*
X129454Y178368D01*
Y179693D01*
X168914D01*
X268064Y80544D01*
X268319Y80373D01*
Y79743D01*
X268457Y79046D01*
X268608Y78821D01*
X268422Y78474D01*
X264194D01*
X263608Y78357D01*
X263268Y78130D01*
X262875Y78325D01*
Y81924D01*
X257725D01*
Y80603D01*
X255859D01*
X255802Y80689D01*
X255364Y80981D01*
X254847Y81084D01*
X251953D01*
X251436Y80981D01*
X250998Y80689D01*
X250705Y80250D01*
X250602Y79734D01*
Y78415D01*
X250705Y77898D01*
X250998Y77460D01*
X251436Y77167D01*
X251953Y77064D01*
X254847D01*
X255364Y77167D01*
X255802Y77460D01*
X255859Y77545D01*
X257725D01*
Y76775D01*
X261347D01*
X261498Y76411D01*
X260712Y75625D01*
X257725D01*
Y70476D01*
X262875D01*
Y73462D01*
X264827Y75415D01*
X269546D01*
X269696Y75051D01*
X269169Y74524D01*
X268838Y74028D01*
X268809Y73880D01*
X268457Y73354D01*
X268319Y72657D01*
Y70885D01*
X268457Y70188D01*
X268852Y69596D01*
X269443Y69201D01*
X270141Y69063D01*
X270838Y69201D01*
X271421Y69590D01*
X272003Y69201D01*
X272200Y69162D01*
Y71771D01*
X273200D01*
Y69162D01*
X273397Y69201D01*
X273979Y69590D01*
X274562Y69201D01*
X274834Y69147D01*
X281971Y62011D01*
Y43731D01*
X281956Y43727D01*
X281044Y43201D01*
X280299Y42456D01*
X279773Y41544D01*
X279500Y40527D01*
Y39473D01*
X279773Y38456D01*
X279780Y38443D01*
X274166Y32829D01*
X262833D01*
X257220Y38443D01*
X257227Y38456D01*
X257500Y39473D01*
Y40527D01*
X257227Y41544D01*
X256701Y42456D01*
X255956Y43201D01*
X255044Y43727D01*
X254027Y44000D01*
X252973D01*
X251956Y43727D01*
X251044Y43201D01*
X250299Y42456D01*
X249773Y41544D01*
X249500Y40527D01*
Y39473D01*
X249773Y38456D01*
X250299Y37544D01*
X251044Y36799D01*
X251956Y36273D01*
X252973Y36000D01*
X254027D01*
X255044Y36273D01*
X255057Y36280D01*
X261119Y30219D01*
X261615Y29887D01*
X262200Y29771D01*
X274800D01*
X275385Y29887D01*
X275881Y30219D01*
X281943Y36280D01*
X281956Y36273D01*
X282973Y36000D01*
X284027D01*
X285044Y36273D01*
X285956Y36799D01*
X286701Y37544D01*
X287227Y38456D01*
X287500Y39473D01*
Y40527D01*
X287227Y41544D01*
X286701Y42456D01*
X285956Y43201D01*
X285044Y43727D01*
X285029Y43731D01*
Y62644D01*
X284913Y63229D01*
X284581Y63726D01*
X277081Y71226D01*
Y71913D01*
X278863D01*
X278998Y71711D01*
X279436Y71419D01*
X279953Y71316D01*
X282847D01*
X283364Y71419D01*
X283802Y71711D01*
X284095Y72150D01*
X284198Y72667D01*
Y73985D01*
X284095Y74502D01*
X283802Y74941D01*
X283364Y75233D01*
X282847Y75336D01*
X279953D01*
X279436Y75233D01*
X279045Y74972D01*
X275783D01*
X274729Y76025D01*
X274698Y76343D01*
X276231Y77876D01*
X276562Y78372D01*
X276591Y78520D01*
X276943Y79046D01*
X277081Y79743D01*
Y81515D01*
X276943Y82212D01*
X276548Y82804D01*
X276371Y82922D01*
X276490Y83316D01*
X276995D01*
X277645Y83585D01*
X278052D01*
X279871Y81766D01*
Y81068D01*
X279436Y80981D01*
X278998Y80689D01*
X278705Y80250D01*
X278602Y79734D01*
Y78415D01*
X278705Y77898D01*
X278998Y77460D01*
X279436Y77167D01*
X279953Y77064D01*
X282847D01*
X283364Y77167D01*
X283802Y77460D01*
X284095Y77898D01*
X284198Y78415D01*
Y79734D01*
X284095Y80250D01*
X283802Y80689D01*
X283364Y80981D01*
X282929Y81068D01*
Y82400D01*
X282813Y82985D01*
X282481Y83481D01*
X279767Y86196D01*
X279271Y86528D01*
X278685Y86644D01*
X278062D01*
X277724Y86982D01*
X276995Y87284D01*
X276205D01*
X275476Y86982D01*
X275138Y86644D01*
X274315D01*
X273729Y86528D01*
X273233Y86196D01*
X271728Y84691D01*
X271397Y84195D01*
X271281Y83610D01*
Y83321D01*
X270933Y83135D01*
X270838Y83199D01*
X270141Y83337D01*
X269686Y83247D01*
X170629Y182304D01*
X170133Y182636D01*
X169547Y182752D01*
X129454D01*
Y184077D01*
X129322Y184736D01*
X128949Y185295D01*
X128391Y185668D01*
X127731Y185799D01*
D02*
G37*
G36*
Y161783D02*
X126354D01*
X125695Y161652D01*
X125136Y161279D01*
X124762Y160720D01*
X124631Y160061D01*
Y154352D01*
X124762Y153693D01*
X125136Y153135D01*
X125695Y152761D01*
X126354Y152630D01*
X127731D01*
X128391Y152761D01*
X128949Y153135D01*
X129322Y153693D01*
X129454Y154352D01*
Y155677D01*
X151016D01*
X225518Y81174D01*
Y79743D01*
X225657Y79046D01*
X226052Y78455D01*
X226643Y78060D01*
X227341Y77921D01*
X228038Y78060D01*
X228621Y78449D01*
X229203Y78060D01*
X229560Y77988D01*
X229673Y77637D01*
X229416Y77329D01*
X220075D01*
Y81924D01*
X214925D01*
Y80803D01*
X212130D01*
X211864Y80981D01*
X211347Y81084D01*
X208453D01*
X207936Y80981D01*
X207498Y80689D01*
X207205Y80250D01*
X207102Y79734D01*
Y78415D01*
X207205Y77898D01*
X207498Y77460D01*
X207936Y77167D01*
X208453Y77064D01*
X211347D01*
X211864Y77167D01*
X212302Y77460D01*
X212492Y77745D01*
X214925D01*
Y76775D01*
X218047D01*
X218198Y76411D01*
X217493Y75707D01*
X217439Y75625D01*
X214925D01*
Y70476D01*
X220075D01*
Y73962D01*
X220383Y74271D01*
X225884D01*
X226007Y73877D01*
X225657Y73354D01*
X225518Y72657D01*
Y71070D01*
X225108Y70659D01*
X224776Y70163D01*
X224660Y69578D01*
Y66711D01*
X224776Y66126D01*
X225108Y65630D01*
X227403Y63334D01*
X227899Y63003D01*
X228484Y62886D01*
X233516D01*
X234101Y63003D01*
X234597Y63334D01*
X235222Y63959D01*
X241971Y57211D01*
Y43731D01*
X241956Y43727D01*
X241044Y43201D01*
X240299Y42456D01*
X239773Y41544D01*
X239500Y40527D01*
Y39473D01*
X239773Y38456D01*
X240299Y37544D01*
X241044Y36799D01*
X241266Y36671D01*
X241318Y36281D01*
X236167Y31129D01*
X220833D01*
X215682Y36281D01*
X215734Y36671D01*
X215956Y36799D01*
X216701Y37544D01*
X217227Y38456D01*
X217500Y39473D01*
Y40527D01*
X217227Y41544D01*
X216701Y42456D01*
X215956Y43201D01*
X215044Y43727D01*
X214027Y44000D01*
X212973D01*
X211956Y43727D01*
X211044Y43201D01*
X210299Y42456D01*
X209773Y41544D01*
X209500Y40527D01*
Y39473D01*
X209773Y38456D01*
X210299Y37544D01*
X211044Y36799D01*
X211956Y36273D01*
X212185Y36211D01*
Y36086D01*
X212301Y35500D01*
X212633Y35004D01*
X219119Y28519D01*
X219615Y28187D01*
X220200Y28071D01*
X236800D01*
X237385Y28187D01*
X237881Y28519D01*
X244367Y35004D01*
X244699Y35500D01*
X244815Y36086D01*
Y36211D01*
X245044Y36273D01*
X245956Y36799D01*
X246701Y37544D01*
X247227Y38456D01*
X247500Y39473D01*
Y40527D01*
X247227Y41544D01*
X246701Y42456D01*
X245956Y43201D01*
X245044Y43727D01*
X245029Y43731D01*
Y57844D01*
X244913Y58429D01*
X244581Y58925D01*
X236303Y67203D01*
X233988Y69519D01*
Y69957D01*
X234143Y70188D01*
X234154Y70241D01*
X235658D01*
X236243Y70358D01*
X236739Y70689D01*
X237365Y71316D01*
X239447D01*
X239964Y71419D01*
X240402Y71711D01*
X240695Y72150D01*
X240798Y72667D01*
Y73985D01*
X240695Y74502D01*
X240402Y74941D01*
X239964Y75233D01*
X239447Y75336D01*
X236553D01*
X236036Y75233D01*
X235598Y74941D01*
X235305Y74502D01*
X235202Y73985D01*
Y73479D01*
X235024Y73300D01*
X234154D01*
X234143Y73354D01*
X233748Y73945D01*
X233156Y74340D01*
X232459Y74479D01*
X231762Y74340D01*
X231338Y74057D01*
X231061Y74220D01*
X231053Y74633D01*
X231181Y74719D01*
X233431Y76968D01*
X233762Y77464D01*
X233878Y78049D01*
Y78650D01*
X234143Y79046D01*
X234281Y79743D01*
Y81515D01*
X234143Y82212D01*
X233748Y82804D01*
X233156Y83199D01*
X232459Y83337D01*
X231953Y83237D01*
X231635Y83499D01*
X231707Y83771D01*
X234767D01*
X236471Y82067D01*
Y81068D01*
X236036Y80981D01*
X235598Y80689D01*
X235305Y80250D01*
X235202Y79734D01*
Y78415D01*
X235305Y77898D01*
X235598Y77460D01*
X236036Y77167D01*
X236553Y77064D01*
X239447D01*
X239964Y77167D01*
X240402Y77460D01*
X240695Y77898D01*
X240798Y78415D01*
Y79734D01*
X240695Y80250D01*
X240402Y80689D01*
X239964Y80981D01*
X239529Y81068D01*
Y82700D01*
X239413Y83285D01*
X239081Y83781D01*
X236481Y86381D01*
X235985Y86713D01*
X235400Y86829D01*
X231277D01*
X231124Y86982D01*
X230395Y87284D01*
X229605D01*
X228876Y86982D01*
X228318Y86424D01*
X228016Y85695D01*
Y84905D01*
X228318Y84176D01*
X228421Y84073D01*
Y83411D01*
X228098Y83190D01*
X228027Y83201D01*
X227766Y83253D01*
X152731Y158288D01*
X152234Y158620D01*
X151649Y158736D01*
X129454D01*
Y160061D01*
X129322Y160720D01*
X128949Y161279D01*
X128391Y161652D01*
X127731Y161783D01*
D02*
G37*
G36*
X27174Y81488D02*
X22147D01*
Y76461D01*
X22374D01*
X23780Y76837D01*
X25041Y77565D01*
X26070Y78594D01*
X26797Y79855D01*
X27174Y81261D01*
Y81488D01*
D02*
G37*
G36*
X21147D02*
X16119D01*
Y81261D01*
X16496Y79855D01*
X17223Y78594D01*
X18252Y77565D01*
X19513Y76837D01*
X20919Y76461D01*
X21147D01*
Y81488D01*
D02*
G37*
G36*
X378647Y75336D02*
X377700D01*
Y73826D01*
X379998D01*
Y73985D01*
X379895Y74502D01*
X379602Y74941D01*
X379164Y75233D01*
X378647Y75336D01*
D02*
G37*
G36*
X336447D02*
X335500D01*
Y73826D01*
X337798D01*
Y73985D01*
X337695Y74502D01*
X337402Y74941D01*
X336964Y75233D01*
X336447Y75336D01*
D02*
G37*
G36*
X294947D02*
X294000D01*
Y73826D01*
X296298D01*
Y73985D01*
X296195Y74502D01*
X295902Y74941D01*
X295464Y75233D01*
X294947Y75336D01*
D02*
G37*
G36*
X254847D02*
X253900D01*
Y73826D01*
X256198D01*
Y73985D01*
X256095Y74502D01*
X255802Y74941D01*
X255364Y75233D01*
X254847Y75336D01*
D02*
G37*
G36*
X211347D02*
X210400D01*
Y73826D01*
X212698D01*
Y73985D01*
X212595Y74502D01*
X212302Y74941D01*
X211864Y75233D01*
X211347Y75336D01*
D02*
G37*
G36*
X334500D02*
X333553D01*
X333036Y75233D01*
X332598Y74941D01*
X332305Y74502D01*
X332202Y73985D01*
Y73826D01*
X334500D01*
Y75336D01*
D02*
G37*
G36*
X293000D02*
X292053D01*
X291536Y75233D01*
X291098Y74941D01*
X290805Y74502D01*
X290702Y73985D01*
Y73826D01*
X293000D01*
Y75336D01*
D02*
G37*
G36*
X252900D02*
X251953D01*
X251436Y75233D01*
X250998Y74941D01*
X250705Y74502D01*
X250602Y73985D01*
Y73826D01*
X252900D01*
Y75336D01*
D02*
G37*
G36*
X209400D02*
X208453D01*
X207936Y75233D01*
X207498Y74941D01*
X207205Y74502D01*
X207102Y73985D01*
Y73826D01*
X209400D01*
Y75336D01*
D02*
G37*
G36*
X376700D02*
X375753D01*
X375236Y75233D01*
X374798Y74941D01*
X374505Y74502D01*
X374402Y73985D01*
Y73826D01*
X376700D01*
Y75336D01*
D02*
G37*
G36*
X379998Y72826D02*
X377700D01*
Y71316D01*
X378647D01*
X379164Y71419D01*
X379602Y71711D01*
X379895Y72150D01*
X379998Y72667D01*
Y72826D01*
D02*
G37*
G36*
X376700D02*
X374402D01*
Y72667D01*
X374505Y72150D01*
X374798Y71711D01*
X375236Y71419D01*
X375753Y71316D01*
X376700D01*
Y72826D01*
D02*
G37*
G36*
X337798D02*
X335500D01*
Y71316D01*
X336447D01*
X336964Y71419D01*
X337402Y71711D01*
X337695Y72150D01*
X337798Y72667D01*
Y72826D01*
D02*
G37*
G36*
X334500D02*
X332202D01*
Y72667D01*
X332305Y72150D01*
X332598Y71711D01*
X333036Y71419D01*
X333553Y71316D01*
X334500D01*
Y72826D01*
D02*
G37*
G36*
X296298D02*
X294000D01*
Y71316D01*
X294947D01*
X295464Y71419D01*
X295902Y71711D01*
X296195Y72150D01*
X296298Y72667D01*
Y72826D01*
D02*
G37*
G36*
X293000D02*
X290702D01*
Y72667D01*
X290805Y72150D01*
X291098Y71711D01*
X291536Y71419D01*
X292053Y71316D01*
X293000D01*
Y72826D01*
D02*
G37*
G36*
X256198D02*
X253900D01*
Y71316D01*
X254847D01*
X255364Y71419D01*
X255802Y71711D01*
X256095Y72150D01*
X256198Y72667D01*
Y72826D01*
D02*
G37*
G36*
X252900D02*
X250602D01*
Y72667D01*
X250705Y72150D01*
X250998Y71711D01*
X251436Y71419D01*
X251953Y71316D01*
X252900D01*
Y72826D01*
D02*
G37*
G36*
X212698D02*
X210400D01*
Y71316D01*
X211347D01*
X211864Y71419D01*
X212302Y71711D01*
X212595Y72150D01*
X212698Y72667D01*
Y72826D01*
D02*
G37*
G36*
X209400D02*
X207102D01*
Y72667D01*
X207205Y72150D01*
X207498Y71711D01*
X207936Y71419D01*
X208453Y71316D01*
X209400D01*
Y72826D01*
D02*
G37*
G36*
X264174Y65370D02*
X263385D01*
X262655Y65068D01*
X262503Y64915D01*
X260538D01*
X260533Y64923D01*
X260050Y65246D01*
X259480Y65359D01*
X257607D01*
X257037Y65246D01*
X256553Y64923D01*
X256230Y64440D01*
X256117Y63870D01*
Y61327D01*
X256230Y60757D01*
X256553Y60274D01*
X257037Y59951D01*
X257607Y59838D01*
X259480D01*
X260050Y59951D01*
X260533Y60274D01*
X260856Y60757D01*
X260970Y61327D01*
Y61857D01*
X262503D01*
X262655Y61704D01*
X263385Y61402D01*
X264174D01*
X264903Y61704D01*
X265462Y62262D01*
X265764Y62991D01*
Y63780D01*
X265462Y64510D01*
X264903Y65068D01*
X264174Y65370D01*
D02*
G37*
G36*
X373102Y66934D02*
X372665D01*
Y64673D01*
X374592D01*
Y65444D01*
X374478Y66014D01*
X374155Y66498D01*
X373672Y66821D01*
X373102Y66934D01*
D02*
G37*
G36*
X371665D02*
X371229D01*
X370659Y66821D01*
X370176Y66498D01*
X369852Y66014D01*
X369739Y65444D01*
Y64673D01*
X371665D01*
Y66934D01*
D02*
G37*
G36*
X331763Y66147D02*
X331327D01*
Y63886D01*
X333253D01*
Y64657D01*
X333140Y65227D01*
X332817Y65710D01*
X332333Y66033D01*
X331763Y66147D01*
D02*
G37*
G36*
X330327D02*
X329890D01*
X329320Y66033D01*
X328837Y65710D01*
X328514Y65227D01*
X328400Y64657D01*
Y63886D01*
X330327D01*
Y66147D01*
D02*
G37*
G36*
X292787D02*
X292350D01*
Y63886D01*
X294277D01*
Y64657D01*
X294163Y65227D01*
X293840Y65710D01*
X293357Y66033D01*
X292787Y66147D01*
D02*
G37*
G36*
X291350D02*
X290914D01*
X290344Y66033D01*
X289861Y65710D01*
X289538Y65227D01*
X289424Y64657D01*
Y63886D01*
X291350D01*
Y66147D01*
D02*
G37*
G36*
X211291Y65753D02*
X210854D01*
Y63492D01*
X212781D01*
Y64263D01*
X212667Y64833D01*
X212344Y65317D01*
X211861Y65640D01*
X211291Y65753D01*
D02*
G37*
G36*
X209854D02*
X209418D01*
X208848Y65640D01*
X208364Y65317D01*
X208042Y64833D01*
X207928Y64263D01*
Y63492D01*
X209854D01*
Y65753D01*
D02*
G37*
G36*
X253417Y65359D02*
X252980D01*
Y63099D01*
X254907D01*
Y63870D01*
X254793Y64440D01*
X254470Y64923D01*
X253987Y65246D01*
X253417Y65359D01*
D02*
G37*
G36*
X251980D02*
X251544D01*
X250974Y65246D01*
X250490Y64923D01*
X250167Y64440D01*
X250054Y63870D01*
Y63099D01*
X251980D01*
Y65359D01*
D02*
G37*
G36*
X379165Y66934D02*
X377292D01*
X376722Y66821D01*
X376238Y66498D01*
X375916Y66014D01*
X375802Y65444D01*
Y62902D01*
X375916Y62332D01*
X376238Y61849D01*
X376722Y61526D01*
X377292Y61412D01*
X379165D01*
X379735Y61526D01*
X380218Y61849D01*
X380541Y62332D01*
X380603Y62644D01*
X382188D01*
X382341Y62491D01*
X383070Y62189D01*
X383859D01*
X384589Y62491D01*
X385147Y63049D01*
X385449Y63779D01*
Y64568D01*
X385147Y65297D01*
X384589Y65855D01*
X383859Y66158D01*
X383070D01*
X382341Y65855D01*
X382188Y65703D01*
X380603D01*
X380541Y66014D01*
X380218Y66498D01*
X379735Y66821D01*
X379165Y66934D01*
D02*
G37*
G36*
X337826Y66147D02*
X335953D01*
X335383Y66033D01*
X334900Y65710D01*
X334577Y65227D01*
X334464Y64657D01*
Y62115D01*
X334577Y61545D01*
X334900Y61061D01*
X335383Y60738D01*
X335953Y60625D01*
X337826D01*
X338396Y60738D01*
X338880Y61061D01*
X339203Y61545D01*
X339316Y62115D01*
Y62250D01*
X342424D01*
X342577Y62097D01*
X343306Y61795D01*
X344095D01*
X344825Y62097D01*
X345383Y62656D01*
X345685Y63385D01*
Y64174D01*
X345383Y64903D01*
X344825Y65462D01*
X344095Y65764D01*
X343306D01*
X342577Y65462D01*
X342424Y65309D01*
X339148D01*
X338880Y65710D01*
X338396Y66033D01*
X337826Y66147D01*
D02*
G37*
G36*
X298850D02*
X296977D01*
X296407Y66033D01*
X295923Y65710D01*
X295601Y65227D01*
X295487Y64657D01*
Y62115D01*
X295601Y61545D01*
X295923Y61061D01*
X296407Y60738D01*
X296977Y60625D01*
X298850D01*
X299420Y60738D01*
X299903Y61061D01*
X300226Y61545D01*
X300340Y62115D01*
Y62250D01*
X302267D01*
X302419Y62097D01*
X303149Y61795D01*
X303938D01*
X304667Y62097D01*
X305225Y62656D01*
X305528Y63385D01*
Y64174D01*
X305225Y64903D01*
X304667Y65462D01*
X303938Y65764D01*
X303149D01*
X302419Y65462D01*
X302267Y65309D01*
X300171D01*
X299903Y65710D01*
X299420Y66033D01*
X298850Y66147D01*
D02*
G37*
G36*
X374592Y63673D02*
X372665D01*
Y61412D01*
X373102D01*
X373672Y61526D01*
X374155Y61849D01*
X374478Y62332D01*
X374592Y62902D01*
Y63673D01*
D02*
G37*
G36*
X371665D02*
X369739D01*
Y62902D01*
X369852Y62332D01*
X370176Y61849D01*
X370659Y61526D01*
X371229Y61412D01*
X371665D01*
Y63673D01*
D02*
G37*
G36*
X217354Y65753D02*
X215481D01*
X214911Y65640D01*
X214427Y65317D01*
X214105Y64833D01*
X213991Y64263D01*
Y61721D01*
X214105Y61151D01*
X214427Y60668D01*
X214911Y60345D01*
X215481Y60231D01*
X217354D01*
X217924Y60345D01*
X218407Y60668D01*
X218730Y61151D01*
X218792Y61463D01*
X221952D01*
X222104Y61310D01*
X222834Y61008D01*
X223623D01*
X224352Y61310D01*
X224910Y61868D01*
X225213Y62597D01*
Y63387D01*
X224910Y64116D01*
X224352Y64674D01*
X223623Y64976D01*
X222834D01*
X222104Y64674D01*
X221952Y64522D01*
X218792D01*
X218730Y64833D01*
X218407Y65317D01*
X217924Y65640D01*
X217354Y65753D01*
D02*
G37*
G36*
X333253Y62886D02*
X331327D01*
Y60625D01*
X331763D01*
X332333Y60738D01*
X332817Y61061D01*
X333140Y61545D01*
X333253Y62115D01*
Y62886D01*
D02*
G37*
G36*
X330327D02*
X328400D01*
Y62115D01*
X328514Y61545D01*
X328837Y61061D01*
X329320Y60738D01*
X329890Y60625D01*
X330327D01*
Y62886D01*
D02*
G37*
G36*
X294277D02*
X292350D01*
Y60625D01*
X292787D01*
X293357Y60738D01*
X293840Y61061D01*
X294163Y61545D01*
X294277Y62115D01*
Y62886D01*
D02*
G37*
G36*
X291350D02*
X289424D01*
Y62115D01*
X289538Y61545D01*
X289861Y61061D01*
X290344Y60738D01*
X290914Y60625D01*
X291350D01*
Y62886D01*
D02*
G37*
G36*
X212781Y62492D02*
X210854D01*
Y60231D01*
X211291D01*
X211861Y60345D01*
X212344Y60668D01*
X212667Y61151D01*
X212781Y61721D01*
Y62492D01*
D02*
G37*
G36*
X209854D02*
X207928D01*
Y61721D01*
X208042Y61151D01*
X208364Y60668D01*
X208848Y60345D01*
X209418Y60231D01*
X209854D01*
Y62492D01*
D02*
G37*
G36*
X254907Y62098D02*
X252980D01*
Y59838D01*
X253417D01*
X253987Y59951D01*
X254470Y60274D01*
X254793Y60757D01*
X254907Y61327D01*
Y62098D01*
D02*
G37*
G36*
X251980D02*
X250054D01*
Y61327D01*
X250167Y60757D01*
X250490Y60274D01*
X250974Y59951D01*
X251544Y59838D01*
X251980D01*
Y62098D01*
D02*
G37*
G36*
X394027Y44000D02*
X394000D01*
Y40500D01*
X397500D01*
Y40527D01*
X397227Y41544D01*
X396701Y42456D01*
X395956Y43201D01*
X395044Y43727D01*
X394027Y44000D01*
D02*
G37*
G36*
X354027D02*
X354000D01*
Y40500D01*
X357500D01*
Y40527D01*
X357227Y41544D01*
X356701Y42456D01*
X355956Y43201D01*
X355044Y43727D01*
X354027Y44000D01*
D02*
G37*
G36*
X314027D02*
X314000D01*
Y40500D01*
X317500D01*
Y40527D01*
X317227Y41544D01*
X316701Y42456D01*
X315956Y43201D01*
X315044Y43727D01*
X314027Y44000D01*
D02*
G37*
G36*
X274027D02*
X274000D01*
Y40500D01*
X277500D01*
Y40527D01*
X277227Y41544D01*
X276701Y42456D01*
X275956Y43201D01*
X275044Y43727D01*
X274027Y44000D01*
D02*
G37*
G36*
X234027D02*
X234000D01*
Y40500D01*
X237500D01*
Y40527D01*
X237227Y41544D01*
X236701Y42456D01*
X235956Y43201D01*
X235044Y43727D01*
X234027Y44000D01*
D02*
G37*
G36*
X393000D02*
X392973D01*
X391956Y43727D01*
X391044Y43201D01*
X390299Y42456D01*
X389773Y41544D01*
X389500Y40527D01*
Y40500D01*
X393000D01*
Y44000D01*
D02*
G37*
G36*
X353000D02*
X352973D01*
X351956Y43727D01*
X351044Y43201D01*
X350299Y42456D01*
X349773Y41544D01*
X349500Y40527D01*
Y40500D01*
X353000D01*
Y44000D01*
D02*
G37*
G36*
X313000D02*
X312973D01*
X311956Y43727D01*
X311044Y43201D01*
X310299Y42456D01*
X309773Y41544D01*
X309500Y40527D01*
Y40500D01*
X313000D01*
Y44000D01*
D02*
G37*
G36*
X273000D02*
X272973D01*
X271956Y43727D01*
X271044Y43201D01*
X270299Y42456D01*
X269773Y41544D01*
X269500Y40527D01*
Y40500D01*
X273000D01*
Y44000D01*
D02*
G37*
G36*
X233000D02*
X232973D01*
X231956Y43727D01*
X231044Y43201D01*
X230299Y42456D01*
X229773Y41544D01*
X229500Y40527D01*
Y40500D01*
X233000D01*
Y44000D01*
D02*
G37*
G36*
X397500Y39500D02*
X394000D01*
Y36000D01*
X394027D01*
X395044Y36273D01*
X395956Y36799D01*
X396701Y37544D01*
X397227Y38456D01*
X397500Y39473D01*
Y39500D01*
D02*
G37*
G36*
X393000D02*
X389500D01*
Y39473D01*
X389773Y38456D01*
X390299Y37544D01*
X391044Y36799D01*
X391956Y36273D01*
X392973Y36000D01*
X393000D01*
Y39500D01*
D02*
G37*
G36*
X384027Y44000D02*
X382973D01*
X381956Y43727D01*
X381044Y43201D01*
X380299Y42456D01*
X379773Y41544D01*
X379500Y40527D01*
Y39473D01*
X379773Y38456D01*
X380299Y37544D01*
X381044Y36799D01*
X381956Y36273D01*
X382973Y36000D01*
X384027D01*
X385044Y36273D01*
X385956Y36799D01*
X386701Y37544D01*
X387227Y38456D01*
X387500Y39473D01*
Y40527D01*
X387227Y41544D01*
X386701Y42456D01*
X385956Y43201D01*
X385044Y43727D01*
X384027Y44000D01*
D02*
G37*
G36*
X357500Y39500D02*
X354000D01*
Y36000D01*
X354027D01*
X355044Y36273D01*
X355956Y36799D01*
X356701Y37544D01*
X357227Y38456D01*
X357500Y39473D01*
Y39500D01*
D02*
G37*
G36*
X353000D02*
X349500D01*
Y39473D01*
X349773Y38456D01*
X350299Y37544D01*
X351044Y36799D01*
X351956Y36273D01*
X352973Y36000D01*
X353000D01*
Y39500D01*
D02*
G37*
G36*
X344027Y44000D02*
X342973D01*
X341956Y43727D01*
X341044Y43201D01*
X340299Y42456D01*
X339773Y41544D01*
X339500Y40527D01*
Y39473D01*
X339773Y38456D01*
X340299Y37544D01*
X341044Y36799D01*
X341956Y36273D01*
X342973Y36000D01*
X344027D01*
X345044Y36273D01*
X345956Y36799D01*
X346701Y37544D01*
X347227Y38456D01*
X347500Y39473D01*
Y40527D01*
X347227Y41544D01*
X346701Y42456D01*
X345956Y43201D01*
X345044Y43727D01*
X344027Y44000D01*
D02*
G37*
G36*
X317500Y39500D02*
X314000D01*
Y36000D01*
X314027D01*
X315044Y36273D01*
X315956Y36799D01*
X316701Y37544D01*
X317227Y38456D01*
X317500Y39473D01*
Y39500D01*
D02*
G37*
G36*
X313000D02*
X309500D01*
Y39473D01*
X309773Y38456D01*
X310299Y37544D01*
X311044Y36799D01*
X311956Y36273D01*
X312973Y36000D01*
X313000D01*
Y39500D01*
D02*
G37*
G36*
X304027Y44000D02*
X302973D01*
X301956Y43727D01*
X301044Y43201D01*
X300299Y42456D01*
X299773Y41544D01*
X299500Y40527D01*
Y39473D01*
X299773Y38456D01*
X300299Y37544D01*
X301044Y36799D01*
X301956Y36273D01*
X302973Y36000D01*
X304027D01*
X305044Y36273D01*
X305956Y36799D01*
X306701Y37544D01*
X307227Y38456D01*
X307500Y39473D01*
Y40527D01*
X307227Y41544D01*
X306701Y42456D01*
X305956Y43201D01*
X305044Y43727D01*
X304027Y44000D01*
D02*
G37*
G36*
X277500Y39500D02*
X274000D01*
Y36000D01*
X274027D01*
X275044Y36273D01*
X275956Y36799D01*
X276701Y37544D01*
X277227Y38456D01*
X277500Y39473D01*
Y39500D01*
D02*
G37*
G36*
X273000D02*
X269500D01*
Y39473D01*
X269773Y38456D01*
X270299Y37544D01*
X271044Y36799D01*
X271956Y36273D01*
X272973Y36000D01*
X273000D01*
Y39500D01*
D02*
G37*
G36*
X264027Y44000D02*
X262973D01*
X261956Y43727D01*
X261044Y43201D01*
X260299Y42456D01*
X259773Y41544D01*
X259500Y40527D01*
Y39473D01*
X259773Y38456D01*
X260299Y37544D01*
X261044Y36799D01*
X261956Y36273D01*
X262973Y36000D01*
X264027D01*
X265044Y36273D01*
X265956Y36799D01*
X266701Y37544D01*
X267227Y38456D01*
X267500Y39473D01*
Y40527D01*
X267227Y41544D01*
X266701Y42456D01*
X265956Y43201D01*
X265044Y43727D01*
X264027Y44000D01*
D02*
G37*
G36*
X237500Y39500D02*
X234000D01*
Y36000D01*
X234027D01*
X235044Y36273D01*
X235956Y36799D01*
X236701Y37544D01*
X237227Y38456D01*
X237500Y39473D01*
Y39500D01*
D02*
G37*
G36*
X233000D02*
X229500D01*
Y39473D01*
X229773Y38456D01*
X230299Y37544D01*
X231044Y36799D01*
X231956Y36273D01*
X232973Y36000D01*
X233000D01*
Y39500D01*
D02*
G37*
G36*
X224027Y44000D02*
X222973D01*
X221956Y43727D01*
X221044Y43201D01*
X220299Y42456D01*
X219773Y41544D01*
X219500Y40527D01*
Y39473D01*
X219773Y38456D01*
X220299Y37544D01*
X221044Y36799D01*
X221956Y36273D01*
X222973Y36000D01*
X224027D01*
X225044Y36273D01*
X225956Y36799D01*
X226701Y37544D01*
X227227Y38456D01*
X227500Y39473D01*
Y40527D01*
X227227Y41544D01*
X226701Y42456D01*
X225956Y43201D01*
X225044Y43727D01*
X224027Y44000D01*
D02*
G37*
G36*
X574156Y37827D02*
X573725D01*
Y26500D01*
X585052D01*
Y26931D01*
X584761Y28769D01*
X584186Y30540D01*
X583340Y32199D01*
X582246Y33705D01*
X580930Y35021D01*
X579424Y36115D01*
X577765Y36960D01*
X575995Y37536D01*
X574156Y37827D01*
D02*
G37*
G36*
X572725D02*
X572294D01*
X570456Y37536D01*
X568685Y36960D01*
X567027Y36115D01*
X565521Y35021D01*
X564204Y33705D01*
X563110Y32199D01*
X562265Y30540D01*
X561690Y28769D01*
X561398Y26931D01*
Y26500D01*
X572725D01*
Y37827D01*
D02*
G37*
G36*
X26931D02*
X26500D01*
Y26500D01*
X37827D01*
Y26931D01*
X37536Y28769D01*
X36960Y30540D01*
X36115Y32199D01*
X35021Y33705D01*
X33705Y35021D01*
X32199Y36115D01*
X30540Y36960D01*
X28769Y37536D01*
X26931Y37827D01*
D02*
G37*
G36*
X25500D02*
X25069D01*
X23231Y37536D01*
X21460Y36960D01*
X19801Y36115D01*
X18295Y35021D01*
X16979Y33705D01*
X15885Y32199D01*
X15040Y30540D01*
X14464Y28769D01*
X14173Y26931D01*
Y26500D01*
X25500D01*
Y37827D01*
D02*
G37*
G36*
X585052Y25500D02*
X573725D01*
Y14173D01*
X574156D01*
X575995Y14464D01*
X577765Y15040D01*
X579424Y15885D01*
X580930Y16979D01*
X582246Y18295D01*
X583340Y19801D01*
X584186Y21460D01*
X584761Y23231D01*
X585052Y25069D01*
Y25500D01*
D02*
G37*
G36*
X572725D02*
X561398D01*
Y25069D01*
X561690Y23231D01*
X562265Y21460D01*
X563110Y19801D01*
X564204Y18295D01*
X565521Y16979D01*
X567027Y15885D01*
X568685Y15040D01*
X570456Y14464D01*
X572294Y14173D01*
X572725D01*
Y25500D01*
D02*
G37*
G36*
X37827D02*
X26500D01*
Y14173D01*
X26931D01*
X28769Y14464D01*
X30540Y15040D01*
X32199Y15885D01*
X33705Y16979D01*
X35021Y18295D01*
X36115Y19801D01*
X36960Y21460D01*
X37536Y23231D01*
X37827Y25069D01*
Y25500D01*
D02*
G37*
G36*
X25500D02*
X14173D01*
Y25069D01*
X14464Y23231D01*
X15040Y21460D01*
X15885Y19801D01*
X16979Y18295D01*
X18295Y16979D01*
X19801Y15885D01*
X21460Y15040D01*
X23231Y14464D01*
X25069Y14173D01*
X25500D01*
Y25500D01*
D02*
G37*
%LPD*%
D15*
X230984Y309055D02*
X231102Y309173D01*
Y362087D01*
X231221Y362205D01*
X221220Y328268D02*
Y362205D01*
X117088Y189135D02*
X117144Y189079D01*
Y157263D02*
Y165979D01*
X117088Y166035D02*
X117144Y165979D01*
X431654Y327874D02*
Y361811D01*
X510819Y316600D02*
X511500Y315919D01*
X509335Y316600D02*
X510819D01*
X511500Y307281D02*
Y311915D01*
Y315919D01*
X499100Y316500D02*
X502100D01*
X510819Y306600D02*
X511500Y307281D01*
X511185Y311600D02*
X511500Y311915D01*
X565374Y99900D02*
X569100D01*
X565274Y100000D02*
X565374Y99900D01*
X509335Y311600D02*
X511185D01*
X498700Y310900D02*
X501029D01*
X509335Y306600D02*
X510819D01*
X499000Y316600D02*
X499100Y316500D01*
X490647Y284184D02*
X490726Y284263D01*
X490692Y284258D02*
X490698Y284263D01*
X490568Y277953D02*
X490647Y278031D01*
Y284184D01*
X488189Y284252D02*
X488195Y284258D01*
X490692D01*
X569100Y99900D02*
X569200Y99800D01*
X564358Y86600D02*
X569300D01*
X563874Y87084D02*
X564358Y86600D01*
X563874Y87084D02*
Y87100D01*
X395500Y67200D02*
Y71771D01*
X377150Y73276D02*
X377200Y73326D01*
X377150Y69550D02*
Y73276D01*
X354500Y66600D02*
Y71771D01*
X335000Y73326D02*
X335100Y73226D01*
Y69100D02*
Y73226D01*
X377100Y69500D02*
X377150Y69550D01*
X375406Y69500D02*
X377100D01*
X372613Y66707D02*
X375406Y69500D01*
X372441Y64173D02*
X372613Y64345D01*
Y66707D01*
X335100Y69100D02*
X335200Y69000D01*
X331697Y64256D02*
Y65497D01*
X293450Y73276D02*
X293500Y73326D01*
X253400D02*
X253550Y73176D01*
X209900Y73326D02*
Y73426D01*
X315300Y71771D02*
X315350Y71721D01*
X293450Y68450D02*
Y73276D01*
X315350Y66450D02*
Y71721D01*
X331697Y65497D02*
X335200Y69000D01*
X293400Y68400D02*
X293450Y68450D01*
X272650Y71721D02*
X272700Y71771D01*
X272650Y67350D02*
Y71721D01*
X330827Y63386D02*
X331697Y64256D01*
X315350Y66450D02*
X315400Y66400D01*
X291732Y66732D02*
X293400Y68400D01*
X291732Y63330D02*
Y66732D01*
X253550Y68750D02*
X253700Y68600D01*
X253550Y68750D02*
Y73176D01*
X252362Y67262D02*
X253700Y68600D01*
X229863Y72233D02*
X229911Y72185D01*
X209900Y68300D02*
Y73326D01*
X229911Y67334D02*
Y72185D01*
X272600Y67300D02*
X272650Y67350D01*
X252362Y63406D02*
Y67262D01*
X229911Y67334D02*
X229921Y67323D01*
X209900Y63446D02*
X210354Y62992D01*
X209900Y63446D02*
Y68300D01*
X431772Y308386D02*
Y327756D01*
Y308386D02*
X431890Y308268D01*
X431654Y327874D02*
X431772Y327756D01*
X421654Y327874D02*
Y361811D01*
X121653Y244325D02*
Y278717D01*
X109191Y291179D02*
X121653Y278717D01*
X117201Y239872D02*
X121653Y244325D01*
X490726Y294013D02*
Y294800D01*
X488189Y291476D02*
X490726Y294013D01*
X488189Y291339D02*
Y291476D01*
X496474Y294774D02*
X496553Y294695D01*
Y278032D02*
Y294695D01*
Y278032D02*
X496631Y277953D01*
X102722Y313813D02*
X109191Y307344D01*
Y291179D02*
Y307344D01*
X93067Y314019D02*
X99191Y307895D01*
Y288724D02*
Y307895D01*
X336890Y63780D02*
X343701D01*
X117201Y237707D02*
Y239872D01*
X99191Y288724D02*
X117200Y270715D01*
X42300Y261637D02*
Y262100D01*
Y261637D02*
X46457Y257480D01*
X68052D01*
X85471Y240061D01*
X106494D01*
X107358Y239197D01*
Y237707D02*
Y239197D01*
X49100Y277100D02*
X91980D01*
X104480Y264601D01*
X106494D01*
X107358Y263737D01*
Y261723D02*
Y263737D01*
Y221423D02*
Y223588D01*
X103946Y227000D02*
X107358Y223588D01*
X49100Y227000D02*
X103946D01*
X49011Y207489D02*
X83257D01*
X107358Y183388D01*
X49700Y197100D02*
X69630D01*
X107358Y159372D01*
X127042Y157207D02*
X151649D01*
X227341Y81515D01*
Y80629D02*
Y81515D01*
X127042Y181223D02*
X169547D01*
X269145Y81625D01*
X172090Y221423D02*
X313013Y80500D01*
X127042Y221423D02*
X172090D01*
X194863Y237707D02*
X350945Y81625D01*
X127042Y237707D02*
X194863D01*
X211847Y261723D02*
X391945Y81625D01*
X127042Y261723D02*
X211847D01*
X379803Y64173D02*
X379803Y64173D01*
X383465D01*
X303543Y63780D02*
X303543Y63779D01*
X299488Y63780D02*
X299488Y63780D01*
X303543D01*
X259724Y63386D02*
X259724Y63386D01*
X263779D01*
X263779Y63386D01*
X117201Y221423D02*
X117294Y221516D01*
Y228741D01*
X117388Y228835D01*
X233516Y64416D02*
X235222Y66122D01*
X228484Y64416D02*
X233516D01*
X226189Y66711D02*
X228484Y64416D01*
X226189Y69578D02*
X227341Y70730D01*
Y71771D01*
X226189Y66711D02*
Y69578D01*
X537500Y86900D02*
X542650D01*
X542750Y87000D01*
X117144Y157263D02*
X117201Y157207D01*
X117144Y181279D02*
X117201Y181223D01*
X117144Y181279D02*
Y189079D01*
X524000Y308482D02*
Y309100D01*
Y308482D02*
X530882Y301600D01*
X532957D01*
X524000Y309100D02*
X526500Y306600D01*
X532957D01*
X526191Y311909D02*
X530882Y316600D01*
X532957D01*
X526500Y311600D02*
X532957D01*
X343701Y63780D02*
X343701Y63779D01*
X383465Y64173D02*
X383465Y64173D01*
X223228Y62992D02*
X223228Y62992D01*
X216417Y62992D02*
X223228D01*
X216417Y62992D02*
X216417Y62992D01*
X399200Y86000D02*
X401300D01*
X363400Y79074D02*
Y84000D01*
X359200Y85500D02*
X361900D01*
X363400Y84000D01*
X357624Y85315D02*
X359015D01*
X354610Y82301D02*
X357624Y85315D01*
X359015D02*
X359200Y85500D01*
X315410Y80739D02*
Y83910D01*
X317215Y85715D01*
X319715D01*
X319900Y85900D02*
X323500D01*
X324800Y84600D01*
Y79074D02*
Y84600D01*
X319715Y85715D02*
X319900Y85900D01*
X274315Y85115D02*
X276415D01*
X272810Y83610D02*
X274315Y85115D01*
X272810Y80739D02*
Y83610D01*
X276415Y85115D02*
X276600Y85300D01*
X278685Y85115D02*
X281400Y82400D01*
X276785Y85115D02*
X278685D01*
X281400Y79074D02*
Y82400D01*
X276600Y85300D02*
X276785Y85115D01*
X403200Y79074D02*
Y84100D01*
X401300Y86000D02*
X403200Y84100D01*
X397400Y86000D02*
X399200D01*
X395610Y80739D02*
Y84210D01*
X397400Y86000D01*
X45657Y201143D02*
X49700Y197100D01*
X45157Y223057D02*
X49100Y227000D01*
X45382Y273382D02*
X49100Y277100D01*
X42300Y272100D02*
X43653D01*
X44935Y273382D02*
X45382D01*
X43653Y272100D02*
X44935Y273382D01*
X42300Y202100D02*
X43257Y201143D01*
X45657D01*
X42300Y212100D02*
X43257Y211143D01*
X45357D01*
X49011Y207489D01*
X42300Y222100D02*
X43257Y223057D01*
X45157D01*
X237213Y73326D02*
X238000D01*
X235658Y71771D02*
X237213Y73326D01*
X232459Y71771D02*
X235658D01*
X117200Y261723D02*
X117201Y261723D01*
X117200Y261723D02*
Y270715D01*
X117200Y270715D02*
X117200Y270715D01*
X117201Y237707D02*
X117244Y237750D01*
X391945Y81625D02*
X392675D01*
X392941Y81359D01*
Y80629D02*
Y81359D01*
X350945Y81625D02*
X351675D01*
X351941Y81359D01*
Y80629D02*
Y81359D01*
X312870Y80500D02*
X313013D01*
X312741Y80629D02*
X312870Y80500D01*
X269145Y81625D02*
X269875D01*
X270141Y81359D01*
Y80629D02*
Y81359D01*
X232349Y78049D02*
Y81019D01*
X219750Y75800D02*
X230100D01*
X232349Y78049D01*
X218575Y74125D02*
Y74625D01*
X218000Y73550D02*
X218575Y74125D01*
X217500Y73550D02*
X218000D01*
X218575Y74625D02*
X219750Y75800D01*
X235222Y66122D02*
X243500Y57844D01*
X232349Y81019D02*
X232459Y81129D01*
X107358Y181223D02*
Y183388D01*
Y157207D02*
Y159372D01*
X398059Y70885D02*
Y71771D01*
Y70885D02*
X403500Y65444D01*
Y40000D02*
Y65444D01*
X357059Y70885D02*
Y71771D01*
Y70885D02*
X363500Y64444D01*
Y40000D02*
Y64444D01*
X317859Y70885D02*
Y71771D01*
Y70885D02*
X323500Y65244D01*
Y40000D02*
Y65244D01*
X275259Y70885D02*
Y71771D01*
Y70885D02*
X283500Y62644D01*
Y40000D02*
Y62644D01*
X395500Y80629D02*
X395610Y80739D01*
X354610D02*
Y82301D01*
X354500Y80629D02*
X354610Y80739D01*
X403084Y73443D02*
X403200Y73326D01*
X397949Y73443D02*
X403084D01*
X397949Y71881D02*
X398059Y71771D01*
X397949Y71881D02*
Y73443D01*
X396447Y74944D02*
X397949Y73443D01*
X394552Y74944D02*
X396447D01*
X393051Y73443D02*
X394552Y74944D01*
X393051Y71881D02*
Y73443D01*
X392941Y71771D02*
X393051Y71881D01*
X392000Y77000D02*
X395992D01*
X397949Y78957D01*
X388050Y73050D02*
X392000Y77000D01*
X385000Y73050D02*
X388050D01*
X397949Y80519D02*
X398059Y80629D01*
X397949Y78957D02*
Y80519D01*
X384724Y79074D02*
X385000Y79350D01*
X377200Y79074D02*
X384724D01*
X356949Y73443D02*
X357066Y73326D01*
X363400D01*
X356949Y80519D02*
X357059Y80629D01*
X356949Y78957D02*
Y80519D01*
X354936Y76944D02*
X356949Y78957D01*
X352724Y76944D02*
X354936D01*
X348830Y73050D02*
X352724Y76944D01*
X343200Y73050D02*
X348830D01*
X351941Y71771D02*
X352051Y71881D01*
Y73443D01*
X353553Y74944D01*
X355448D01*
X356949Y73443D01*
Y71881D02*
Y73443D01*
Y71881D02*
X357059Y71771D01*
X342924Y79074D02*
X343200Y79350D01*
X335000Y79074D02*
X342924D01*
X317749Y73443D02*
X317866Y73326D01*
X324800D01*
X315300Y80629D02*
X315410Y80739D01*
X308050Y73050D02*
X311944Y76944D01*
X315736D01*
X303200Y73050D02*
X308050D01*
X317749Y71881D02*
X317859Y71771D01*
X317749Y71881D02*
Y73443D01*
X316248Y74944D02*
X317749Y73443D01*
X314352Y74944D02*
X316248D01*
X313013Y73604D02*
X314352Y74944D01*
X313013Y73335D02*
Y73604D01*
X312851Y73173D02*
X313013Y73335D01*
X312851Y71881D02*
Y73173D01*
X312741Y71771D02*
X312851Y71881D01*
X315736Y76944D02*
X317749Y78957D01*
Y80519D02*
X317859Y80629D01*
X317749Y78957D02*
Y80519D01*
X302924Y79074D02*
X303200Y79350D01*
X293500Y79074D02*
X302924D01*
X403500Y34528D02*
Y40000D01*
X397386Y28414D02*
X403500Y34528D01*
X397300Y28500D02*
X397386Y28414D01*
X379400Y28500D02*
X397300D01*
X373500Y34400D02*
X379400Y28500D01*
X373500Y34400D02*
Y40000D01*
X363500Y31728D02*
Y40000D01*
X360586Y28814D02*
X363500Y31728D01*
X360500Y28900D02*
X360586Y28814D01*
X340300Y28900D02*
X360500D01*
X333700Y35500D02*
X340300Y28900D01*
X333700Y35500D02*
Y39800D01*
X333500Y40000D02*
X333700Y39800D01*
X323500Y33600D02*
Y40000D01*
X318700Y28800D02*
X323500Y33600D01*
X298100Y28800D02*
X318700D01*
X293500Y33400D02*
X298100Y28800D01*
X293500Y33400D02*
Y40000D01*
X262200Y31300D02*
X274800D01*
X283500Y40000D01*
X253500D02*
X262200Y31300D01*
X272700Y80629D02*
X272810Y80739D01*
X260024Y79074D02*
X260300Y79350D01*
X253400Y79074D02*
X260024D01*
X275149Y80519D02*
X275259Y80629D01*
X275149Y78957D02*
Y80519D01*
X273136Y76944D02*
X275149Y78957D01*
X264194Y76944D02*
X273136D01*
X260300Y73050D02*
X264194Y76944D01*
X281283Y73443D02*
X281400Y73326D01*
X275149Y73443D02*
X281283D01*
X275149Y71881D02*
X275259Y71771D01*
X275149Y71881D02*
Y73443D01*
X273647Y74944D02*
X275149Y73443D01*
X271753Y74944D02*
X273647D01*
X270251Y73443D02*
X271753Y74944D01*
X270251Y71881D02*
Y73443D01*
X270141Y71771D02*
X270251Y71881D01*
X209900Y79274D02*
X216924D01*
X217500Y79850D01*
X232459Y68885D02*
Y71271D01*
X229900Y81129D02*
X229950Y81179D01*
X238000Y79674D02*
Y82700D01*
X213500Y40000D02*
X213714Y39786D01*
Y36086D02*
X220200Y29600D01*
X236800D01*
X213714Y36086D02*
Y39786D01*
X243286Y36086D02*
Y39786D01*
X243500Y40000D01*
X236800Y29600D02*
X243286Y36086D01*
X243500Y40000D02*
Y57844D01*
X232459Y68885D02*
X235222Y66122D01*
X235400Y85300D02*
X238000Y82700D01*
X230000Y85300D02*
X235400D01*
X229950Y85250D02*
X230000Y85300D01*
X229950Y81179D02*
Y85250D01*
X496474Y294774D02*
X503200Y301500D01*
X510416D01*
X510516Y301600D01*
X532957D02*
X533107Y301750D01*
X542176D01*
X542326Y301900D01*
X548074D02*
Y302687D01*
X550687Y305300D01*
X571300D01*
X549150Y86900D02*
X558626D01*
X548850Y99800D02*
X549050Y100000D01*
X558626D01*
D21*
X437567Y309063D02*
D03*
X431819D02*
D03*
X370591Y309055D02*
D03*
X490726Y284263D02*
D03*
X565274Y100000D02*
D03*
X563874Y87100D02*
D03*
X303661Y309055D02*
D03*
X236732D02*
D03*
X230984D02*
D03*
X297913D02*
D03*
X364843D02*
D03*
X490726Y294800D02*
D03*
X496474Y284263D02*
D03*
X558126Y87100D02*
D03*
X496474Y294800D02*
D03*
X548074Y301900D02*
D03*
X542326D02*
D03*
X559526Y100000D02*
D03*
D22*
X511500Y311915D02*
D03*
D23*
X509335Y316600D02*
D03*
Y311600D02*
D03*
Y306600D02*
D03*
D24*
X443622Y308662D02*
D03*
X377047Y309055D02*
D03*
X490568Y277953D02*
D03*
X127677Y339764D02*
D03*
X150551Y339764D02*
D03*
X372165Y64173D02*
D03*
X310118Y309055D02*
D03*
X243189D02*
D03*
X330827Y63386D02*
D03*
X291850D02*
D03*
X252480Y62599D02*
D03*
X210354Y62992D02*
D03*
X144488Y339764D02*
D03*
X133740Y339764D02*
D03*
X249252Y309055D02*
D03*
X316181D02*
D03*
X383110D02*
D03*
X449685Y308662D02*
D03*
X297913Y63386D02*
D03*
X258543Y62599D02*
D03*
X496631Y277953D02*
D03*
X378228Y64173D02*
D03*
X216417Y62992D02*
D03*
X336890Y63386D02*
D03*
D25*
X374370Y299606D02*
D03*
X440945Y299213D02*
D03*
X121457Y332283D02*
D03*
X157165Y332283D02*
D03*
X307441Y299606D02*
D03*
X240512D02*
D03*
X132874Y332283D02*
D03*
X145748Y332283D02*
D03*
X251929Y299606D02*
D03*
X318858D02*
D03*
X385787D02*
D03*
X452362Y299213D02*
D03*
D26*
X395500Y71771D02*
D03*
X354500D02*
D03*
X315300D02*
D03*
X272700D02*
D03*
X229900D02*
D03*
X227341D02*
D03*
X232459D02*
D03*
X227341Y80629D02*
D03*
X229900D02*
D03*
X232459D02*
D03*
X392941Y71771D02*
D03*
X398059D02*
D03*
X392941Y80629D02*
D03*
X395500D02*
D03*
X398059D02*
D03*
X351941Y71771D02*
D03*
X357059D02*
D03*
X351941Y80629D02*
D03*
X354500D02*
D03*
X357059D02*
D03*
X270141Y71771D02*
D03*
X275259D02*
D03*
X270141Y80629D02*
D03*
X272700D02*
D03*
X275259D02*
D03*
X312741Y71771D02*
D03*
X317859D02*
D03*
X312741Y80629D02*
D03*
X315300D02*
D03*
X317859D02*
D03*
D27*
X377200Y73326D02*
D03*
X335000D02*
D03*
X209900D02*
D03*
X293500D02*
D03*
X253400D02*
D03*
X209900Y79074D02*
D03*
X238000Y73326D02*
D03*
Y79074D02*
D03*
X403200Y73326D02*
D03*
Y79074D02*
D03*
X377200D02*
D03*
X363400Y73326D02*
D03*
Y79074D02*
D03*
X335000D02*
D03*
X253400D02*
D03*
X281400Y73326D02*
D03*
Y79074D02*
D03*
X324800Y73326D02*
D03*
Y79074D02*
D03*
X293500D02*
D03*
D28*
X107358Y221423D02*
D03*
X127042D02*
D03*
X107358Y197407D02*
D03*
X117201D02*
D03*
X127042D02*
D03*
X117201Y221423D02*
D03*
X107358Y181223D02*
D03*
X127042D02*
D03*
X107358Y157207D02*
D03*
X127042D02*
D03*
X117201Y181223D02*
D03*
Y157207D02*
D03*
X107358Y261723D02*
D03*
X117201D02*
D03*
X127042D02*
D03*
X107358Y237707D02*
D03*
X117201D02*
D03*
X127042D02*
D03*
D29*
X542750Y87000D02*
D03*
X542550Y99800D02*
D03*
X548850D02*
D03*
X549050Y87000D02*
D03*
D30*
X343200Y73050D02*
D03*
Y79350D02*
D03*
X217500Y73050D02*
D03*
Y79350D02*
D03*
X385000Y73050D02*
D03*
Y79350D02*
D03*
X260300Y73050D02*
D03*
Y79350D02*
D03*
X303200Y73050D02*
D03*
Y79350D02*
D03*
D31*
X524000Y309100D02*
D03*
D32*
X532957Y316600D02*
D03*
Y311600D02*
D03*
Y306600D02*
D03*
Y301600D02*
D03*
D33*
X510516D02*
D03*
D50*
X441654Y327874D02*
D03*
X375079Y328268D02*
D03*
X241220D02*
D03*
X308150D02*
D03*
X431654Y327874D02*
D03*
X231221Y328268D02*
D03*
X298150D02*
D03*
X365079D02*
D03*
X318150D02*
D03*
X385079D02*
D03*
X451654Y327874D02*
D03*
X251220Y328268D02*
D03*
D58*
X221220D02*
D03*
X288150D02*
D03*
X355079D02*
D03*
X421654Y327874D02*
D03*
D60*
X308150Y336772D02*
D03*
X375079D02*
D03*
X441654Y336378D02*
D03*
X241220Y336772D02*
D03*
D66*
X297913Y309055D02*
X298031Y309173D01*
Y362087D01*
X298150Y362205D01*
X288150Y328268D02*
Y362205D01*
X355079Y328268D02*
Y362205D01*
X364961Y362087D02*
X365079Y362205D01*
X364961Y309173D02*
Y362087D01*
X364843Y309055D02*
X364961Y309173D01*
D67*
X134181Y339764D02*
Y353937D01*
Y336221D02*
Y339764D01*
X143894Y339764D02*
Y353937D01*
Y331890D02*
Y336221D01*
X134181Y332283D02*
Y336221D01*
X143894Y353937D02*
Y374356D01*
Y336221D02*
Y339764D01*
X134235Y312420D02*
Y320294D01*
X134181Y353937D02*
Y366040D01*
X134128Y374803D02*
Y376094D01*
X133947D02*
Y384803D01*
X143894Y312473D02*
Y331890D01*
X451968Y273622D02*
X486128Y239462D01*
X411772Y273622D02*
X451968D01*
X133947Y374803D02*
Y376094D01*
X486128Y198414D02*
Y239462D01*
X452362Y273228D02*
Y299213D01*
X388386Y297008D02*
X411772Y273622D01*
X387185Y297008D02*
X388386D01*
X385787Y298406D02*
X387185Y297008D01*
X385787Y298406D02*
Y299606D01*
X344843Y273622D02*
X411772D01*
X321457Y297008D02*
X344843Y273622D01*
X320256Y297008D02*
X321457D01*
X318858Y298406D02*
X320256Y297008D01*
X318858Y298406D02*
Y299606D01*
X277913Y273622D02*
X344843D01*
X133841Y302420D02*
X162639Y273622D01*
X277913D01*
X254528Y297008D02*
X277913Y273622D01*
X253327Y297008D02*
X254528D01*
X251929Y298406D02*
X253327Y297008D01*
X251929Y298406D02*
Y299606D01*
X251220Y327128D02*
Y328268D01*
Y362205D01*
X251929Y299606D02*
Y306142D01*
X249252Y325159D02*
X251220Y327128D01*
X249764Y308307D02*
X251929Y306142D01*
X249252Y309055D02*
Y325159D01*
Y308721D02*
X249665Y308307D01*
X249764D01*
X318150Y327128D02*
Y328268D01*
Y362205D01*
X318858Y299606D02*
Y306142D01*
X316181Y325159D02*
X318150Y327128D01*
X316693Y308307D02*
X318858Y306142D01*
X316181Y309055D02*
Y325159D01*
Y308721D02*
X316595Y308307D01*
X316693D01*
X385079Y327128D02*
Y328268D01*
Y362205D01*
X385787Y299606D02*
Y306142D01*
X383110Y325159D02*
X385079Y327128D01*
X383622Y308307D02*
X385787Y306142D01*
X383110Y309055D02*
Y325159D01*
Y308721D02*
X383524Y308307D01*
X383622D01*
X134235Y302420D02*
Y312420D01*
X134128Y366094D02*
Y374803D01*
X133947Y384803D02*
X134776Y385632D01*
X451654Y327874D02*
Y361811D01*
Y326734D02*
Y327874D01*
X449685Y324766D02*
X451654Y326734D01*
X449685Y308662D02*
Y324766D01*
Y308327D02*
X450098Y307913D01*
X450197D01*
X452362Y305748D01*
Y299213D02*
Y305748D01*
X143841Y302420D02*
Y312420D01*
Y302362D02*
Y302420D01*
X134181Y320347D02*
X134235Y320294D01*
X134128Y366094D02*
X134181Y366040D01*
Y320347D02*
Y332283D01*
X486714Y199000D02*
X546161D01*
X486128Y130794D02*
Y198414D01*
Y107194D02*
X493622Y99700D01*
X486128Y107194D02*
Y130794D01*
X493622Y99700D02*
X536800D01*
X486128Y198414D02*
X486714Y199000D01*
X536800Y99700D02*
X542450D01*
X542550Y99800D01*
D68*
X574000Y374000D02*
D03*
X573225Y26000D02*
D03*
X26000Y374000D02*
D03*
Y26000D02*
D03*
D69*
X546161Y143000D02*
D03*
Y198650D02*
D03*
Y255000D02*
D03*
D70*
X441654Y361811D02*
D03*
X375079Y362205D02*
D03*
X241220D02*
D03*
X308150D02*
D03*
X431654Y361811D02*
D03*
X231221Y362205D02*
D03*
X298150D02*
D03*
X365079D02*
D03*
X318150D02*
D03*
X385079D02*
D03*
X451654Y361811D02*
D03*
X251220Y362205D02*
D03*
D71*
X393500Y40000D02*
D03*
X353500D02*
D03*
X52300Y272100D02*
D03*
Y292100D02*
D03*
Y332100D02*
D03*
Y322100D02*
D03*
Y302100D02*
D03*
Y312100D02*
D03*
Y222100D02*
D03*
Y212100D02*
D03*
Y232100D02*
D03*
Y192100D02*
D03*
Y202100D02*
D03*
Y252100D02*
D03*
Y242100D02*
D03*
Y262100D02*
D03*
X313500Y40000D02*
D03*
X273500D02*
D03*
X233500D02*
D03*
X243500D02*
D03*
X213500D02*
D03*
X283500Y10000D02*
D03*
X253500D02*
D03*
X283500Y40000D02*
D03*
X253500D02*
D03*
X263500D02*
D03*
X243500Y10000D02*
D03*
X213500D02*
D03*
X223500Y40000D02*
D03*
X323500Y10000D02*
D03*
X293500D02*
D03*
X323500Y40000D02*
D03*
X293500D02*
D03*
X303500D02*
D03*
X403500Y10000D02*
D03*
X373500D02*
D03*
X403500Y40000D02*
D03*
X373500D02*
D03*
X383500D02*
D03*
X343500D02*
D03*
X333500D02*
D03*
X363500D02*
D03*
X333500Y10000D02*
D03*
X363500D02*
D03*
X52300Y282100D02*
D03*
X42300Y332100D02*
D03*
Y322100D02*
D03*
Y312100D02*
D03*
Y302100D02*
D03*
Y292100D02*
D03*
Y282100D02*
D03*
Y272100D02*
D03*
Y262100D02*
D03*
Y252100D02*
D03*
Y242100D02*
D03*
Y232100D02*
D03*
Y222100D02*
D03*
Y212100D02*
D03*
Y202100D02*
D03*
Y192100D02*
D03*
D72*
X123947Y384409D02*
D03*
X113947Y374410D02*
D03*
X103947D02*
D03*
X123947D02*
D03*
X123841Y312420D02*
D03*
Y302420D02*
D03*
X113841D02*
D03*
X103841D02*
D03*
X143947Y374410D02*
D03*
Y384409D02*
D03*
X133947D02*
D03*
Y374410D02*
D03*
X93947Y384409D02*
D03*
X103947D02*
D03*
X113947D02*
D03*
X153947Y374410D02*
D03*
Y384409D02*
D03*
X153841Y312420D02*
D03*
X133841D02*
D03*
X153841Y302420D02*
D03*
X133841D02*
D03*
X113841Y312420D02*
D03*
X103841D02*
D03*
X93841D02*
D03*
X143841D02*
D03*
Y302420D02*
D03*
D73*
X93947Y374410D02*
D03*
X93841Y302420D02*
D03*
D74*
X21646Y81988D02*
D03*
Y142913D02*
D03*
D75*
X58428Y99921D02*
D03*
X68428Y124921D02*
D03*
Y104921D02*
D03*
X58428Y109921D02*
D03*
X68428Y94921D02*
D03*
X58428Y129921D02*
D03*
Y119921D02*
D03*
X68428Y114921D02*
D03*
D76*
X221220Y362205D02*
D03*
X288150D02*
D03*
X355079D02*
D03*
X421654Y361811D02*
D03*
D77*
X571200Y218650D02*
D03*
X531200D02*
D03*
Y178650D02*
D03*
X571200D02*
D03*
Y235000D02*
D03*
X531200D02*
D03*
Y275000D02*
D03*
X571200D02*
D03*
Y163000D02*
D03*
X531200D02*
D03*
Y123000D02*
D03*
X571200D02*
D03*
D78*
X571300Y315300D02*
D03*
Y305300D02*
D03*
D79*
X33428Y89902D02*
D03*
Y134902D02*
D03*
D80*
X581300Y305300D02*
D03*
Y315300D02*
D03*
D81*
X117088Y189135D02*
D03*
Y166035D02*
D03*
X499000Y316600D02*
D03*
X503200Y313700D02*
D03*
X503348Y307920D02*
D03*
X498700Y310900D02*
D03*
X488189Y284252D02*
D03*
X569200Y99800D02*
D03*
X569300Y86600D02*
D03*
X395500Y67200D02*
D03*
X377100Y69500D02*
D03*
X335200Y69000D02*
D03*
X354500Y66600D02*
D03*
X293400Y68400D02*
D03*
X315400Y66400D02*
D03*
X272600Y67300D02*
D03*
X253700Y68600D02*
D03*
X209900Y68300D02*
D03*
X229921Y67323D02*
D03*
X488189Y291339D02*
D03*
X303543Y63779D02*
D03*
X263779Y63386D02*
D03*
X117388Y228835D02*
D03*
X536800Y99700D02*
D03*
X537500Y86900D02*
D03*
X343701Y63779D02*
D03*
X383465Y64173D02*
D03*
X223228Y62992D02*
D03*
X359200Y85500D02*
D03*
X319900Y85900D02*
D03*
X276600Y85300D02*
D03*
X399200Y86000D02*
D03*
X230000Y85300D02*
D03*
D82*
X486128Y130794D02*
D03*
M02*
