G04*
G04 #@! TF.GenerationSoftware,Altium Limited,Altium Designer,25.8.1 (18)*
G04*
G04 Layer_Color=8421504*
%FSLAX25Y25*%
%MOIN*%
G70*
G04*
G04 #@! TF.SameCoordinates,F03844F7-55E9-4189-8D6E-AE4EA490B1BF*
G04*
G04*
G04 #@! TF.FilePolarity,Positive*
G04*
G01*
G75*
G04:AMPARAMS|DCode=21|XSize=19.68mil|YSize=35.43mil|CornerRadius=3.25mil|HoleSize=0mil|Usage=FLASHONLY|Rotation=180.000|XOffset=0mil|YOffset=0mil|HoleType=Round|Shape=RoundedRectangle|*
%AMROUNDEDRECTD21*
21,1,0.01968,0.02894,0,0,180.0*
21,1,0.01319,0.03543,0,0,180.0*
1,1,0.00650,-0.00659,0.01447*
1,1,0.00650,0.00659,0.01447*
1,1,0.00650,0.00659,-0.01447*
1,1,0.00650,-0.00659,-0.01447*
%
%ADD21ROUNDEDRECTD21*%
%ADD22R,0.02362X0.12598*%
%ADD23R,0.01968X0.01968*%
G04:AMPARAMS|DCode=24|XSize=27.95mil|YSize=34.65mil|CornerRadius=4.61mil|HoleSize=0mil|Usage=FLASHONLY|Rotation=0.000|XOffset=0mil|YOffset=0mil|HoleType=Round|Shape=RoundedRectangle|*
%AMROUNDEDRECTD24*
21,1,0.02795,0.02542,0,0,0.0*
21,1,0.01873,0.03465,0,0,0.0*
1,1,0.00922,0.00936,-0.01271*
1,1,0.00922,-0.00936,-0.01271*
1,1,0.00922,-0.00936,0.01271*
1,1,0.00922,0.00936,0.01271*
%
%ADD24ROUNDEDRECTD24*%
G04:AMPARAMS|DCode=25|XSize=47.64mil|YSize=71.65mil|CornerRadius=7.86mil|HoleSize=0mil|Usage=FLASHONLY|Rotation=0.000|XOffset=0mil|YOffset=0mil|HoleType=Round|Shape=RoundedRectangle|*
%AMROUNDEDRECTD25*
21,1,0.04764,0.05593,0,0,0.0*
21,1,0.03192,0.07165,0,0,0.0*
1,1,0.01572,0.01596,-0.02797*
1,1,0.01572,-0.01596,-0.02797*
1,1,0.01572,-0.01596,0.02797*
1,1,0.01572,0.01596,0.02797*
%
%ADD25ROUNDEDRECTD25*%
%ADD26O,0.01575X0.03347*%
G04:AMPARAMS|DCode=27|XSize=19.68mil|YSize=35.43mil|CornerRadius=3.25mil|HoleSize=0mil|Usage=FLASHONLY|Rotation=270.000|XOffset=0mil|YOffset=0mil|HoleType=Round|Shape=RoundedRectangle|*
%AMROUNDEDRECTD27*
21,1,0.01968,0.02894,0,0,270.0*
21,1,0.01319,0.03543,0,0,270.0*
1,1,0.00650,-0.01447,-0.00659*
1,1,0.00650,-0.01447,0.00659*
1,1,0.00650,0.01447,0.00659*
1,1,0.00650,0.01447,-0.00659*
%
%ADD27ROUNDEDRECTD27*%
G04:AMPARAMS|DCode=28|XSize=27.56mil|YSize=70.87mil|CornerRadius=6.89mil|HoleSize=0mil|Usage=FLASHONLY|Rotation=0.000|XOffset=0mil|YOffset=0mil|HoleType=Round|Shape=RoundedRectangle|*
%AMROUNDEDRECTD28*
21,1,0.02756,0.05709,0,0,0.0*
21,1,0.01378,0.07087,0,0,0.0*
1,1,0.01378,0.00689,-0.02854*
1,1,0.01378,-0.00689,-0.02854*
1,1,0.01378,-0.00689,0.02854*
1,1,0.01378,0.00689,0.02854*
%
%ADD28ROUNDEDRECTD28*%
%ADD29R,0.03150X0.03150*%
%ADD30R,0.03150X0.03150*%
%ADD31R,0.14764X0.17362*%
%ADD32R,0.03150X0.02362*%
%ADD33R,0.04331X0.01968*%
D21*
X437567Y309063D02*
D03*
X431819D02*
D03*
X370591Y309055D02*
D03*
X490726Y284263D02*
D03*
X565274Y100000D02*
D03*
X563874Y87100D02*
D03*
X303661Y309055D02*
D03*
X236732D02*
D03*
X230984D02*
D03*
X297913D02*
D03*
X364843D02*
D03*
X490726Y294800D02*
D03*
X496474Y284263D02*
D03*
X558126Y87100D02*
D03*
X496474Y294800D02*
D03*
X548074Y301900D02*
D03*
X542326D02*
D03*
X559526Y100000D02*
D03*
D22*
X511500Y311915D02*
D03*
D23*
X509335Y316600D02*
D03*
Y311600D02*
D03*
Y306600D02*
D03*
D24*
X443622Y308662D02*
D03*
X377047Y309055D02*
D03*
X490568Y277953D02*
D03*
X127677Y339764D02*
D03*
X150551Y339764D02*
D03*
X372165Y64173D02*
D03*
X310118Y309055D02*
D03*
X243189D02*
D03*
X330827Y63386D02*
D03*
X291850D02*
D03*
X252480Y62599D02*
D03*
X210354Y62992D02*
D03*
X144488Y339764D02*
D03*
X133740Y339764D02*
D03*
X249252Y309055D02*
D03*
X316181D02*
D03*
X383110D02*
D03*
X449685Y308662D02*
D03*
X297913Y63386D02*
D03*
X258543Y62599D02*
D03*
X496631Y277953D02*
D03*
X378228Y64173D02*
D03*
X216417Y62992D02*
D03*
X336890Y63386D02*
D03*
D25*
X374370Y299606D02*
D03*
X440945Y299213D02*
D03*
X121457Y332283D02*
D03*
X157165Y332283D02*
D03*
X307441Y299606D02*
D03*
X240512D02*
D03*
X132874Y332283D02*
D03*
X145748Y332283D02*
D03*
X251929Y299606D02*
D03*
X318858D02*
D03*
X385787D02*
D03*
X452362Y299213D02*
D03*
D26*
X395500Y71771D02*
D03*
X354500D02*
D03*
X315300D02*
D03*
X272700D02*
D03*
X229900D02*
D03*
X227341D02*
D03*
X232459D02*
D03*
X227341Y80629D02*
D03*
X229900D02*
D03*
X232459D02*
D03*
X392941Y71771D02*
D03*
X398059D02*
D03*
X392941Y80629D02*
D03*
X395500D02*
D03*
X398059D02*
D03*
X351941Y71771D02*
D03*
X357059D02*
D03*
X351941Y80629D02*
D03*
X354500D02*
D03*
X357059D02*
D03*
X270141Y71771D02*
D03*
X275259D02*
D03*
X270141Y80629D02*
D03*
X272700D02*
D03*
X275259D02*
D03*
X312741Y71771D02*
D03*
X317859D02*
D03*
X312741Y80629D02*
D03*
X315300D02*
D03*
X317859D02*
D03*
D27*
X377200Y73326D02*
D03*
X335000D02*
D03*
X209900D02*
D03*
X293500D02*
D03*
X253400D02*
D03*
X209900Y79074D02*
D03*
X238000Y73326D02*
D03*
Y79074D02*
D03*
X403200Y73326D02*
D03*
Y79074D02*
D03*
X377200D02*
D03*
X363400Y73326D02*
D03*
Y79074D02*
D03*
X335000D02*
D03*
X253400D02*
D03*
X281400Y73326D02*
D03*
Y79074D02*
D03*
X324800Y73326D02*
D03*
Y79074D02*
D03*
X293500D02*
D03*
D28*
X107358Y221423D02*
D03*
X127042D02*
D03*
X107358Y197407D02*
D03*
X117201D02*
D03*
X127042D02*
D03*
X117201Y221423D02*
D03*
X107358Y181223D02*
D03*
X127042D02*
D03*
X107358Y157207D02*
D03*
X127042D02*
D03*
X117201Y181223D02*
D03*
Y157207D02*
D03*
X107358Y261723D02*
D03*
X117201D02*
D03*
X127042D02*
D03*
X107358Y237707D02*
D03*
X117201D02*
D03*
X127042D02*
D03*
D29*
X542750Y87000D02*
D03*
X542550Y99800D02*
D03*
X548850D02*
D03*
X549050Y87000D02*
D03*
D30*
X343200Y73050D02*
D03*
Y79350D02*
D03*
X217500Y73050D02*
D03*
Y79350D02*
D03*
X385000Y73050D02*
D03*
Y79350D02*
D03*
X260300Y73050D02*
D03*
Y79350D02*
D03*
X303200Y73050D02*
D03*
Y79350D02*
D03*
D31*
X524000Y309100D02*
D03*
D32*
X532957Y316600D02*
D03*
Y311600D02*
D03*
Y306600D02*
D03*
Y301600D02*
D03*
D33*
X510516D02*
D03*
M02*
