M48
;Layer_Color=9474304
;FILE_FORMAT=2:4
INCH,TZ
;TYPE=PLATED
T01F00S00C0.0118
T02F00S00C0.0350
T03F00S00C0.0354
T04F00S00C0.0380
T05F00S00C0.0400
T06F00S00C0.0402
T07F00S00C0.0433
T08F00S00C0.0512
T09F00S00C0.0531
T10F00S00C0.0630
T11F00S00C0.0886
T12F00S00C0.1260
;TYPE=NON_PLATED
T13F00S00C0.0433
T14F00S00C0.0492
T15F00S00C0.1280
%
T01
X20990Y6830
X22323Y6299
X22992Y6732
X23000Y8530
X25370Y6860
X26378Y6339
X27260Y6730
X29340Y6840
X30354Y6378
X27660Y8530
X31990Y8590
X31540Y6640
X33520Y6900
X34370Y6378
X35450Y6660
X35920Y8550
X37710Y6950
X38346Y6417
X39550Y6720
X39920Y8600
X48613Y13079
X53680Y9970
X53750Y8690
X56930Y8660
X56920Y9980
X48819Y28425
Y29134
X49870Y31090
X50335Y30792
X11739Y22884
X11709Y18914
Y16604
X49900Y31660
X50320Y31370
T02
X21350Y1000
X24350
X25350
X28350
X29350
X32350
X33350
X36350
X37350
X40350
T03
X5843Y9992
Y10992
Y11992
Y12992
X6843Y12492
Y11492
Y10492
Y9492
T04
X21350Y4000
X22350
X23350
X24350
X25350
X26350
X27350
X28350
X29350
X30350
X31350
X32350
X33350
X34350
X35350
X36350
X37350
X38350
X39350
X40350
T05
X4230Y19210
X5230
Y20210
Y21210
Y22210
Y23210
Y24210
Y25210
Y26210
Y27210
Y28210
Y29210
Y30210
Y31210
X4230
Y30210
Y29210
Y28210
Y27210
Y26210
Y25210
Y24210
Y23210
Y22210
Y21210
Y20210
Y32210
X5230
Y33210
X4230
T06
X22122Y32827
X23122
X24122
X25122
X28815
X29815
X30815
X31815
X35508
X36508
X37508
X38508
X42165Y32787
X43165
X44165
X45165
T07
X57130Y30530
X15384Y30242
Y31242
X14384
X13384
X12384
Y30242
X11384
X10384
X9384
Y31242
X10384
X11384
X13384Y30242
X14384
X14395Y37441
Y38441
X13395
X12395
Y37441
X11395
X10395
X9395
Y38441
X10395
X11395
X13395Y37441
X15395
Y38441
X57130Y31530
T08
X22122Y36220
X23122
X24122
X25122
X28815
X29815
X30815
X31815
X35508
X36508
X37508
X38508
X42165Y36181
X43165
X44165
X45165
T09
X53120Y12300
X57120
Y16300
Y17865
Y21865
Y23500
X53120
Y21865
Y17865
Y16300
Y27500
X57120
T10
X2165Y8199
Y14291
T11
X54616Y14300
Y19865
Y25500
T12
X2600Y2600
X57323
X2600Y37400
X57400
T13
X58130Y30530
Y31530
T14
X24122Y33677
X30815
X37508
X44165Y33638
T15
X3343Y8990
Y13490
M30
